{"glyphs":{"0":{"ha":833,"x_min":0,"x_max":0,"o":"m 344 -14 b 758 486 551 -14 706 172 b 511 986 811 800 718 986 b 97 486 304 986 150 800 b 344 -14 44 172 138 -14 z m 200 326 b 493 881 200 508 271 881 b 644 743 572 881 624 832 z m 363 92 b 211 229 283 92 232 140 l 656 646 b 642 486 657 600 651 546 b 363 92 600 235 500 92 z "},"1":{"ha":833,"x_min":0,"x_max":0,"o":"m 51 0 l 671 0 l 689 106 l 443 106 l 588 972 l 476 972 l 186 803 l 165 682 l 446 844 l 322 106 l 69 106 z "},"2":{"ha":833,"x_min":0,"x_max":0,"o":"m 47 0 l 667 0 l 683 106 l 200 106 b 432 340 235 174 306 243 b 746 722 636 497 725 604 b 499 986 772 878 668 986 b 154 739 329 986 183 879 l 272 739 b 478 879 294 821 381 879 b 624 719 581 879 640 815 b 365 419 610 633 539 553 b 54 47 160 261 72 157 z "},"3":{"ha":833,"x_min":0,"x_max":0,"o":"m 289 739 b 483 881 306 821 388 881 b 633 719 585 881 649 813 b 442 568 619 631 540 568 l 361 568 l 342 458 l 428 458 b 594 278 543 458 611 383 b 357 92 576 169 478 92 b 183 247 246 92 172 158 l 67 247 b 339 -14 42 99 158 -14 b 710 275 526 -14 682 108 b 572 518 731 394 676 482 l 574 524 b 750 729 668 558 733 631 b 500 986 774 878 669 986 b 174 739 335 986 197 882 z "},"4":{"ha":833,"x_min":0,"x_max":0,"o":"m 24 229 l 465 229 l 428 0 l 544 0 l 582 229 l 754 229 l 772 338 l 600 338 l 707 972 l 540 972 l 43 346 z m 565 865 l 571 865 l 483 338 l 151 338 z "},"5":{"ha":833,"x_min":0,"x_max":0,"o":"m 193 247 l 78 247 b 343 -14 67 94 175 -14 b 719 306 531 -14 689 119 b 479 617 750 485 647 617 b 293 553 410 617 344 594 l 288 554 l 374 867 l 764 867 l 782 972 l 289 972 l 143 442 l 246 422 b 431 515 289 481 357 515 b 599 306 549 515 618 428 b 358 92 579 181 478 92 b 193 247 258 92 190 156 z "},"6":{"ha":833,"x_min":0,"x_max":0,"o":"m 519 881 b 675 739 608 881 669 826 l 786 739 b 538 986 794 883 693 986 b 92 474 317 986 143 782 b 360 -14 42 172 144 -14 b 732 308 543 -14 700 119 b 489 619 763 489 660 619 b 217 476 379 619 281 567 l 208 476 b 519 881 251 725 369 881 z m 215 301 b 456 517 236 422 340 517 b 615 306 568 517 635 428 b 379 92 594 182 494 92 b 215 301 265 92 194 182 z "},"7":{"ha":833,"x_min":0,"x_max":0,"o":"m 226 0 l 347 0 b 804 872 407 338 543 597 l 821 972 l 178 972 l 158 864 l 675 864 b 226 0 426 606 281 326 z "},"8":{"ha":833,"x_min":0,"x_max":0,"o":"m 344 -14 b 714 268 526 -14 688 110 b 575 514 733 381 676 472 l 576 519 b 757 732 671 558 740 636 b 511 986 781 876 674 986 b 182 732 349 986 206 876 b 292 519 167 636 210 558 l 290 514 b 68 268 175 474 88 381 b 344 -14 42 110 163 -14 z m 494 882 b 636 724 590 882 651 814 b 442 565 622 633 538 565 b 299 724 346 565 285 633 b 494 882 314 814 399 882 z m 424 458 b 593 276 539 458 610 382 b 363 92 575 171 476 92 b 193 276 249 92 175 171 b 424 458 210 382 308 458 z "},"9":{"ha":833,"x_min":0,"x_max":0,"o":"m 338 92 b 182 233 249 92 188 146 l 71 233 b 319 -14 61 89 163 -14 b 765 499 540 -14 714 190 b 497 986 815 800 713 986 b 125 665 314 986 157 853 b 369 353 94 483 197 353 b 640 496 478 353 576 406 l 649 496 b 338 92 606 247 486 92 z m 642 671 b 401 456 621 550 517 456 b 243 667 289 456 222 544 b 478 881 264 790 363 881 b 642 671 592 881 663 790 z "},"\u0000":{"ha":833,"x_min":0,"x_max":0,"o":""},"\r":{"ha":833,"x_min":0,"x_max":0,"o":""}," ":{"ha":833,"x_min":0,"x_max":0,"o":""},"A":{"ha":833,"x_min":0,"x_max":0,"o":"m 88 0 l 215 274 l 564 274 l 604 0 l 725 0 l 592 972 l 428 972 l -31 0 z m 267 381 l 482 844 l 488 844 l 553 381 z "},"Æ":{"ha":833,"x_min":0,"x_max":0,"o":"m -69 0 l 47 0 l 188 293 l 374 293 l 325 0 l 728 0 l 746 108 l 461 108 l 518 450 l 756 450 l 774 558 l 536 558 l 586 864 l 871 864 l 890 972 l 394 972 z m 238 400 l 461 865 l 468 865 l 390 400 z "},"Ǽ":{"ha":833,"x_min":0,"x_max":0,"o":"m -69 0 l 47 0 l 188 293 l 374 293 l 325 0 l 728 0 l 746 108 l 461 108 l 518 450 l 756 450 l 774 558 l 536 558 l 586 864 l 871 864 l 890 972 l 394 972 z m 238 400 l 461 865 l 468 865 l 390 400 z m 889 1357 l 735 1357 l 585 1100 l 686 1100 z "},"Á":{"ha":833,"x_min":0,"x_max":0,"o":"m 88 0 l 215 274 l 564 274 l 604 0 l 725 0 l 592 972 l 428 972 l -31 0 z m 267 381 l 482 844 l 488 844 l 553 381 z m 760 1357 l 606 1357 l 456 1100 l 557 1100 z "},"Ă":{"ha":833,"x_min":0,"x_max":0,"o":"m 88 0 l 215 274 l 564 274 l 604 0 l 725 0 l 592 972 l 428 972 l -31 0 z m 267 381 l 482 844 l 488 844 l 553 381 z m 471 1282 l 375 1282 b 529 1092 357 1171 421 1092 b 747 1282 638 1092 729 1171 l 651 1282 b 544 1181 636 1221 593 1181 b 471 1282 496 1181 467 1221 z "},"Â":{"ha":833,"x_min":0,"x_max":0,"o":"m 88 0 l 215 274 l 564 274 l 604 0 l 725 0 l 592 972 l 428 972 l -31 0 z m 267 381 l 482 844 l 488 844 l 553 381 z m 315 1090 l 415 1090 l 553 1235 l 643 1090 l 744 1090 l 631 1335 l 508 1335 z "},"Ä":{"ha":833,"x_min":0,"x_max":0,"o":"m 88 0 l 215 274 l 564 274 l 604 0 l 725 0 l 592 972 l 428 972 l -31 0 z m 267 381 l 482 844 l 488 844 l 553 381 z m 310 1215 b 390 1119 301 1163 338 1119 b 500 1215 443 1119 492 1163 b 421 1310 510 1268 475 1310 b 310 1215 368 1310 319 1268 z m 599 1215 b 679 1119 590 1163 626 1119 b 789 1215 732 1119 781 1163 b 710 1310 799 1268 764 1310 b 599 1215 657 1310 608 1268 z "},"À":{"ha":833,"x_min":0,"x_max":0,"o":"m 88 0 l 215 274 l 564 274 l 604 0 l 725 0 l 592 972 l 428 972 l -31 0 z m 267 381 l 482 844 l 488 844 l 553 381 z m 607 1100 l 543 1357 l 389 1357 l 506 1100 z "},"Α":{"ha":833,"x_min":0,"x_max":0,"o":"m 88 0 l 215 274 l 564 274 l 604 0 l 725 0 l 592 972 l 428 972 l -31 0 z m 267 381 l 482 844 l 488 844 l 553 381 z "},"Ά":{"ha":833,"x_min":0,"x_max":0,"o":"m 88 0 l 215 274 l 564 274 l 604 0 l 725 0 l 592 972 l 428 972 l -31 0 z m 267 381 l 482 844 l 488 844 l 553 381 z m 390 1075 l 251 1075 l 158 794 l 250 794 z "},"Ā":{"ha":833,"x_min":0,"x_max":0,"o":"m 88 0 l 215 274 l 564 274 l 604 0 l 725 0 l 592 972 l 428 972 l -31 0 z m 267 381 l 482 844 l 488 844 l 553 381 z m 325 1153 l 753 1153 l 769 1250 l 342 1250 z "},"Ą":{"ha":833,"x_min":0,"x_max":0,"o":"m 88 0 l 215 274 l 564 274 l 599 39 b 414 -140 489 -3 426 -65 b 556 -285 400 -225 457 -285 b 614 -278 578 -285 597 -282 l 628 -193 b 590 -197 615 -196 601 -197 b 518 -121 542 -197 511 -167 b 664 0 526 -72 575 -32 l 725 0 l 592 972 l 428 972 l -31 0 z m 267 381 l 482 844 l 488 844 l 553 381 z "},"Å":{"ha":833,"x_min":0,"x_max":0,"o":"m 88 0 l 215 274 l 564 274 l 604 0 l 725 0 l 592 972 l 428 972 l -31 0 z m 267 381 l 482 844 l 488 844 l 553 381 z m 393 1235 b 526 1074 378 1144 436 1074 b 715 1233 617 1074 700 1144 b 579 1393 731 1324 671 1393 b 393 1235 488 1393 407 1324 z m 540 1153 b 475 1233 494 1153 468 1186 b 568 1314 483 1281 522 1314 b 632 1233 613 1314 639 1281 b 540 1153 624 1186 585 1153 z "},"Ǻ":{"ha":833,"x_min":0,"x_max":0,"o":"m 88 0 l 215 274 l 564 274 l 604 0 l 725 0 l 597 933 b 678 1058 639 963 669 1007 b 603 1204 689 1125 658 1181 l 757 1399 l 603 1399 l 492 1210 b 354 1058 422 1190 367 1131 b 404 924 346 1001 365 951 l -31 0 z m 267 381 l 482 844 l 488 844 l 553 381 z m 501 976 b 438 1057 457 976 431 1010 b 529 1138 446 1104 485 1138 b 594 1057 575 1138 601 1104 b 501 976 586 1010 547 976 z "},"Ã":{"ha":833,"x_min":0,"x_max":0,"o":"m 88 0 l 215 274 l 564 274 l 604 0 l 725 0 l 592 972 l 428 972 l -31 0 z m 267 381 l 482 844 l 488 844 l 553 381 z m 294 1144 l 393 1144 l 400 1174 b 456 1251 410 1226 429 1251 b 635 1125 515 1251 507 1125 b 806 1288 724 1125 789 1188 l 813 1325 l 714 1325 l 708 1296 b 653 1218 697 1243 679 1218 b 474 1344 592 1218 600 1344 b 300 1182 385 1344 318 1282 z "},"B":{"ha":833,"x_min":0,"x_max":0,"o":"m 56 0 l 401 0 b 726 268 564 0 701 113 b 606 506 744 382 699 469 l 607 511 b 772 724 693 550 757 628 b 546 972 796 868 701 972 l 218 972 z m 269 558 l 319 864 l 533 864 b 651 714 618 864 665 804 b 482 558 636 624 567 558 z m 194 108 l 251 450 l 481 450 b 607 279 572 450 624 381 b 424 108 589 178 515 108 z "},"Β":{"ha":833,"x_min":0,"x_max":0,"o":"m 56 0 l 401 0 b 726 268 564 0 701 113 b 606 506 744 382 699 469 l 607 511 b 772 724 693 550 757 628 b 546 972 796 868 701 972 l 218 972 z m 269 558 l 319 864 l 533 864 b 651 714 618 864 665 804 b 482 558 636 624 567 558 z m 194 108 l 251 450 l 481 450 b 607 279 572 450 624 381 b 424 108 589 178 515 108 z "},"C":{"ha":833,"x_min":0,"x_max":0,"o":"m 618 247 b 403 97 585 157 499 97 b 214 485 249 97 175 249 b 531 875 254 721 378 875 b 692 739 621 875 686 821 l 807 739 b 544 986 810 883 700 986 b 92 486 326 986 142 783 b 381 -14 43 190 161 -14 b 735 247 540 -14 689 94 z "},"Ć":{"ha":833,"x_min":0,"x_max":0,"o":"m 618 247 b 403 97 585 157 499 97 b 214 485 249 97 175 249 b 531 875 254 721 378 875 b 692 739 621 875 686 821 l 807 739 b 544 986 810 883 700 986 b 92 486 326 986 142 783 b 381 -14 43 190 161 -14 b 735 247 540 -14 689 94 z m 786 1357 l 632 1357 l 482 1100 l 583 1100 z "},"Č":{"ha":833,"x_min":0,"x_max":0,"o":"m 618 247 b 403 97 585 157 499 97 b 214 485 249 97 175 249 b 531 875 254 721 378 875 b 692 739 621 875 686 821 l 807 739 b 544 986 810 883 700 986 b 92 486 326 986 142 783 b 381 -14 43 190 161 -14 b 735 247 540 -14 689 94 z m 494 1090 l 618 1090 l 811 1335 l 710 1335 l 572 1192 l 482 1335 l 381 1335 z "},"Ç":{"ha":833,"x_min":0,"x_max":0,"o":"m 288 -221 l 194 -221 b 339 -362 185 -303 244 -362 b 536 -210 438 -362 521 -297 b 390 -74 550 -121 488 -61 l 411 -12 b 735 247 558 0 692 104 l 618 247 b 403 97 585 157 499 97 b 214 485 249 97 175 249 b 531 875 254 721 378 875 b 692 739 621 875 686 821 l 807 739 b 544 986 810 883 700 986 b 92 486 326 986 142 783 b 313 -7 49 222 138 32 l 267 -140 l 324 -161 b 376 -144 338 -151 356 -144 b 440 -214 419 -144 447 -172 b 356 -282 433 -254 399 -282 b 288 -221 314 -282 288 -257 z "},"Ĉ":{"ha":833,"x_min":0,"x_max":0,"o":"m 618 247 b 403 97 585 157 499 97 b 214 485 249 97 175 249 b 531 875 254 721 378 875 b 692 739 621 875 686 821 l 807 739 b 544 986 810 883 700 986 b 92 486 326 986 142 783 b 381 -14 43 190 161 -14 b 735 247 540 -14 689 94 z m 342 1090 l 442 1090 l 579 1235 l 669 1090 l 771 1090 l 657 1335 l 535 1335 z "},"Ċ":{"ha":833,"x_min":0,"x_max":0,"o":"m 618 247 b 403 97 585 157 499 97 b 214 485 249 97 175 249 b 531 875 254 721 378 875 b 692 739 621 875 686 821 l 807 739 b 544 986 810 883 700 986 b 92 486 326 986 142 783 b 381 -14 43 190 161 -14 b 735 247 540 -14 689 94 z m 474 1214 b 560 1111 464 1157 503 1111 b 678 1214 617 1111 669 1157 b 593 1315 689 1271 651 1315 b 474 1214 538 1315 483 1271 z "},"Χ":{"ha":833,"x_min":0,"x_max":0,"o":"m -54 0 l 81 0 l 414 407 l 611 0 l 749 0 l 506 507 l 886 972 l 751 972 l 449 604 l 268 972 l 131 972 l 357 506 z "},"D":{"ha":833,"x_min":0,"x_max":0,"o":"m 42 0 l 318 0 b 793 486 553 0 744 197 b 481 972 842 775 715 972 l 204 972 z m 181 108 l 307 864 l 463 864 b 671 486 628 864 710 717 b 336 108 633 256 501 108 z "},"Ď":{"ha":833,"x_min":0,"x_max":0,"o":"m 42 0 l 318 0 b 793 486 553 0 744 197 b 481 972 842 775 715 972 l 204 972 z m 181 108 l 307 864 l 463 864 b 671 486 628 864 710 717 b 336 108 633 256 501 108 z m 518 1090 l 642 1090 l 835 1335 l 733 1335 l 596 1192 l 506 1335 l 404 1335 z "},"Đ":{"ha":833,"x_min":0,"x_max":0,"o":"m 42 0 l 318 0 b 793 486 553 0 744 197 b 481 972 842 775 715 972 l 204 972 l 132 538 l 49 538 l 31 436 l 115 436 z m 181 108 l 235 436 l 447 436 l 465 538 l 253 538 l 307 864 l 463 864 b 671 486 628 864 710 717 b 336 108 633 256 501 108 z "},"Δ":{"ha":833,"x_min":0,"x_max":0,"o":"m -31 0 l 725 0 l 592 972 l 428 972 z m 138 108 l 483 844 l 489 844 l 590 108 z "},"E":{"ha":833,"x_min":0,"x_max":0,"o":"m 88 0 l 665 0 l 682 108 l 226 108 l 283 450 l 679 450 l 697 558 l 301 558 l 351 864 l 808 864 l 828 972 l 250 972 z "},"É":{"ha":833,"x_min":0,"x_max":0,"o":"m 88 0 l 665 0 l 682 108 l 226 108 l 283 450 l 679 450 l 697 558 l 301 558 l 351 864 l 808 864 l 828 972 l 250 972 z m 786 1357 l 632 1357 l 482 1100 l 583 1100 z "},"Ĕ":{"ha":833,"x_min":0,"x_max":0,"o":"m 88 0 l 665 0 l 682 108 l 226 108 l 283 450 l 679 450 l 697 558 l 301 558 l 351 864 l 808 864 l 828 972 l 250 972 z m 497 1282 l 401 1282 b 556 1092 383 1171 447 1092 b 774 1282 664 1092 756 1171 l 678 1282 b 571 1181 663 1221 619 1181 b 497 1282 522 1181 493 1221 z "},"Ě":{"ha":833,"x_min":0,"x_max":0,"o":"m 88 0 l 665 0 l 682 108 l 226 108 l 283 450 l 679 450 l 697 558 l 301 558 l 351 864 l 808 864 l 828 972 l 250 972 z m 494 1090 l 618 1090 l 811 1335 l 710 1335 l 572 1192 l 482 1335 l 381 1335 z "},"Ê":{"ha":833,"x_min":0,"x_max":0,"o":"m 88 0 l 665 0 l 682 108 l 226 108 l 283 450 l 679 450 l 697 558 l 301 558 l 351 864 l 808 864 l 828 972 l 250 972 z m 342 1090 l 442 1090 l 579 1235 l 669 1090 l 771 1090 l 657 1335 l 535 1335 z "},"Ë":{"ha":833,"x_min":0,"x_max":0,"o":"m 88 0 l 665 0 l 682 108 l 226 108 l 283 450 l 679 450 l 697 558 l 301 558 l 351 864 l 808 864 l 828 972 l 250 972 z m 336 1215 b 417 1119 328 1163 364 1119 b 526 1215 469 1119 518 1163 b 447 1310 536 1268 501 1310 b 336 1215 394 1310 346 1268 z m 625 1215 b 706 1119 617 1163 653 1119 b 815 1215 758 1119 807 1163 b 736 1310 825 1268 790 1310 b 625 1215 683 1310 635 1268 z "},"Ė":{"ha":833,"x_min":0,"x_max":0,"o":"m 88 0 l 665 0 l 682 108 l 226 108 l 283 450 l 679 450 l 697 558 l 301 558 l 351 864 l 808 864 l 828 972 l 250 972 z m 474 1214 b 560 1111 464 1157 503 1111 b 678 1214 617 1111 669 1157 b 593 1315 689 1271 651 1315 b 474 1214 538 1315 483 1271 z "},"È":{"ha":833,"x_min":0,"x_max":0,"o":"m 88 0 l 665 0 l 682 108 l 226 108 l 283 450 l 679 450 l 697 558 l 301 558 l 351 864 l 808 864 l 828 972 l 250 972 z m 633 1100 l 569 1357 l 415 1357 l 532 1100 z "},"Ē":{"ha":833,"x_min":0,"x_max":0,"o":"m 88 0 l 665 0 l 682 108 l 226 108 l 283 450 l 679 450 l 697 558 l 301 558 l 351 864 l 808 864 l 828 972 l 250 972 z m 351 1153 l 779 1153 l 796 1250 l 368 1250 z "},"Ŋ":{"ha":833,"x_min":0,"x_max":0,"o":"m 594 176 l 589 176 l 357 972 l 179 972 l 17 0 l 129 0 l 269 847 l 275 847 l 522 0 l 561 0 l 557 -26 b 382 -193 543 -107 507 -193 b 260 -162 333 -193 293 -181 l 244 -260 b 383 -292 274 -278 318 -292 b 674 -26 588 -292 653 -154 l 681 13 l 679 13 l 840 972 l 728 972 z "},"Ę":{"ha":833,"x_min":0,"x_max":0,"o":"m 88 0 l 524 0 b 418 -140 463 -39 426 -86 b 560 -285 404 -225 461 -285 b 618 -278 582 -285 601 -282 l 632 -193 b 594 -197 619 -196 606 -197 b 522 -121 546 -197 515 -167 b 668 0 531 -72 579 -32 l 665 1 l 682 108 l 226 108 l 283 450 l 679 450 l 697 558 l 301 558 l 351 864 l 808 864 l 828 972 l 250 972 z "},"Ε":{"ha":833,"x_min":0,"x_max":0,"o":"m 88 0 l 665 0 l 682 108 l 226 108 l 283 450 l 679 450 l 697 558 l 301 558 l 351 864 l 808 864 l 828 972 l 250 972 z "},"Έ":{"ha":833,"x_min":0,"x_max":0,"o":"m 88 0 l 665 0 l 682 108 l 226 108 l 283 450 l 679 450 l 697 558 l 301 558 l 351 864 l 808 864 l 828 972 l 250 972 z m 247 1075 l 108 1075 l 15 794 l 107 794 z "},"Η":{"ha":833,"x_min":0,"x_max":0,"o":"m 22 0 l 143 0 l 218 447 l 625 447 l 551 0 l 672 0 l 835 972 l 714 972 l 644 558 l 236 558 l 306 972 l 185 972 z "},"Ή":{"ha":833,"x_min":0,"x_max":0,"o":"m 22 0 l 143 0 l 218 447 l 625 447 l 551 0 l 672 0 l 835 972 l 714 972 l 644 558 l 236 558 l 306 972 l 185 972 z m 183 1075 l 44 1075 l -49 794 l 43 794 z "},"Ð":{"ha":833,"x_min":0,"x_max":0,"o":"m 42 0 l 318 0 b 793 486 553 0 744 197 b 481 972 842 775 715 972 l 204 972 l 132 538 l 49 538 l 31 436 l 115 436 z m 181 108 l 235 436 l 447 436 l 465 538 l 253 538 l 307 864 l 463 864 b 671 486 628 864 710 717 b 336 108 633 256 501 108 z "},"€":{"ha":833,"x_min":0,"x_max":0,"o":"m 40 540 l 103 540 b 92 486 99 522 96 504 b 86 446 90 472 88 460 l 24 446 l 8 351 l 82 351 b 381 -14 83 131 196 -14 b 735 247 540 -14 689 94 l 618 247 b 401 97 585 157 499 97 b 204 351 279 97 208 193 l 511 351 l 551 446 l 208 446 b 214 485 210 458 213 471 b 225 540 218 504 221 522 l 586 540 l 626 635 l 254 635 b 529 875 313 785 413 875 b 692 739 621 875 686 821 l 807 739 b 546 986 810 883 700 986 b 131 635 365 986 208 849 l 56 635 z "},"F":{"ha":833,"x_min":0,"x_max":0,"o":"m 92 0 l 214 0 l 285 432 l 681 432 l 699 540 l 303 540 l 357 864 l 814 864 l 832 972 l 254 972 z "},"G":{"ha":833,"x_min":0,"x_max":0,"o":"m 413 415 l 631 415 b 358 94 599 226 486 94 b 190 483 219 94 151 251 b 511 875 231 722 356 875 b 676 739 603 875 669 821 l 793 739 b 525 986 794 883 682 986 b 68 481 304 986 118 781 b 321 -14 21 192 128 -14 b 588 147 426 -14 521 47 l 593 147 l 568 0 l 678 0 l 765 524 l 431 524 z "},"Γ":{"ha":833,"x_min":0,"x_max":0,"o":"m 97 0 l 219 0 l 363 864 l 819 864 l 838 972 l 260 972 z "},"Ğ":{"ha":833,"x_min":0,"x_max":0,"o":"m 413 415 l 631 415 b 358 94 599 226 486 94 b 190 483 219 94 151 251 b 511 875 231 722 356 875 b 676 739 603 875 669 821 l 793 739 b 525 986 794 883 682 986 b 68 481 304 986 118 781 b 321 -14 21 192 128 -14 b 588 147 426 -14 521 47 l 593 147 l 568 0 l 678 0 l 765 524 l 431 524 z m 476 1282 l 381 1282 b 535 1092 363 1171 426 1092 b 753 1282 643 1092 735 1171 l 657 1282 b 550 1181 642 1221 599 1181 b 476 1282 501 1181 472 1221 z "},"Ĝ":{"ha":833,"x_min":0,"x_max":0,"o":"m 413 415 l 631 415 b 358 94 599 226 486 94 b 190 483 219 94 151 251 b 511 875 231 722 356 875 b 676 739 603 875 669 821 l 793 739 b 525 986 794 883 682 986 b 68 481 304 986 118 781 b 321 -14 21 192 128 -14 b 588 147 426 -14 521 47 l 593 147 l 568 0 l 678 0 l 765 524 l 431 524 z m 321 1090 l 421 1090 l 558 1235 l 649 1090 l 750 1090 l 636 1335 l 514 1335 z "},"Ģ":{"ha":833,"x_min":0,"x_max":0,"o":"m 413 415 l 631 415 b 358 94 599 226 486 94 b 190 483 219 94 151 251 b 511 875 231 722 356 875 b 676 739 603 875 669 821 l 793 739 b 525 986 794 883 682 986 b 68 481 304 986 118 781 b 321 -14 21 192 128 -14 b 588 147 426 -14 521 47 l 593 147 l 568 0 l 678 0 l 765 524 l 431 524 z m 382 -101 l 228 -101 l 76 -358 l 178 -358 z "},"Ġ":{"ha":833,"x_min":0,"x_max":0,"o":"m 413 415 l 631 415 b 358 94 599 226 486 94 b 190 483 219 94 151 251 b 511 875 231 722 356 875 b 676 739 603 875 669 821 l 793 739 b 525 986 794 883 682 986 b 68 481 304 986 118 781 b 321 -14 21 192 128 -14 b 588 147 426 -14 521 47 l 593 147 l 568 0 l 678 0 l 765 524 l 431 524 z m 453 1214 b 539 1111 443 1157 482 1111 b 657 1214 596 1111 649 1157 b 572 1315 668 1271 631 1315 b 453 1214 517 1315 463 1271 z "},"H":{"ha":833,"x_min":0,"x_max":0,"o":"m 22 0 l 143 0 l 218 447 l 625 447 l 551 0 l 672 0 l 835 972 l 714 972 l 644 558 l 236 558 l 306 972 l 185 972 z "},"Ħ":{"ha":833,"x_min":0,"x_max":0,"o":"m 22 0 l 143 0 l 210 397 l 617 397 l 551 0 l 672 0 l 789 697 l 850 697 l 864 782 l 803 782 l 835 972 l 714 972 l 682 782 l 274 782 l 306 972 l 185 972 l 153 782 l 92 782 l 78 697 l 139 697 z m 636 508 l 228 508 l 260 697 l 668 697 z "},"Ĥ":{"ha":833,"x_min":0,"x_max":0,"o":"m 22 0 l 143 0 l 218 447 l 625 447 l 551 0 l 672 0 l 835 972 l 714 972 l 644 558 l 236 558 l 306 972 l 185 972 z m 315 1090 l 415 1090 l 553 1235 l 643 1090 l 744 1090 l 631 1335 l 508 1335 z "},"I":{"ha":833,"x_min":0,"x_max":0,"o":"m 67 0 l 628 0 l 646 108 l 425 108 l 551 864 l 768 864 l 788 972 l 232 972 l 214 864 l 431 864 l 304 108 l 85 108 z "},"Ĳ":{"ha":833,"x_min":0,"x_max":0,"o":"m 106 386 l 228 386 l 325 972 l 204 972 z m 85 247 b 344 -14 63 96 172 -14 b 697 260 522 -14 671 101 l 815 972 l 450 972 l 432 864 l 678 864 l 575 261 b 361 94 560 163 472 94 b 197 247 256 94 188 157 z "},"Í":{"ha":833,"x_min":0,"x_max":0,"o":"m 67 0 l 628 0 l 646 108 l 425 108 l 551 864 l 768 864 l 788 972 l 232 972 l 214 864 l 431 864 l 304 108 l 85 108 z m 760 1357 l 606 1357 l 456 1100 l 557 1100 z "},"Ĭ":{"ha":833,"x_min":0,"x_max":0,"o":"m 67 0 l 628 0 l 646 108 l 425 108 l 551 864 l 768 864 l 788 972 l 232 972 l 214 864 l 431 864 l 304 108 l 85 108 z m 471 1282 l 375 1282 b 529 1092 357 1171 421 1092 b 747 1282 638 1092 729 1171 l 651 1282 b 544 1181 636 1221 593 1181 b 471 1282 496 1181 467 1221 z "},"Î":{"ha":833,"x_min":0,"x_max":0,"o":"m 67 0 l 628 0 l 646 108 l 425 108 l 551 864 l 768 864 l 788 972 l 232 972 l 214 864 l 431 864 l 304 108 l 85 108 z m 315 1090 l 415 1090 l 553 1235 l 643 1090 l 744 1090 l 631 1335 l 508 1335 z "},"Ï":{"ha":833,"x_min":0,"x_max":0,"o":"m 67 0 l 628 0 l 646 108 l 425 108 l 551 864 l 768 864 l 788 972 l 232 972 l 214 864 l 431 864 l 304 108 l 85 108 z m 310 1215 b 390 1119 301 1163 338 1119 b 500 1215 443 1119 492 1163 b 421 1310 510 1268 475 1310 b 310 1215 368 1310 319 1268 z m 599 1215 b 679 1119 590 1163 626 1119 b 789 1215 732 1119 781 1163 b 710 1310 799 1268 764 1310 b 599 1215 657 1310 608 1268 z "},"İ":{"ha":833,"x_min":0,"x_max":0,"o":"m 67 0 l 628 0 l 646 108 l 425 108 l 551 864 l 768 864 l 788 972 l 232 972 l 214 864 l 431 864 l 304 108 l 85 108 z m 447 1214 b 533 1111 438 1157 476 1111 b 651 1214 590 1111 643 1157 b 567 1315 663 1271 625 1315 b 447 1214 511 1315 457 1271 z "},"Ì":{"ha":833,"x_min":0,"x_max":0,"o":"m 67 0 l 628 0 l 646 108 l 425 108 l 551 864 l 768 864 l 788 972 l 232 972 l 214 864 l 431 864 l 304 108 l 85 108 z m 607 1100 l 543 1357 l 389 1357 l 506 1100 z "},"Ī":{"ha":833,"x_min":0,"x_max":0,"o":"m 67 0 l 628 0 l 646 108 l 425 108 l 551 864 l 768 864 l 788 972 l 232 972 l 214 864 l 431 864 l 304 108 l 85 108 z m 325 1153 l 753 1153 l 769 1250 l 342 1250 z "},"Į":{"ha":833,"x_min":0,"x_max":0,"o":"m 67 0 l 489 0 b 383 -140 428 -39 392 -86 b 525 -285 369 -225 426 -285 b 583 -278 547 -285 567 -282 l 597 -193 b 560 -197 585 -196 571 -197 b 488 -121 511 -197 481 -167 b 633 0 496 -72 544 -32 l 628 4 l 646 108 l 425 108 l 551 864 l 768 864 l 788 972 l 232 972 l 214 864 l 431 864 l 304 108 l 85 108 z "},"Ι":{"ha":833,"x_min":0,"x_max":0,"o":"m 67 0 l 628 0 l 646 108 l 425 108 l 551 864 l 768 864 l 788 972 l 232 972 l 214 864 l 431 864 l 304 108 l 85 108 z "},"Ϊ":{"ha":833,"x_min":0,"x_max":0,"o":"m 67 0 l 628 0 l 646 108 l 425 108 l 551 864 l 768 864 l 788 972 l 232 972 l 214 864 l 431 864 l 304 108 l 85 108 z m 379 1215 b 460 1119 371 1163 407 1119 b 569 1215 513 1119 561 1163 b 490 1310 579 1268 544 1310 b 379 1215 438 1310 389 1268 z m 668 1215 b 749 1119 660 1163 696 1119 b 858 1215 801 1119 850 1163 b 781 1310 868 1268 833 1310 b 668 1215 728 1310 678 1268 z "},"Ί":{"ha":833,"x_min":0,"x_max":0,"o":"m 67 0 l 628 0 l 646 108 l 425 108 l 551 864 l 768 864 l 788 972 l 232 972 l 214 864 l 431 864 l 304 108 l 85 108 z m 231 1075 l 92 1075 l -1 794 l 90 794 z "},"Ĩ":{"ha":833,"x_min":0,"x_max":0,"o":"m 67 0 l 628 0 l 646 108 l 425 108 l 551 864 l 768 864 l 788 972 l 232 972 l 214 864 l 431 864 l 304 108 l 85 108 z m 294 1144 l 393 1144 l 400 1174 b 456 1251 410 1226 429 1251 b 635 1125 515 1251 507 1125 b 806 1288 724 1125 789 1188 l 813 1325 l 714 1325 l 708 1296 b 653 1218 697 1243 679 1218 b 474 1344 592 1218 600 1344 b 300 1182 385 1344 318 1282 z "},"J":{"ha":833,"x_min":0,"x_max":0,"o":"m 53 247 b 313 -14 31 96 140 -14 b 665 260 490 -14 639 101 l 783 972 l 283 972 l 267 864 l 646 864 l 543 261 b 329 94 528 163 440 94 b 165 247 224 94 156 157 z "},"Ĵ":{"ha":833,"x_min":0,"x_max":0,"o":"m 53 247 b 313 -14 31 96 140 -14 b 665 260 490 -14 639 101 l 783 972 l 283 972 l 267 864 l 646 864 l 543 261 b 329 94 528 163 440 94 b 165 247 224 94 156 157 z m 361 1090 l 461 1090 l 599 1235 l 689 1090 l 790 1090 l 676 1335 l 554 1335 z "},"K":{"ha":833,"x_min":0,"x_max":0,"o":"m 314 972 l 193 972 l 31 0 l 151 0 l 203 308 l 376 472 l 615 0 l 756 0 l 471 564 l 900 972 l 751 972 l 231 479 z "},"Κ":{"ha":833,"x_min":0,"x_max":0,"o":"m 314 972 l 193 972 l 31 0 l 151 0 l 203 308 l 376 472 l 615 0 l 756 0 l 471 564 l 900 972 l 751 972 l 231 479 z "},"Ķ":{"ha":833,"x_min":0,"x_max":0,"o":"m 314 972 l 193 972 l 31 0 l 151 0 l 203 308 l 376 472 l 615 0 l 756 0 l 471 564 l 900 972 l 751 972 l 231 479 z m 431 -101 l 276 -101 l 125 -358 l 226 -358 z "},"L":{"ha":833,"x_min":0,"x_max":0,"o":"m 103 0 l 667 0 l 685 108 l 242 108 l 386 972 l 265 972 z "},"Ĺ":{"ha":833,"x_min":0,"x_max":0,"o":"m 103 0 l 667 0 l 685 108 l 242 108 l 386 972 l 265 972 z m 579 1357 l 425 1357 l 275 1100 l 376 1100 z "},"Λ":{"ha":833,"x_min":0,"x_max":0,"o":"m 590 972 l 429 972 l -33 0 l 88 0 l 483 838 l 489 838 l 604 0 l 728 0 z "},"Ľ":{"ha":833,"x_min":0,"x_max":0,"o":"m 103 0 l 667 0 l 685 108 l 242 108 l 386 972 l 265 972 z m 411 733 l 399 649 b 717 915 553 647 690 761 b 618 1090 733 1017 693 1090 b 501 992 563 1090 511 1049 b 568 900 493 940 521 900 b 619 918 586 900 604 907 b 618 901 619 913 619 907 b 411 733 601 807 515 735 z "},"Ļ":{"ha":833,"x_min":0,"x_max":0,"o":"m 103 0 l 667 0 l 685 108 l 242 108 l 386 972 l 265 972 z m 440 -101 l 286 -101 l 135 -358 l 236 -358 z "},"Ŀ":{"ha":833,"x_min":0,"x_max":0,"o":"m 103 0 l 667 0 l 685 108 l 242 108 l 386 972 l 265 972 z m 564 526 b 653 419 553 467 593 419 b 778 526 711 419 767 467 b 688 633 788 585 747 633 b 564 526 629 633 574 585 z "},"Ł":{"ha":833,"x_min":0,"x_max":0,"o":"m 103 0 l 667 0 l 685 108 l 242 108 l 306 489 l 604 635 l 621 746 l 324 601 l 386 972 l 265 972 l 193 536 l 44 464 l 25 353 l 174 425 z "},"M":{"ha":833,"x_min":0,"x_max":0,"o":"m 242 831 l 247 831 l 328 211 l 438 211 l 725 831 l 731 831 l 592 0 l 706 0 l 868 972 l 694 972 l 410 357 l 404 357 l 325 972 l 151 972 l -11 0 l 103 0 z "},"Μ":{"ha":833,"x_min":0,"x_max":0,"o":"m 242 831 l 247 831 l 328 211 l 438 211 l 725 831 l 731 831 l 592 0 l 706 0 l 868 972 l 694 972 l 410 357 l 404 357 l 325 972 l 151 972 l -11 0 l 103 0 z "},"N":{"ha":833,"x_min":0,"x_max":0,"o":"m 594 176 l 589 176 l 357 972 l 179 972 l 17 0 l 129 0 l 269 847 l 275 847 l 522 0 l 678 0 l 840 972 l 728 972 z "},"Ń":{"ha":833,"x_min":0,"x_max":0,"o":"m 594 176 l 589 176 l 357 972 l 179 972 l 17 0 l 129 0 l 269 847 l 275 847 l 522 0 l 678 0 l 840 972 l 728 972 z m 760 1357 l 606 1357 l 456 1100 l 557 1100 z "},"Ň":{"ha":833,"x_min":0,"x_max":0,"o":"m 594 176 l 589 176 l 357 972 l 179 972 l 17 0 l 129 0 l 269 847 l 275 847 l 522 0 l 678 0 l 840 972 l 728 972 z m 468 1090 l 592 1090 l 785 1335 l 683 1335 l 546 1192 l 456 1335 l 354 1335 z "},"Ņ":{"ha":833,"x_min":0,"x_max":0,"o":"m 594 176 l 589 176 l 357 972 l 179 972 l 17 0 l 129 0 l 269 847 l 275 847 l 522 0 l 678 0 l 840 972 l 728 972 z m 396 -101 l 242 -101 l 90 -358 l 192 -358 z "},"Ñ":{"ha":833,"x_min":0,"x_max":0,"o":"m 594 176 l 589 176 l 357 972 l 179 972 l 17 0 l 129 0 l 269 847 l 275 847 l 522 0 l 678 0 l 840 972 l 728 972 z m 294 1144 l 393 1144 l 400 1174 b 456 1251 410 1226 429 1251 b 635 1125 515 1251 507 1125 b 806 1288 724 1125 789 1188 l 813 1325 l 714 1325 l 708 1296 b 653 1218 697 1243 679 1218 b 474 1344 592 1218 600 1344 b 300 1182 385 1344 318 1282 z "},"Ν":{"ha":833,"x_min":0,"x_max":0,"o":"m 594 176 l 589 176 l 357 972 l 179 972 l 17 0 l 129 0 l 269 847 l 275 847 l 522 0 l 678 0 l 840 972 l 728 972 z "},"O":{"ha":833,"x_min":0,"x_max":0,"o":"m 344 -14 b 794 486 560 -14 746 192 b 511 986 843 781 726 986 b 61 486 296 986 110 781 b 344 -14 13 192 129 -14 z m 364 97 b 182 486 215 97 143 250 b 493 875 222 722 344 875 b 674 486 642 875 713 722 b 364 97 633 250 513 97 z "},"Œ":{"ha":833,"x_min":0,"x_max":0,"o":"m 279 0 l 728 0 l 746 108 l 469 108 l 528 450 l 756 450 l 774 558 l 546 558 l 596 864 l 871 864 l 890 972 l 442 972 b 51 486 264 972 99 767 b 279 0 4 206 101 0 z m 422 864 l 476 864 l 350 108 l 297 108 b 169 486 185 108 132 263 b 422 864 207 710 311 864 z "},"Ó":{"ha":833,"x_min":0,"x_max":0,"o":"m 344 -14 b 794 486 560 -14 746 192 b 511 986 843 781 726 986 b 61 486 296 986 110 781 b 344 -14 13 192 129 -14 z m 364 97 b 182 486 215 97 143 250 b 493 875 222 722 344 875 b 674 486 642 875 713 722 b 364 97 633 250 513 97 z m 760 1357 l 606 1357 l 456 1100 l 557 1100 z "},"Ŏ":{"ha":833,"x_min":0,"x_max":0,"o":"m 344 -14 b 794 486 560 -14 746 192 b 511 986 843 781 726 986 b 61 486 296 986 110 781 b 344 -14 13 192 129 -14 z m 364 97 b 182 486 215 97 143 250 b 493 875 222 722 344 875 b 674 486 642 875 713 722 b 364 97 633 250 513 97 z m 471 1282 l 375 1282 b 529 1092 357 1171 421 1092 b 747 1282 638 1092 729 1171 l 651 1282 b 544 1181 636 1221 593 1181 b 471 1282 496 1181 467 1221 z "},"Ô":{"ha":833,"x_min":0,"x_max":0,"o":"m 344 -14 b 794 486 560 -14 746 192 b 511 986 843 781 726 986 b 61 486 296 986 110 781 b 344 -14 13 192 129 -14 z m 364 97 b 182 486 215 97 143 250 b 493 875 222 722 344 875 b 674 486 642 875 713 722 b 364 97 633 250 513 97 z m 315 1090 l 415 1090 l 553 1235 l 643 1090 l 744 1090 l 631 1335 l 508 1335 z "},"Ö":{"ha":833,"x_min":0,"x_max":0,"o":"m 344 -14 b 794 486 560 -14 746 192 b 511 986 843 781 726 986 b 61 486 296 986 110 781 b 344 -14 13 192 129 -14 z m 364 97 b 182 486 215 97 143 250 b 493 875 222 722 344 875 b 674 486 642 875 713 722 b 364 97 633 250 513 97 z m 310 1215 b 390 1119 301 1163 338 1119 b 500 1215 443 1119 492 1163 b 421 1310 510 1268 475 1310 b 310 1215 368 1310 319 1268 z m 599 1215 b 679 1119 590 1163 626 1119 b 789 1215 732 1119 781 1163 b 710 1310 799 1268 764 1310 b 599 1215 657 1310 608 1268 z "},"Ò":{"ha":833,"x_min":0,"x_max":0,"o":"m 344 -14 b 794 486 560 -14 746 192 b 511 986 843 781 726 986 b 61 486 296 986 110 781 b 344 -14 13 192 129 -14 z m 364 97 b 182 486 215 97 143 250 b 493 875 222 722 344 875 b 674 486 642 875 713 722 b 364 97 633 250 513 97 z m 607 1100 l 543 1357 l 389 1357 l 506 1100 z "},"Ω":{"ha":833,"x_min":0,"x_max":0,"o":"m 493 878 b 679 521 632 878 714 724 b 408 118 650 349 546 193 l 389 0 l 696 0 l 714 108 l 529 108 l 531 114 b 803 533 668 194 774 356 b 511 986 844 786 717 986 b 69 532 306 986 111 786 b 201 114 40 356 92 194 l 200 108 l 17 108 l -1 0 l 306 0 l 325 118 b 190 522 213 193 161 349 b 493 878 224 724 354 878 z "},"Ő":{"ha":833,"x_min":0,"x_max":0,"o":"m 344 -14 b 794 486 560 -14 746 192 b 511 986 843 781 726 986 b 61 486 296 986 110 781 b 344 -14 13 192 129 -14 z m 364 97 b 182 486 215 97 143 250 b 493 875 222 722 344 875 b 674 486 642 875 713 722 b 364 97 633 250 513 97 z m 658 1357 l 504 1357 l 354 1100 l 456 1100 z m 892 1357 l 738 1357 l 588 1100 l 689 1100 z "},"Ō":{"ha":833,"x_min":0,"x_max":0,"o":"m 344 -14 b 794 486 560 -14 746 192 b 511 986 843 781 726 986 b 61 486 296 986 110 781 b 344 -14 13 192 129 -14 z m 364 97 b 182 486 215 97 143 250 b 493 875 222 722 344 875 b 674 486 642 875 713 722 b 364 97 633 250 513 97 z m 325 1153 l 753 1153 l 769 1250 l 342 1250 z "},"Ω":{"ha":833,"x_min":0,"x_max":0,"o":"m 493 878 b 679 521 632 878 714 724 b 408 118 650 349 546 193 l 389 0 l 696 0 l 714 108 l 529 108 l 531 114 b 803 533 668 194 774 356 b 511 986 844 786 717 986 b 69 532 306 986 111 786 b 201 114 40 356 92 194 l 200 108 l 17 108 l -1 0 l 306 0 l 325 118 b 190 522 213 193 161 349 b 493 878 224 724 354 878 z "},"Ώ":{"ha":833,"x_min":0,"x_max":0,"o":"m 493 878 b 679 521 632 878 714 724 b 408 118 650 349 546 193 l 389 0 l 696 0 l 714 108 l 529 108 l 531 114 b 803 533 668 194 774 356 b 511 986 844 786 717 986 b 69 532 306 986 111 786 b 201 114 40 356 92 194 l 200 108 l 17 108 l -1 0 l 306 0 l 325 118 b 190 522 213 193 161 349 b 493 878 224 724 354 878 z m 246 1075 l 107 1075 l 14 794 l 106 794 z "},"Ο":{"ha":833,"x_min":0,"x_max":0,"o":"m 344 -14 b 794 486 560 -14 746 192 b 511 986 843 781 726 986 b 61 486 296 986 110 781 b 344 -14 13 192 129 -14 z m 364 97 b 182 486 215 97 143 250 b 493 875 222 722 344 875 b 674 486 642 875 713 722 b 364 97 633 250 513 97 z "},"Ό":{"ha":833,"x_min":0,"x_max":0,"o":"m 344 -14 b 794 486 560 -14 746 192 b 511 986 843 781 726 986 b 61 486 296 986 110 781 b 344 -14 13 192 129 -14 z m 364 97 b 182 486 215 97 143 250 b 493 875 222 722 344 875 b 674 486 642 875 713 722 b 364 97 633 250 513 97 z m 246 1075 l 107 1075 l 14 794 l 106 794 z "},"Ø":{"ha":833,"x_min":0,"x_max":0,"o":"m -15 -50 l 56 -94 l 163 51 b 344 -14 210 10 271 -14 b 794 486 560 -14 746 192 b 749 853 819 638 801 765 l 872 1022 l 801 1067 l 694 919 b 511 986 646 963 585 986 b 61 486 296 986 110 781 b 108 118 36 335 54 207 z m 182 486 b 493 875 222 722 344 875 b 621 819 546 875 589 856 l 190 232 b 182 486 169 297 165 383 z m 364 97 b 235 153 311 97 268 117 l 665 740 b 674 486 688 675 690 588 b 364 97 633 250 513 97 z "},"Ǿ":{"ha":833,"x_min":0,"x_max":0,"o":"m -15 -50 l 56 -94 l 163 51 b 344 -14 210 10 271 -14 b 794 486 560 -14 746 192 b 749 853 819 638 801 765 l 872 1022 l 801 1067 l 694 919 b 511 986 646 963 585 986 b 61 486 296 986 110 781 b 108 118 36 335 54 207 z m 182 486 b 493 875 222 722 344 875 b 621 819 546 875 589 856 l 190 232 b 182 486 169 297 165 383 z m 364 97 b 235 153 311 97 268 117 l 665 740 b 674 486 688 675 690 588 b 364 97 633 250 513 97 z m 757 1357 l 603 1357 l 453 1100 l 554 1100 z "},"Õ":{"ha":833,"x_min":0,"x_max":0,"o":"m 344 -14 b 794 486 560 -14 746 192 b 511 986 843 781 726 986 b 61 486 296 986 110 781 b 344 -14 13 192 129 -14 z m 364 97 b 182 486 215 97 143 250 b 493 875 222 722 344 875 b 674 486 642 875 713 722 b 364 97 633 250 513 97 z m 294 1144 l 393 1144 l 400 1174 b 456 1251 410 1226 429 1251 b 635 1125 515 1251 507 1125 b 806 1288 724 1125 789 1188 l 813 1325 l 714 1325 l 708 1296 b 653 1218 697 1243 679 1218 b 474 1344 592 1218 600 1344 b 300 1182 385 1344 318 1282 z "},"P":{"ha":833,"x_min":0,"x_max":0,"o":"m 63 0 l 183 0 l 253 411 l 486 411 b 817 692 653 411 789 528 b 581 972 844 856 747 972 l 225 972 z m 271 519 l 328 864 l 568 864 b 700 692 664 864 718 796 b 511 519 683 589 607 519 z "},"Φ":{"ha":833,"x_min":0,"x_max":0,"o":"m 407 0 l 425 110 b 796 486 613 136 761 283 b 550 863 829 689 731 836 l 569 972 l 450 972 l 432 863 b 61 486 244 836 96 689 b 307 110 28 283 126 136 l 288 0 z m 181 486 b 414 750 204 626 293 725 l 325 222 b 181 486 213 247 157 346 z m 676 486 b 443 222 653 346 564 247 l 532 750 b 676 486 644 725 700 626 z "},"Π":{"ha":833,"x_min":0,"x_max":0,"o":"m 22 0 l 143 0 l 288 861 l 694 861 l 551 0 l 672 0 l 835 972 l 185 972 z "},"Ψ":{"ha":833,"x_min":0,"x_max":0,"o":"m 865 972 l 747 972 l 690 633 b 472 397 669 507 586 419 l 569 972 l 450 972 l 354 397 b 215 633 249 419 194 507 l 272 972 l 154 972 l 97 633 b 336 285 65 443 160 308 l 288 0 l 407 0 l 454 285 b 808 633 638 308 776 443 z "},"Q":{"ha":833,"x_min":0,"x_max":0,"o":"m 690 -89 l 765 -25 l 636 129 b 794 486 714 218 771 342 b 511 986 843 781 726 986 b 61 486 296 986 110 781 b 344 -14 13 192 129 -14 b 564 63 424 -14 499 14 z m 364 97 b 182 486 215 97 143 250 b 493 875 222 722 344 875 b 674 486 642 875 713 722 b 567 213 654 374 617 279 l 422 385 l 349 321 l 497 142 b 364 97 457 113 413 97 z "},"R":{"ha":833,"x_min":0,"x_max":0,"o":"m 271 539 l 324 864 l 561 864 b 689 701 653 864 704 799 b 507 539 672 604 599 539 z m 60 0 l 181 0 l 253 431 l 435 431 l 583 0 l 715 0 l 564 440 b 804 701 688 471 782 569 b 574 972 831 861 736 972 l 222 972 z "},"Ŕ":{"ha":833,"x_min":0,"x_max":0,"o":"m 271 539 l 324 864 l 561 864 b 689 701 653 864 704 799 b 507 539 672 604 599 539 z m 60 0 l 181 0 l 253 431 l 435 431 l 583 0 l 715 0 l 564 440 b 804 701 688 471 782 569 b 574 972 831 861 736 972 l 222 972 z m 776 1357 l 622 1357 l 472 1100 l 574 1100 z "},"Ř":{"ha":833,"x_min":0,"x_max":0,"o":"m 271 539 l 324 864 l 561 864 b 689 701 653 864 704 799 b 507 539 672 604 599 539 z m 60 0 l 181 0 l 253 431 l 435 431 l 583 0 l 715 0 l 564 440 b 804 701 688 471 782 569 b 574 972 831 861 736 972 l 222 972 z m 485 1090 l 608 1090 l 801 1335 l 700 1335 l 563 1192 l 472 1335 l 371 1335 z "},"Ŗ":{"ha":833,"x_min":0,"x_max":0,"o":"m 271 539 l 324 864 l 561 864 b 689 701 653 864 704 799 b 507 539 672 604 599 539 z m 60 0 l 181 0 l 253 431 l 435 431 l 583 0 l 715 0 l 564 440 b 804 701 688 471 782 569 b 574 972 831 861 736 972 l 222 972 z m 429 -101 l 275 -101 l 124 -358 l 225 -358 z "},"Ρ":{"ha":833,"x_min":0,"x_max":0,"o":"m 63 0 l 183 0 l 253 411 l 486 411 b 817 692 653 411 789 528 b 581 972 844 856 747 972 l 225 972 z m 271 519 l 328 864 l 568 864 b 700 692 664 864 718 796 b 511 519 683 589 607 519 z "},"S":{"ha":833,"x_min":0,"x_max":0,"o":"m 63 247 b 349 -19 42 93 163 -19 b 718 269 539 -19 689 99 b 476 547 743 417 661 508 l 422 558 b 285 717 317 581 271 633 b 496 879 301 814 386 879 b 671 739 600 879 674 821 l 785 739 b 511 986 800 881 683 986 b 167 708 333 986 193 874 b 388 444 143 568 217 479 l 442 433 b 599 264 560 407 614 353 b 364 89 582 160 485 89 b 175 247 247 89 171 154 z "},"Ś":{"ha":833,"x_min":0,"x_max":0,"o":"m 63 247 b 349 -19 42 93 163 -19 b 718 269 539 -19 689 99 b 476 547 743 417 661 508 l 422 558 b 285 717 317 581 271 633 b 496 879 301 814 386 879 b 671 739 600 879 674 821 l 785 739 b 511 986 800 881 683 986 b 167 708 333 986 193 874 b 388 444 143 568 217 479 l 442 433 b 599 264 560 407 614 353 b 364 89 582 160 485 89 b 175 247 247 89 171 154 z m 760 1357 l 606 1357 l 456 1100 l 557 1100 z "},"Š":{"ha":833,"x_min":0,"x_max":0,"o":"m 63 247 b 349 -19 42 93 163 -19 b 718 269 539 -19 689 99 b 476 547 743 417 661 508 l 422 558 b 285 717 317 581 271 633 b 496 879 301 814 386 879 b 671 739 600 879 674 821 l 785 739 b 511 986 800 881 683 986 b 167 708 333 986 193 874 b 388 444 143 568 217 479 l 442 433 b 599 264 560 407 614 353 b 364 89 582 160 485 89 b 175 247 247 89 171 154 z m 468 1090 l 592 1090 l 785 1335 l 683 1335 l 546 1192 l 456 1335 l 354 1335 z "},"Ş":{"ha":833,"x_min":0,"x_max":0,"o":"m 265 -221 l 172 -221 b 317 -362 163 -303 222 -362 b 514 -210 415 -362 499 -297 b 368 -74 528 -121 465 -61 l 388 -18 b 718 269 558 -3 690 110 b 476 547 743 417 661 508 l 422 558 b 285 717 317 581 271 633 b 496 879 301 814 386 879 b 671 739 600 879 674 821 l 785 739 b 511 986 800 881 683 986 b 167 708 333 986 193 874 b 388 444 143 568 217 479 l 442 433 b 599 264 560 407 614 353 b 364 89 582 160 485 89 b 175 247 247 89 171 154 l 63 247 b 288 -15 44 111 138 7 l 244 -140 l 301 -161 b 354 -144 315 -151 333 -144 b 418 -214 397 -144 425 -172 b 333 -282 411 -254 376 -282 b 265 -221 292 -282 265 -257 z "},"Ŝ":{"ha":833,"x_min":0,"x_max":0,"o":"m 63 247 b 349 -19 42 93 163 -19 b 718 269 539 -19 689 99 b 476 547 743 417 661 508 l 422 558 b 285 717 317 581 271 633 b 496 879 301 814 386 879 b 671 739 600 879 674 821 l 785 739 b 511 986 800 881 683 986 b 167 708 333 986 193 874 b 388 444 143 568 217 479 l 442 433 b 599 264 560 407 614 353 b 364 89 582 160 485 89 b 175 247 247 89 171 154 z m 315 1090 l 415 1090 l 553 1235 l 643 1090 l 744 1090 l 631 1335 l 508 1335 z "},"Ș":{"ha":833,"x_min":0,"x_max":0,"o":"m 63 247 b 349 -19 42 93 163 -19 b 718 269 539 -19 689 99 b 476 547 743 417 661 508 l 422 558 b 285 717 317 581 271 633 b 496 879 301 814 386 879 b 671 739 600 879 674 821 l 785 739 b 511 986 800 881 683 986 b 167 708 333 986 193 874 b 388 444 143 568 217 479 l 442 433 b 599 264 560 407 614 353 b 364 89 582 160 485 89 b 175 247 247 89 171 154 z m 401 -101 l 247 -101 l 96 -358 l 197 -358 z "},"Σ":{"ha":833,"x_min":0,"x_max":0,"o":"m 8 0 l 686 0 l 704 107 l 186 107 l 601 496 l 324 861 l 800 861 l 818 968 l 178 968 l 161 869 l 447 494 l 25 99 z "},"T":{"ha":833,"x_min":0,"x_max":0,"o":"m 288 0 l 408 0 l 551 864 l 843 864 l 863 972 l 157 972 l 138 864 l 431 864 z "},"Τ":{"ha":833,"x_min":0,"x_max":0,"o":"m 288 0 l 408 0 l 551 864 l 843 864 l 863 972 l 157 972 l 138 864 l 431 864 z "},"Ŧ":{"ha":833,"x_min":0,"x_max":0,"o":"m 288 0 l 408 0 l 478 417 l 631 417 l 647 514 l 493 514 l 551 864 l 843 864 l 863 972 l 157 972 l 138 864 l 431 864 l 372 514 l 219 514 l 203 417 l 357 417 z "},"Ť":{"ha":833,"x_min":0,"x_max":0,"o":"m 288 0 l 408 0 l 551 864 l 843 864 l 863 972 l 157 972 l 138 864 l 431 864 z m 468 1090 l 592 1090 l 785 1335 l 683 1335 l 546 1192 l 456 1335 l 354 1335 z "},"Ţ":{"ha":833,"x_min":0,"x_max":0,"o":"m 288 0 l 296 0 l 247 -140 l 304 -161 b 357 -144 318 -151 336 -144 b 421 -214 400 -144 428 -172 b 336 -282 414 -254 379 -282 b 268 -221 294 -282 268 -257 l 175 -221 b 319 -362 165 -303 225 -362 b 517 -210 418 -362 501 -297 b 371 -74 531 -121 468 -61 l 396 0 l 408 0 l 551 864 l 843 864 l 863 972 l 157 972 l 138 864 l 431 864 z "},"Ț":{"ha":833,"x_min":0,"x_max":0,"o":"m 288 0 l 408 0 l 551 864 l 843 864 l 863 972 l 157 972 l 138 864 l 431 864 z m 404 -101 l 250 -101 l 99 -358 l 200 -358 z "},"Θ":{"ha":833,"x_min":0,"x_max":0,"o":"m 344 -14 b 794 486 560 -14 746 192 b 511 986 843 781 726 986 b 61 486 296 986 110 781 b 344 -14 13 192 129 -14 z m 364 97 b 182 486 215 97 143 250 b 493 875 222 722 344 875 b 674 486 642 875 713 722 b 364 97 633 250 513 97 z m 264 433 l 582 433 l 592 539 l 274 539 z "},"Þ":{"ha":833,"x_min":0,"x_max":0,"o":"m 61 0 l 182 0 l 218 213 l 444 213 b 768 493 607 213 740 329 b 538 774 796 657 700 774 l 311 774 l 344 972 l 224 972 z m 236 321 l 293 665 l 521 665 b 646 493 614 665 664 596 b 463 321 629 390 556 321 z "},"U":{"ha":833,"x_min":0,"x_max":0,"o":"m 835 972 l 714 972 l 603 306 b 364 97 582 181 485 97 b 194 306 242 97 175 181 l 306 972 l 185 972 l 74 306 b 344 -14 42 118 154 -14 b 724 306 535 -14 692 118 z "},"Ú":{"ha":833,"x_min":0,"x_max":0,"o":"m 835 972 l 714 972 l 603 306 b 364 97 582 181 485 97 b 194 306 242 97 175 181 l 306 972 l 185 972 l 74 306 b 344 -14 42 118 154 -14 b 724 306 535 -14 692 118 z m 760 1357 l 606 1357 l 456 1100 l 557 1100 z "},"Ŭ":{"ha":833,"x_min":0,"x_max":0,"o":"m 835 972 l 714 972 l 603 306 b 364 97 582 181 485 97 b 194 306 242 97 175 181 l 306 972 l 185 972 l 74 306 b 344 -14 42 118 154 -14 b 724 306 535 -14 692 118 z m 471 1282 l 375 1282 b 529 1092 357 1171 421 1092 b 747 1282 638 1092 729 1171 l 651 1282 b 544 1181 636 1221 593 1181 b 471 1282 496 1181 467 1221 z "},"Û":{"ha":833,"x_min":0,"x_max":0,"o":"m 835 972 l 714 972 l 603 306 b 364 97 582 181 485 97 b 194 306 242 97 175 181 l 306 972 l 185 972 l 74 306 b 344 -14 42 118 154 -14 b 724 306 535 -14 692 118 z m 315 1090 l 415 1090 l 553 1235 l 643 1090 l 744 1090 l 631 1335 l 508 1335 z "},"Ü":{"ha":833,"x_min":0,"x_max":0,"o":"m 835 972 l 714 972 l 603 306 b 364 97 582 181 485 97 b 194 306 242 97 175 181 l 306 972 l 185 972 l 74 306 b 344 -14 42 118 154 -14 b 724 306 535 -14 692 118 z m 310 1215 b 390 1119 301 1163 338 1119 b 500 1215 443 1119 492 1163 b 421 1310 510 1268 475 1310 b 310 1215 368 1310 319 1268 z m 599 1215 b 679 1119 590 1163 626 1119 b 789 1215 732 1119 781 1163 b 710 1310 799 1268 764 1310 b 599 1215 657 1310 608 1268 z "},"Ù":{"ha":833,"x_min":0,"x_max":0,"o":"m 835 972 l 714 972 l 603 306 b 364 97 582 181 485 97 b 194 306 242 97 175 181 l 306 972 l 185 972 l 74 306 b 344 -14 42 118 154 -14 b 724 306 535 -14 692 118 z m 607 1100 l 543 1357 l 389 1357 l 506 1100 z "},"Ű":{"ha":833,"x_min":0,"x_max":0,"o":"m 835 972 l 714 972 l 603 306 b 364 97 582 181 485 97 b 194 306 242 97 175 181 l 306 972 l 185 972 l 74 306 b 344 -14 42 118 154 -14 b 724 306 535 -14 692 118 z m 658 1357 l 504 1357 l 354 1100 l 456 1100 z m 892 1357 l 738 1357 l 588 1100 l 689 1100 z "},"Ū":{"ha":833,"x_min":0,"x_max":0,"o":"m 835 972 l 714 972 l 603 306 b 364 97 582 181 485 97 b 194 306 242 97 175 181 l 306 972 l 185 972 l 74 306 b 344 -14 42 118 154 -14 b 724 306 535 -14 692 118 z m 325 1153 l 753 1153 l 769 1250 l 342 1250 z "},"Ų":{"ha":833,"x_min":0,"x_max":0,"o":"m 835 972 l 714 972 l 603 306 b 364 97 582 181 485 97 b 194 306 242 97 175 181 l 306 972 l 185 972 l 74 306 b 342 -14 42 119 153 -12 b 308 -90 324 -37 313 -62 b 450 -235 294 -175 351 -235 b 508 -228 472 -235 492 -232 l 522 -143 b 485 -147 510 -146 496 -147 b 413 -71 436 -147 406 -117 b 468 6 418 -43 436 -17 b 724 306 600 49 699 161 z "},"Υ":{"ha":833,"x_min":0,"x_max":0,"o":"m 288 0 l 407 0 l 475 408 l 897 972 l 767 972 l 438 529 l 257 972 l 122 972 l 356 408 z "},"Ϋ":{"ha":833,"x_min":0,"x_max":0,"o":"m 288 0 l 407 0 l 475 408 l 897 972 l 767 972 l 438 529 l 257 972 l 122 972 l 356 408 z m 379 1215 b 460 1119 371 1163 407 1119 b 569 1215 513 1119 561 1163 b 490 1310 579 1268 544 1310 b 379 1215 438 1310 389 1268 z m 668 1215 b 749 1119 660 1163 696 1119 b 858 1215 801 1119 850 1163 b 781 1310 868 1268 833 1310 b 668 1215 728 1310 678 1268 z "},"Ύ":{"ha":833,"x_min":0,"x_max":0,"o":"m 288 0 l 407 0 l 475 408 l 897 972 l 767 972 l 438 529 l 257 972 l 122 972 l 356 408 z m 149 1075 l 10 1075 l -83 794 l 8 794 z "},"Ů":{"ha":833,"x_min":0,"x_max":0,"o":"m 835 972 l 714 972 l 603 306 b 364 97 582 181 485 97 b 194 306 242 97 175 181 l 306 972 l 185 972 l 74 306 b 344 -14 42 118 154 -14 b 724 306 535 -14 692 118 z m 393 1235 b 526 1074 378 1144 436 1074 b 715 1233 617 1074 700 1144 b 579 1393 731 1324 671 1393 b 393 1235 488 1393 407 1324 z m 540 1153 b 475 1233 494 1153 468 1186 b 568 1314 483 1281 522 1314 b 632 1233 613 1314 639 1281 b 540 1153 624 1186 585 1153 z "},"Ũ":{"ha":833,"x_min":0,"x_max":0,"o":"m 835 972 l 714 972 l 603 306 b 364 97 582 181 485 97 b 194 306 242 97 175 181 l 306 972 l 185 972 l 74 306 b 344 -14 42 118 154 -14 b 724 306 535 -14 692 118 z m 294 1144 l 393 1144 l 400 1174 b 456 1251 410 1226 429 1251 b 635 1125 515 1251 507 1125 b 806 1288 724 1125 789 1188 l 813 1325 l 714 1325 l 708 1296 b 653 1218 697 1243 679 1218 b 474 1344 592 1218 600 1344 b 300 1182 385 1344 318 1282 z "},"V":{"ha":833,"x_min":0,"x_max":0,"o":"m 267 0 l 428 0 l 890 972 l 769 972 l 374 135 l 368 135 l 253 972 l 129 972 z "},"W":{"ha":833,"x_min":0,"x_max":0,"o":"m 28 0 l 176 0 l 451 642 l 457 642 l 518 0 l 667 0 l 932 972 l 822 972 l 606 158 l 600 158 l 536 825 l 433 825 l 147 158 l 142 158 l 199 972 l 88 972 z "},"Ẃ":{"ha":833,"x_min":0,"x_max":0,"o":"m 28 0 l 176 0 l 451 642 l 457 642 l 518 0 l 667 0 l 932 972 l 822 972 l 606 158 l 600 158 l 536 825 l 433 825 l 147 158 l 142 158 l 199 972 l 88 972 z m 760 1357 l 606 1357 l 456 1100 l 557 1100 z "},"Ŵ":{"ha":833,"x_min":0,"x_max":0,"o":"m 28 0 l 176 0 l 451 642 l 457 642 l 518 0 l 667 0 l 932 972 l 822 972 l 606 158 l 600 158 l 536 825 l 433 825 l 147 158 l 142 158 l 199 972 l 88 972 z m 315 1090 l 415 1090 l 553 1235 l 643 1090 l 744 1090 l 631 1335 l 508 1335 z "},"Ẅ":{"ha":833,"x_min":0,"x_max":0,"o":"m 28 0 l 176 0 l 451 642 l 457 642 l 518 0 l 667 0 l 932 972 l 822 972 l 606 158 l 600 158 l 536 825 l 433 825 l 147 158 l 142 158 l 199 972 l 88 972 z m 310 1215 b 390 1119 301 1163 338 1119 b 500 1215 443 1119 492 1163 b 421 1310 510 1268 475 1310 b 310 1215 368 1310 319 1268 z m 599 1215 b 679 1119 590 1163 626 1119 b 789 1215 732 1119 781 1163 b 710 1310 799 1268 764 1310 b 599 1215 657 1310 608 1268 z "},"Ẁ":{"ha":833,"x_min":0,"x_max":0,"o":"m 28 0 l 176 0 l 451 642 l 457 642 l 518 0 l 667 0 l 932 972 l 822 972 l 606 158 l 600 158 l 536 825 l 433 825 l 147 158 l 142 158 l 199 972 l 88 972 z m 607 1100 l 543 1357 l 389 1357 l 506 1100 z "},"X":{"ha":833,"x_min":0,"x_max":0,"o":"m -54 0 l 81 0 l 414 407 l 611 0 l 749 0 l 506 507 l 886 972 l 751 972 l 449 604 l 268 972 l 131 972 l 357 506 z "},"Ξ":{"ha":833,"x_min":0,"x_max":0,"o":"m 31 0 l 665 0 l 682 108 l 50 108 z m 167 450 l 679 450 l 697 558 l 185 558 z m 176 864 l 808 864 l 828 972 l 193 972 z "},"Y":{"ha":833,"x_min":0,"x_max":0,"o":"m 288 0 l 407 0 l 475 408 l 897 972 l 767 972 l 438 529 l 257 972 l 122 972 l 356 408 z "},"Ý":{"ha":833,"x_min":0,"x_max":0,"o":"m 288 0 l 407 0 l 475 408 l 897 972 l 767 972 l 438 529 l 257 972 l 122 972 l 356 408 z m 760 1357 l 606 1357 l 456 1100 l 557 1100 z "},"Ŷ":{"ha":833,"x_min":0,"x_max":0,"o":"m 288 0 l 407 0 l 475 408 l 897 972 l 767 972 l 438 529 l 257 972 l 122 972 l 356 408 z m 315 1090 l 415 1090 l 553 1235 l 643 1090 l 744 1090 l 631 1335 l 508 1335 z "},"Ÿ":{"ha":833,"x_min":0,"x_max":0,"o":"m 288 0 l 407 0 l 475 408 l 897 972 l 767 972 l 438 529 l 257 972 l 122 972 l 356 408 z m 310 1215 b 390 1119 301 1163 338 1119 b 500 1215 443 1119 492 1163 b 421 1310 510 1268 475 1310 b 310 1215 368 1310 319 1268 z m 599 1215 b 679 1119 590 1163 626 1119 b 789 1215 732 1119 781 1163 b 710 1310 799 1268 764 1310 b 599 1215 657 1310 608 1268 z "},"Ỳ":{"ha":833,"x_min":0,"x_max":0,"o":"m 288 0 l 407 0 l 475 408 l 897 972 l 767 972 l 438 529 l 257 972 l 122 972 l 356 408 z m 607 1100 l 543 1357 l 389 1357 l 506 1100 z "},"Z":{"ha":833,"x_min":0,"x_max":0,"o":"m 8 0 l 686 0 l 704 108 l 172 108 l 808 872 l 825 972 l 185 972 l 165 864 l 660 864 l 25 100 z "},"Ź":{"ha":833,"x_min":0,"x_max":0,"o":"m 8 0 l 686 0 l 704 108 l 172 108 l 808 872 l 825 972 l 185 972 l 165 864 l 660 864 l 25 100 z m 760 1357 l 606 1357 l 456 1100 l 557 1100 z "},"Ž":{"ha":833,"x_min":0,"x_max":0,"o":"m 8 0 l 686 0 l 704 108 l 172 108 l 808 872 l 825 972 l 185 972 l 165 864 l 660 864 l 25 100 z m 468 1090 l 592 1090 l 785 1335 l 683 1335 l 546 1192 l 456 1335 l 354 1335 z "},"Ż":{"ha":833,"x_min":0,"x_max":0,"o":"m 8 0 l 686 0 l 704 108 l 172 108 l 808 872 l 825 972 l 185 972 l 165 864 l 660 864 l 25 100 z m 447 1214 b 533 1111 438 1157 476 1111 b 651 1214 590 1111 643 1157 b 567 1315 663 1271 625 1315 b 447 1214 511 1315 457 1271 z "},"Ζ":{"ha":833,"x_min":0,"x_max":0,"o":"m 8 0 l 686 0 l 704 108 l 172 108 l 808 872 l 825 972 l 185 972 l 165 864 l 660 864 l 25 100 z "},"a":{"ha":833,"x_min":0,"x_max":0,"o":"m 593 535 b 503 453 583 483 556 458 l 432 446 b 78 214 217 425 101 351 b 279 -14 56 79 139 -14 b 526 119 381 -14 469 35 l 533 119 b 536 0 529 71 531 31 l 647 0 b 664 268 639 65 643 151 l 710 533 b 476 764 732 672 638 764 b 165 558 321 764 190 678 l 281 558 b 463 665 300 622 375 665 b 593 535 558 665 607 615 z m 571 396 l 551 292 b 314 82 531 172 425 82 b 196 217 228 82 182 135 b 432 365 211 303 283 347 l 500 372 b 571 396 528 376 551 383 z "},"á":{"ha":833,"x_min":0,"x_max":0,"o":"m 593 535 b 503 453 583 483 556 458 l 432 446 b 78 214 217 425 101 351 b 279 -14 56 79 139 -14 b 526 119 381 -14 469 35 l 533 119 b 536 0 529 71 531 31 l 647 0 b 664 268 639 65 643 151 l 710 533 b 476 764 732 672 638 764 b 165 558 321 764 190 678 l 281 558 b 463 665 300 622 375 665 b 593 535 558 665 607 615 z m 571 396 l 551 292 b 314 82 531 172 425 82 b 196 217 228 82 182 135 b 432 365 211 303 283 347 l 500 372 b 571 396 528 376 551 383 z m 719 1135 l 565 1135 l 415 878 l 517 878 z "},"ă":{"ha":833,"x_min":0,"x_max":0,"o":"m 593 535 b 503 453 583 483 556 458 l 432 446 b 78 214 217 425 101 351 b 279 -14 56 79 139 -14 b 526 119 381 -14 469 35 l 533 119 b 536 0 529 71 531 31 l 647 0 b 664 268 639 65 643 151 l 710 533 b 476 764 732 672 638 764 b 165 558 321 764 190 678 l 281 558 b 463 665 300 622 375 665 b 593 535 558 665 607 615 z m 571 396 l 551 292 b 314 82 531 172 425 82 b 196 217 228 82 182 135 b 432 365 211 303 283 347 l 500 372 b 571 396 528 376 551 383 z m 431 1060 l 335 1060 b 489 869 317 949 381 869 b 707 1060 597 869 689 949 l 611 1060 b 504 958 596 999 553 958 b 431 1060 456 958 426 999 z "},"â":{"ha":833,"x_min":0,"x_max":0,"o":"m 593 535 b 503 453 583 483 556 458 l 432 446 b 78 214 217 425 101 351 b 279 -14 56 79 139 -14 b 526 119 381 -14 469 35 l 533 119 b 536 0 529 71 531 31 l 647 0 b 664 268 639 65 643 151 l 710 533 b 476 764 732 672 638 764 b 165 558 321 764 190 678 l 281 558 b 463 665 300 622 375 665 b 593 535 558 665 607 615 z m 571 396 l 551 292 b 314 82 531 172 425 82 b 196 217 228 82 182 135 b 432 365 211 303 283 347 l 500 372 b 571 396 528 376 551 383 z m 275 868 l 375 868 l 513 1013 l 603 868 l 704 868 l 590 1113 l 468 1113 z "},"␆":{"ha":833,"x_min":0,"x_max":0,"o":"m 169 868 l 228 999 l 382 999 l 396 868 l 475 868 l 419 1354 l 310 1354 l 92 868 z m 258 1069 l 349 1272 l 351 1272 l 375 1069 z m 506 374 b 418 310 492 335 457 310 b 338 486 351 310 319 379 b 475 663 356 594 410 663 b 540 606 513 663 538 640 l 621 606 b 488 736 622 682 568 736 b 257 486 376 736 282 635 b 404 236 232 339 293 236 b 586 374 488 236 564 293 z m 489 104 l 408 104 l 326 -382 l 408 -382 l 432 -233 l 507 -161 l 608 -382 l 700 -382 l 569 -97 l 772 104 l 676 104 l 451 -118 z "},"´":{"ha":833,"x_min":0,"x_max":0,"o":"m 731 1083 l 557 1083 l 268 744 l 393 744 z "},"́":{"ha":833,"x_min":0,"x_max":0,"o":"m 668 1135 l 514 1135 l 364 878 l 465 878 z "},"ä":{"ha":833,"x_min":0,"x_max":0,"o":"m 593 535 b 503 453 583 483 556 458 l 432 446 b 78 214 217 425 101 351 b 279 -14 56 79 139 -14 b 526 119 381 -14 469 35 l 533 119 b 536 0 529 71 531 31 l 647 0 b 664 268 639 65 643 151 l 710 533 b 476 764 732 672 638 764 b 165 558 321 764 190 678 l 281 558 b 463 665 300 622 375 665 b 593 535 558 665 607 615 z m 571 396 l 551 292 b 314 82 531 172 425 82 b 196 217 228 82 182 135 b 432 365 211 303 283 347 l 500 372 b 571 396 528 376 551 383 z m 269 993 b 350 897 261 940 297 897 b 460 993 403 897 451 940 b 381 1088 469 1046 435 1088 b 269 993 328 1088 279 1046 z m 558 993 b 639 897 550 940 586 897 b 749 993 692 897 740 940 b 669 1088 758 1046 724 1088 b 558 993 617 1088 568 1046 z "},"æ":{"ha":833,"x_min":0,"x_max":0,"o":"m 139 -14 b 361 151 229 -14 310 47 l 368 151 b 526 -14 386 46 440 -14 b 768 192 632 -14 733 72 l 669 192 b 542 82 650 128 594 82 b 451 350 464 82 429 185 l 800 350 l 807 394 b 649 764 843 613 781 764 b 447 607 569 764 499 707 l 442 607 b 288 764 428 706 374 764 b 57 558 182 764 85 676 l 158 558 b 276 667 175 622 228 667 b 361 476 343 667 379 586 l 354 440 l 290 440 b -14 203 129 440 11 347 b 139 -14 -35 75 28 -14 z m 468 440 b 631 668 500 582 561 668 b 711 440 699 668 731 582 z m 339 350 l 333 314 b 161 82 311 182 238 82 b 92 204 107 82 79 132 b 274 350 107 296 175 350 z "},"ǽ":{"ha":833,"x_min":0,"x_max":0,"o":"m 139 -14 b 361 151 229 -14 310 47 l 368 151 b 526 -14 386 46 440 -14 b 768 192 632 -14 733 72 l 669 192 b 542 82 650 128 594 82 b 451 350 464 82 429 185 l 800 350 l 807 394 b 649 764 843 613 781 764 b 447 607 569 764 499 707 l 442 607 b 288 764 428 706 374 764 b 57 558 182 764 85 676 l 158 558 b 276 667 175 622 228 667 b 361 476 343 667 379 586 l 354 440 l 290 440 b -14 203 129 440 11 347 b 139 -14 -35 75 28 -14 z m 468 440 b 631 668 500 582 561 668 b 711 440 699 668 731 582 z m 339 350 l 333 314 b 161 82 311 182 238 82 b 92 204 107 82 79 132 b 274 350 107 296 175 350 z m 721 1133 l 567 1133 l 417 876 l 518 876 z "},"à":{"ha":833,"x_min":0,"x_max":0,"o":"m 593 535 b 503 453 583 483 556 458 l 432 446 b 78 214 217 425 101 351 b 279 -14 56 79 139 -14 b 526 119 381 -14 469 35 l 533 119 b 536 0 529 71 531 31 l 647 0 b 664 268 639 65 643 151 l 710 533 b 476 764 732 672 638 764 b 165 558 321 764 190 678 l 281 558 b 463 665 300 622 375 665 b 593 535 558 665 607 615 z m 571 396 l 551 292 b 314 82 531 172 425 82 b 196 217 228 82 182 135 b 432 365 211 303 283 347 l 500 372 b 571 396 528 376 551 383 z m 567 878 l 503 1135 l 349 1135 l 465 878 z "},"α":{"ha":833,"x_min":0,"x_max":0,"o":"m 424 764 b 60 375 251 764 97 600 b 294 -14 22 151 121 -14 b 571 185 404 -14 500 54 l 581 0 l 697 0 l 681 375 l 822 750 l 706 750 l 635 565 b 424 764 608 696 535 764 z m 549 306 b 326 92 496 168 417 92 b 178 375 213 92 150 211 b 421 658 206 539 307 658 b 572 444 511 658 565 582 l 575 375 z "},"ά":{"ha":833,"x_min":0,"x_max":0,"o":"m 424 764 b 60 375 251 764 97 600 b 294 -14 22 151 121 -14 b 571 185 404 -14 500 54 l 581 0 l 697 0 l 681 375 l 822 750 l 706 750 l 635 565 b 424 764 608 696 535 764 z m 549 306 b 326 92 496 168 417 92 b 178 375 213 92 150 211 b 421 658 206 539 307 658 b 572 444 511 658 565 582 l 575 375 z m 799 1149 l 660 1149 l 567 868 l 658 868 z "},"⎇":{"ha":833,"x_min":0,"x_max":0,"o":"m 667 872 l 901 872 l 918 975 l 615 975 l 117 103 l -44 103 l -61 1 l 168 1 z m 756 1 l 772 103 l 424 103 l 407 1 z "},"ā":{"ha":833,"x_min":0,"x_max":0,"o":"m 593 535 b 503 453 583 483 556 458 l 432 446 b 78 214 217 425 101 351 b 279 -14 56 79 139 -14 b 526 119 381 -14 469 35 l 533 119 b 536 0 529 71 531 31 l 647 0 b 664 268 639 65 643 151 l 710 533 b 476 764 732 672 638 764 b 165 558 321 764 190 678 l 281 558 b 463 665 300 622 375 665 b 593 535 558 665 607 615 z m 571 396 l 551 292 b 314 82 531 172 425 82 b 196 217 228 82 182 135 b 432 365 211 303 283 347 l 500 372 b 571 396 528 376 551 383 z m 285 931 l 713 931 l 729 1028 l 301 1028 z "},"&":{"ha":833,"x_min":0,"x_max":0,"o":"m 597 0 l 746 0 l 596 211 b 760 489 657 289 713 382 l 643 489 b 535 297 611 417 574 353 l 386 504 l 418 524 b 611 771 528 593 596 679 b 417 986 632 894 550 986 b 149 769 282 986 169 894 b 214 538 136 693 160 615 l 228 518 b -1 224 96 432 17 331 b 208 -19 -25 83 64 -19 b 511 121 310 -19 415 31 z m 235 86 b 118 231 151 86 103 146 b 285 438 131 306 188 376 l 454 201 b 235 86 382 128 306 86 z m 265 764 b 401 882 276 832 333 882 b 497 768 469 882 508 833 b 371 610 488 711 443 657 l 329 583 l 314 606 b 265 764 275 661 257 714 z "},"ą":{"ha":833,"x_min":0,"x_max":0,"o":"m 597 -278 l 611 -193 b 574 -197 599 -196 585 -197 b 501 -121 525 -197 494 -167 b 647 0 510 -72 558 -32 b 664 268 639 65 643 151 l 710 533 b 476 764 732 672 638 764 b 165 558 321 764 190 678 l 281 558 b 463 665 300 622 375 665 b 593 535 558 665 607 615 b 503 453 583 483 556 458 l 432 446 b 78 214 217 425 101 351 b 279 -14 56 79 139 -14 b 526 119 381 -14 469 35 l 533 119 b 533 18 531 79 531 46 b 397 -140 453 -24 407 -78 b 539 -285 383 -225 440 -285 b 597 -278 561 -285 581 -282 z m 571 396 l 551 292 b 314 82 531 172 425 82 b 196 217 228 82 182 135 b 432 365 211 303 283 347 l 500 372 b 571 396 528 376 551 383 z "},"":{"ha":833,"x_min":0,"x_max":0,"o":"m 0 0 l 833 0 l 833 972 l 0 972 z m 500 243 l 439 243 l 439 729 l 532 729 l 618 425 l 621 425 l 708 729 l 800 729 l 800 243 l 740 243 l 740 654 l 738 654 l 649 347 l 590 347 l 503 654 l 500 654 z m 386 368 b 229 236 375 292 310 236 b 43 486 119 236 43 339 b 229 736 43 635 119 736 b 381 611 307 736 369 685 l 318 611 b 229 678 310 651 274 678 b 108 486 156 678 108 601 b 231 296 108 371 157 296 b 324 368 278 296 314 325 z "},"≈":{"ha":833,"x_min":0,"x_max":0,"o":"m 88 471 l 193 471 l 201 513 b 301 633 217 592 251 633 b 565 443 408 633 390 443 b 794 660 682 443 774 529 l 803 707 l 697 707 l 689 665 b 589 544 674 585 639 544 b 325 735 481 544 499 735 b 94 518 208 735 117 649 z m 35 154 l 140 154 l 149 196 b 249 317 164 275 199 317 b 513 126 356 317 338 126 b 743 343 629 126 721 213 l 750 390 l 644 390 l 636 349 b 536 228 619 268 586 228 b 271 418 426 228 446 418 b 42 201 154 418 64 332 z "},"å":{"ha":833,"x_min":0,"x_max":0,"o":"m 593 535 b 503 453 583 483 556 458 l 432 446 b 78 214 217 425 101 351 b 279 -14 56 79 139 -14 b 526 119 381 -14 469 35 l 533 119 b 536 0 529 71 531 31 l 647 0 b 664 268 639 65 643 151 l 710 533 b 476 764 732 672 638 764 b 165 558 321 764 190 678 l 281 558 b 463 665 300 622 375 665 b 593 535 558 665 607 615 z m 571 396 l 551 292 b 314 82 531 172 425 82 b 196 217 228 82 182 135 b 432 365 211 303 283 347 l 500 372 b 571 396 528 376 551 383 z m 353 1013 b 486 851 338 922 396 851 b 675 1011 576 851 660 922 b 539 1171 690 1101 631 1171 b 353 1013 447 1171 367 1101 z m 500 931 b 435 1011 454 931 428 964 b 528 1092 443 1058 482 1092 b 592 1011 572 1092 599 1058 b 500 931 583 964 544 931 z "},"ǻ":{"ha":833,"x_min":0,"x_max":0,"o":"m 593 535 b 503 453 583 483 556 458 l 432 446 b 78 214 217 425 101 351 b 279 -14 56 79 139 -14 b 526 119 381 -14 469 35 l 533 119 b 536 0 529 71 531 31 l 647 0 b 664 268 639 65 643 151 l 710 533 b 476 764 732 672 638 764 b 165 558 321 764 190 678 l 281 558 b 463 665 300 622 375 665 b 593 535 558 665 607 615 z m 750 1357 l 596 1357 l 481 1160 b 354 1013 417 1138 367 1081 b 489 851 340 922 399 851 b 678 1013 579 851 663 922 b 596 1161 689 1083 656 1140 z m 571 396 l 551 292 b 314 82 531 172 425 82 b 196 217 228 82 182 135 b 432 365 211 303 283 347 l 500 372 b 571 396 528 376 551 383 z m 501 931 b 438 1011 457 931 431 964 b 529 1092 446 1058 485 1092 b 594 1011 575 1092 601 1058 b 501 931 586 964 547 931 z "},"↔":{"ha":833,"x_min":0,"x_max":0,"o":"m 200 433 l 639 433 l 640 428 l 474 285 l 536 210 l 858 486 l 629 763 l 542 688 l 661 544 l 657 539 l 217 539 l 215 544 l 382 688 l 319 763 l -3 486 l 228 210 l 315 285 l 196 428 z "},"⇒":{"ha":833,"x_min":0,"x_max":0,"o":"m 274 65 l 336 -10 l 849 431 l 482 871 l 396 796 l 546 615 l 28 615 l 10 513 l 631 513 l 699 431 l 603 349 l -17 349 l -35 246 l 483 246 z "},"↓":{"ha":833,"x_min":0,"x_max":0,"o":"m 436 200 l 565 972 l 454 972 l 325 200 l 318 197 l 169 376 l 82 301 l 344 -14 l 713 301 l 650 376 l 440 197 z "},"⌤":{"ha":833,"x_min":0,"x_max":0,"o":"m 133 329 l 258 329 l 438 543 l 547 329 l 672 329 l 513 643 l 396 643 z m 46 643 l 29 540 l 251 540 l 268 643 z m 638 643 l 621 540 l 843 540 l 860 643 z "},"←":{"ha":833,"x_min":0,"x_max":0,"o":"m 200 433 l 843 433 l 861 539 l 217 539 l 215 544 l 428 726 l 365 801 l -3 486 l 260 171 l 347 246 l 196 428 z "},"→":{"ha":833,"x_min":0,"x_max":0,"o":"m 642 428 l 429 246 l 492 171 l 858 486 l 596 801 l 510 726 l 661 544 l 657 539 l 14 539 l -4 433 l 639 433 z "},"➜":{"ha":833,"x_min":0,"x_max":0,"o":"m 642 428 l 429 246 l 492 171 l 858 486 l 596 801 l 510 726 l 661 544 l 657 539 l 14 539 l -4 433 l 639 433 z "},"↑":{"ha":833,"x_min":0,"x_max":0,"o":"m 421 772 l 292 0 l 403 0 l 532 772 l 538 775 l 688 596 l 774 671 l 511 986 l 144 671 l 207 596 l 415 775 z "},"↕":{"ha":833,"x_min":0,"x_max":0,"o":"m 422 775 l 326 197 l 321 194 l 179 365 l 92 290 l 344 -14 l 699 290 l 638 365 l 439 194 l 435 197 l 531 775 l 536 778 l 678 607 l 764 682 l 511 986 l 157 682 l 219 607 l 417 778 z "},"↨":{"ha":833,"x_min":0,"x_max":0,"o":"m 422 775 l 326 197 l 321 194 l 179 365 l 92 290 l 344 -14 l 700 290 l 638 365 l 439 194 l 435 197 l 531 775 l 536 778 l 678 607 l 764 682 l 511 986 l 157 682 l 219 607 l 417 778 z m 0 -169 l 639 -169 l 656 -64 l 17 -64 z "},"^":{"ha":833,"x_min":0,"x_max":0,"o":"m 133 525 l 253 525 l 492 868 l 617 525 l 736 525 l 576 972 l 443 972 z "},"~":{"ha":833,"x_min":0,"x_max":0,"o":"m 61 313 l 167 313 l 175 354 b 275 475 190 433 225 475 b 539 285 382 475 364 285 b 768 501 656 285 747 371 l 776 549 l 671 549 l 663 507 b 561 386 646 426 611 386 b 299 576 453 386 474 576 b 68 360 182 576 90 490 z "},"*":{"ha":833,"x_min":0,"x_max":0,"o":"m 478 476 l 521 739 l 418 739 l 375 476 l 139 557 l 89 460 l 326 378 l 138 165 l 210 104 l 400 317 l 519 104 l 613 165 l 493 378 l 757 460 l 742 557 z "},"∗":{"ha":833,"x_min":0,"x_max":0,"o":"m 488 532 l 531 794 l 428 794 l 385 532 l 149 613 l 99 515 l 336 433 l 147 221 l 219 160 l 410 372 l 529 160 l 622 221 l 503 433 l 767 515 l 751 613 z "},"@":{"ha":833,"x_min":0,"x_max":0,"o":"m 465 181 b 638 267 529 181 590 213 l 643 267 l 626 189 l 726 189 l 814 588 b 563 931 858 793 758 931 b 40 418 314 931 89 710 b 390 -69 -7 133 138 -69 b 681 38 499 -69 601 -32 l 626 101 b 410 24 571 53 490 24 b 140 421 214 24 101 189 b 547 839 181 657 357 839 b 724 610 683 839 753 747 l 718 610 b 581 704 697 669 649 704 b 310 428 454 704 335 583 b 465 181 286 285 351 181 z m 514 274 b 417 431 443 274 401 340 b 588 610 433 529 510 610 b 683 453 658 610 697 543 b 514 274 667 353 590 274 z "},"ã":{"ha":833,"x_min":0,"x_max":0,"o":"m 593 535 b 503 453 583 483 556 458 l 432 446 b 78 214 217 425 101 351 b 279 -14 56 79 139 -14 b 526 119 381 -14 469 35 l 533 119 b 536 0 529 71 531 31 l 647 0 b 664 268 639 65 643 151 l 710 533 b 476 764 732 672 638 764 b 165 558 321 764 190 678 l 281 558 b 463 665 300 622 375 665 b 593 535 558 665 607 615 z m 571 396 l 551 292 b 314 82 531 172 425 82 b 196 217 228 82 182 135 b 432 365 211 303 283 347 l 500 372 b 571 396 528 376 551 383 z m 254 922 l 353 922 l 360 951 b 415 1029 369 1004 389 1029 b 594 903 475 1029 467 903 b 765 1065 683 903 749 965 l 772 1103 l 674 1103 l 668 1074 b 613 996 657 1021 639 996 b 433 1122 551 996 560 1122 b 260 960 344 1122 278 1060 z "},"b":{"ha":833,"x_min":0,"x_max":0,"o":"m 51 0 l 161 0 l 185 140 l 190 140 b 392 -14 219 42 289 -14 b 760 375 568 -14 722 150 b 521 764 797 600 697 764 b 278 624 422 764 339 714 l 272 624 l 339 1028 l 222 1028 z m 389 92 b 228 375 267 92 200 208 b 483 658 256 542 360 658 b 642 375 604 658 669 543 b 389 92 614 207 511 92 z "},"\\":{"ha":833,"x_min":0,"x_max":0,"o":"m 310 1097 l 193 1097 l 528 -236 l 644 -236 z "},"␈":{"ha":833,"x_min":0,"x_max":0,"o":"m 188 556 l 361 556 b 529 693 444 556 515 614 b 476 808 538 746 517 788 l 476 811 b 550 914 515 833 543 869 b 435 1042 563 988 513 1042 l 268 1042 z m 315 843 l 336 971 l 424 971 b 471 907 458 971 476 944 b 401 843 465 869 436 843 z m 279 626 l 304 772 l 397 772 b 449 699 436 772 456 742 b 374 626 442 657 411 626 z m 308 -69 l 600 -69 l 613 1 l 400 1 l 425 147 l 610 147 l 621 218 l 436 218 l 458 346 l 671 346 l 681 417 l 389 417 z "},"✗":{"ha":833,"x_min":0,"x_max":0,"o":"m 22 -33 b 410 417 129 111 258 260 b 685 -3 503 282 594 144 l 781 61 b 497 503 683 219 590 365 b 919 897 624 628 764 758 l 860 969 b 440 585 708 838 568 710 b 167 958 353 711 263 833 l 72 875 b 353 499 169 749 263 625 b -71 22 185 329 42 171 z "},"|":{"ha":833,"x_min":0,"x_max":0,"o":"m 253 -236 l 361 -236 l 583 1097 l 475 1097 z "},"␇":{"ha":833,"x_min":0,"x_max":0,"o":"m 135 868 l 308 868 b 476 1006 392 868 464 926 b 424 1121 486 1058 465 1100 l 425 1124 b 497 1226 464 1146 490 1182 b 382 1354 510 1300 461 1354 l 215 1354 z m 263 1156 l 285 1283 l 371 1283 b 419 1219 406 1283 425 1257 b 350 1156 414 1182 385 1156 z m 226 939 l 251 1085 l 344 1085 b 397 1011 383 1085 404 1054 b 321 939 390 969 360 939 z m 257 243 l 549 243 l 561 314 l 349 314 l 374 460 l 558 460 l 569 531 l 385 531 l 406 658 l 618 658 l 629 729 l 338 729 z m 365 -382 l 650 -382 l 663 -311 l 457 -311 l 526 104 l 446 104 z "},"β":{"ha":833,"x_min":0,"x_max":0,"o":"m 192 90 l 197 90 b 388 -14 232 24 299 -14 b 726 292 551 -14 696 115 b 588 567 749 425 693 528 b 750 789 672 607 733 688 b 521 1056 776 946 682 1056 b 185 750 350 1056 217 933 l 14 -278 l 131 -278 z m 225 288 l 304 764 b 507 950 324 875 403 950 b 638 783 603 950 654 885 b 443 604 619 678 542 604 l 390 604 l 372 499 l 450 499 b 610 296 563 499 629 413 b 381 92 590 178 494 92 b 225 288 272 92 206 171 z "},"␢":{"ha":833,"x_min":0,"x_max":0,"o":"m 42 667 l 174 732 l 51 0 l 161 0 l 185 140 l 190 140 b 392 -14 219 42 289 -14 b 760 375 568 -14 722 150 b 521 764 797 600 697 764 b 278 624 422 764 339 714 l 272 624 l 300 794 l 504 893 l 521 989 l 317 889 l 339 1028 l 222 1028 l 189 826 l 57 763 z m 389 92 b 228 375 267 92 200 208 b 483 658 256 542 360 658 b 642 375 604 658 669 543 b 389 92 614 207 511 92 z "},"█":{"ha":833,"x_min":0,"x_max":0,"o":"m 0 -278 l 833 -278 l 833 1250 l 0 1250 z "},"⌨":{"ha":833,"x_min":0,"x_max":0,"o":"m 796 194 l 893 778 l 60 778 l -37 194 z m 60 272 l 131 700 l 797 700 l 726 272 z m 163 561 l 246 561 l 260 644 l 176 644 z m 301 561 l 385 561 l 399 644 l 315 644 z m 440 561 l 524 561 l 538 644 l 454 644 z m 614 436 l 697 436 l 732 644 l 593 644 l 579 561 l 635 561 z m 197 436 l 281 436 l 294 519 l 211 519 z m 336 436 l 419 436 l 433 519 l 350 519 z m 475 436 l 558 436 l 572 519 l 489 519 z m 261 319 l 539 319 l 551 389 l 274 389 z "},"{":{"ha":833,"x_min":0,"x_max":0,"o":"m 315 433 b 511 683 414 451 496 556 l 531 842 b 700 992 540 938 601 992 l 793 992 l 811 1097 l 714 1097 b 411 833 540 1097 431 1000 l 393 679 b 190 486 381 561 301 486 l 118 486 l 100 375 l 172 375 b 311 182 283 375 336 300 l 278 28 b 492 -236 240 -139 318 -236 l 594 -236 l 613 -131 l 514 -131 b 393 19 415 -131 372 -76 l 428 178 b 314 428 454 306 407 410 z "},"}":{"ha":833,"x_min":0,"x_max":0,"o":"m 522 428 b 326 178 424 410 342 306 l 307 19 b 136 -131 297 -76 235 -131 l 38 -131 l 19 -236 l 122 -236 b 426 28 296 -236 407 -139 l 444 182 b 646 375 457 300 535 375 l 718 375 l 736 486 l 664 486 b 526 679 553 486 501 561 l 560 833 b 344 1097 597 1000 518 1097 l 247 1097 l 231 992 l 324 992 b 444 842 421 992 465 938 l 410 683 b 524 433 383 556 431 451 z "},"[":{"ha":833,"x_min":0,"x_max":0,"o":"m 156 -236 l 568 -236 l 586 -131 l 290 -131 l 478 992 l 772 992 l 790 1097 l 378 1097 z "},"]":{"ha":833,"x_min":0,"x_max":0,"o":"m 681 1097 l 268 1097 l 250 992 l 546 992 l 360 -131 l 64 -131 l 46 -236 l 458 -236 z "},"⟦":{"ha":833,"x_min":0,"x_max":0,"o":"m 44 -236 l 642 -236 l 660 -131 l 415 -131 l 601 992 l 846 992 l 864 1097 l 267 1097 z m 179 -131 l 365 992 l 485 992 l 299 -131 z "},"⟧":{"ha":833,"x_min":0,"x_max":0,"o":"m 572 -236 l 794 1097 l 197 1097 l 179 992 l 424 992 l 238 -131 l -7 -131 l -25 -236 z m 474 -131 l 354 -131 l 540 992 l 660 992 z "},"⠀":{"ha":833,"x_min":0,"x_max":0,"o":""},"˘":{"ha":833,"x_min":0,"x_max":0,"o":"m 433 1060 l 338 1060 b 492 869 319 949 383 869 b 710 1060 600 869 692 949 l 614 1060 b 507 958 599 999 556 958 b 433 1060 458 958 429 999 z "},"¦":{"ha":833,"x_min":0,"x_max":0,"o":"m 253 -236 l 361 -236 l 456 325 l 347 325 z m 382 536 l 490 536 l 583 1097 l 475 1097 z "},"⎋":{"ha":833,"x_min":0,"x_max":0,"o":"m 53 486 b 365 111 18 279 158 111 b 803 486 572 111 768 279 b 490 861 838 693 697 861 l 476 778 b 719 486 638 778 746 647 b 379 194 693 325 540 194 b 136 486 218 194 110 325 z m 392 460 l 461 519 l 261 760 l 396 875 l 104 875 l 56 583 l 192 700 z "},"•":{"ha":833,"x_min":0,"x_max":0,"o":"m 251 431 b 390 264 236 339 299 264 b 585 431 483 264 569 339 b 446 597 600 522 538 597 b 251 431 354 597 267 522 z "},"∙":{"ha":833,"x_min":0,"x_max":0,"o":"m 251 431 b 390 264 236 339 299 264 b 585 431 483 264 569 339 b 446 597 600 522 538 597 b 251 431 354 597 267 522 z "},"c":{"ha":833,"x_min":0,"x_max":0,"o":"m 576 192 b 397 90 546 129 476 90 b 221 376 261 90 193 207 b 486 660 249 544 354 660 b 629 558 563 660 618 621 l 743 558 b 504 764 743 681 644 764 b 104 378 310 764 142 601 b 379 -14 67 153 182 -14 b 692 192 518 -14 647 69 z "},"ć":{"ha":833,"x_min":0,"x_max":0,"o":"m 576 192 b 397 90 546 129 476 90 b 221 376 261 90 193 207 b 486 660 249 544 354 660 b 629 558 563 660 618 621 l 743 558 b 504 764 743 681 644 764 b 104 378 310 764 142 601 b 379 -14 67 153 182 -14 b 692 192 518 -14 647 69 z m 750 1135 l 596 1135 l 446 878 l 547 878 z "},"␘":{"ha":833,"x_min":0,"x_max":0,"o":"m 401 999 b 314 935 388 960 353 935 b 233 1111 247 935 215 1004 b 371 1288 251 1219 306 1288 b 436 1231 408 1288 433 1265 l 517 1231 b 383 1361 518 1307 464 1361 b 153 1111 272 1361 178 1260 b 300 861 128 964 189 861 b 482 999 383 861 460 918 z m 274 243 l 332 374 l 486 374 l 500 243 l 579 243 l 524 729 l 414 729 l 196 243 z m 363 444 l 453 647 l 456 647 l 479 444 z m 607 -264 l 604 -264 l 525 104 l 404 104 l 324 -382 l 397 -382 l 464 25 l 467 25 l 556 -382 l 661 -382 l 742 104 l 668 104 z "},"℅":{"ha":833,"x_min":0,"x_max":0,"o":"m 536 -14 b 776 213 653 -14 754 82 b 611 438 799 343 728 438 b 372 213 496 438 394 343 b 536 -14 350 82 421 -14 z m 551 71 b 468 213 488 71 456 129 b 599 353 482 296 535 353 b 681 213 661 353 694 296 b 551 71 667 129 614 71 z m -25 0 l 94 0 l 881 972 l 763 972 z m 356 694 b 274 651 342 667 310 651 b 183 796 204 651 168 710 b 317 933 197 879 249 933 b 385 890 353 933 378 918 l 482 890 b 331 1018 482 967 419 1018 b 89 794 211 1018 110 925 b 258 567 67 664 138 567 b 456 694 346 567 426 618 z "},"ˇ":{"ha":833,"x_min":0,"x_max":0,"o":"m 431 868 l 554 868 l 747 1113 l 646 1113 l 508 969 l 418 1113 l 317 1113 z "},"␍":{"ha":833,"x_min":0,"x_max":0,"o":"m 454 686 b 365 622 439 647 406 622 b 286 799 299 622 268 692 b 422 975 303 907 357 975 b 489 918 460 975 486 953 l 569 918 b 435 1049 571 994 515 1049 b 206 799 325 1049 231 947 b 353 549 181 651 242 549 b 533 686 436 549 513 606 z m 417 207 l 439 346 l 536 346 b 594 276 578 346 601 318 b 514 207 588 235 554 207 z m 290 -69 l 371 -69 l 404 136 l 474 136 l 542 -69 l 629 -69 l 558 146 b 672 276 618 165 661 214 b 546 417 686 358 635 417 l 371 417 z "},"č":{"ha":833,"x_min":0,"x_max":0,"o":"m 576 192 b 397 90 546 129 476 90 b 221 376 261 90 193 207 b 486 660 249 544 354 660 b 629 558 563 660 618 621 l 743 558 b 504 764 743 681 644 764 b 104 378 310 764 142 601 b 379 -14 67 153 182 -14 b 692 192 518 -14 647 69 z m 458 868 l 582 868 l 775 1113 l 674 1113 l 536 969 l 446 1113 l 344 1113 z "},"ç":{"ha":833,"x_min":0,"x_max":0,"o":"m 288 -221 l 194 -221 b 339 -362 185 -303 244 -362 b 536 -210 438 -362 521 -297 b 390 -74 550 -121 488 -61 l 411 -12 b 692 192 538 0 651 79 l 576 192 b 397 90 546 129 476 90 b 221 376 261 90 193 207 b 486 660 249 544 354 660 b 629 558 563 660 618 621 l 743 558 b 504 764 743 681 644 764 b 104 378 310 764 142 601 b 313 -7 71 179 157 26 l 267 -140 l 324 -161 b 376 -144 338 -151 356 -144 b 440 -214 419 -144 447 -172 b 356 -282 433 -254 399 -282 b 288 -221 314 -282 288 -257 z "},"ĉ":{"ha":833,"x_min":0,"x_max":0,"o":"m 576 192 b 397 90 546 129 476 90 b 221 376 261 90 193 207 b 486 660 249 544 354 660 b 629 558 563 660 618 621 l 743 558 b 504 764 743 681 644 764 b 104 378 310 764 142 601 b 379 -14 67 153 182 -14 b 692 192 518 -14 647 69 z m 306 868 l 406 868 l 543 1013 l 633 868 l 735 868 l 621 1113 l 499 1113 z "},"ċ":{"ha":833,"x_min":0,"x_max":0,"o":"m 576 192 b 397 90 546 129 476 90 b 221 376 261 90 193 207 b 486 660 249 544 354 660 b 629 558 563 660 618 621 l 743 558 b 504 764 743 681 644 764 b 104 378 310 764 142 601 b 379 -14 67 153 182 -14 b 692 192 518 -14 647 69 z m 438 992 b 524 889 428 935 467 889 b 642 992 581 889 633 935 b 557 1093 653 1049 615 1093 b 438 992 501 1093 447 1049 z "},"¸":{"ha":833,"x_min":0,"x_max":0,"o":"m 250 -221 l 157 -221 b 301 -362 147 -303 207 -362 b 499 -208 400 -362 483 -297 b 353 -74 513 -121 450 -61 l 392 40 l 292 40 l 229 -140 l 286 -161 b 339 -144 300 -151 318 -144 b 403 -214 382 -144 410 -172 b 318 -282 396 -254 361 -282 b 250 -221 276 -282 250 -257 z "},"¢":{"ha":833,"x_min":0,"x_max":0,"o":"m 289 -167 l 375 -167 l 401 -12 b 692 192 532 -4 650 76 l 574 192 b 418 92 546 136 486 99 l 513 657 b 626 558 574 649 617 613 l 743 558 b 531 763 743 672 657 753 l 556 917 l 469 917 l 443 758 b 104 378 275 729 138 578 b 315 -8 71 178 158 24 z m 221 378 b 425 651 244 519 322 622 l 333 100 b 221 378 242 131 197 235 z "},"✓":{"ha":833,"x_min":0,"x_max":0,"o":"m 232 0 l 340 0 l 926 943 l 835 988 l 306 133 l 300 133 l 114 578 l 13 526 z "},"χ":{"ha":833,"x_min":0,"x_max":0,"o":"m -37 -278 l 82 -278 l 354 132 l 424 -117 b 601 -285 454 -224 494 -285 b 669 -274 624 -285 644 -282 l 686 -174 b 635 -183 669 -181 653 -183 b 539 -82 576 -183 558 -151 l 449 236 l 790 750 l 669 750 l 414 364 l 350 589 b 172 757 318 696 279 757 b 104 746 150 757 129 754 l 88 646 b 138 656 104 653 121 656 b 235 554 196 656 215 624 l 318 258 z "},"○":{"ha":833,"x_min":0,"x_max":0,"o":"m 42 486 b 417 111 42 279 210 111 b 792 486 624 111 792 279 b 417 861 792 693 624 861 b 42 486 210 861 42 693 z m 125 486 b 417 778 125 647 256 778 b 708 486 578 778 708 647 b 417 194 708 325 578 194 b 125 486 256 194 125 325 z "},"ˆ":{"ha":833,"x_min":0,"x_max":0,"o":"m 278 868 l 378 868 l 515 1013 l 606 868 l 707 868 l 593 1113 l 471 1113 z "},":":{"ha":833,"x_min":0,"x_max":0,"o":"m 257 96 b 346 -11 246 36 286 -11 b 471 96 404 -11 460 36 b 381 203 481 156 440 203 b 257 96 322 203 267 156 z m 350 654 b 439 547 340 596 381 547 b 564 654 499 547 554 596 b 475 761 574 714 535 761 b 350 654 415 761 360 714 z "},",":{"ha":833,"x_min":0,"x_max":0,"o":"m 85 -219 l 196 -219 l 481 168 l 313 168 z "},"̦":{"ha":833,"x_min":0,"x_max":0,"o":"m 454 -101 l 300 -101 l 149 -358 l 250 -358 z "},"≅":{"ha":833,"x_min":0,"x_max":0,"o":"m 118 657 l 224 657 l 232 699 b 333 819 249 778 283 819 b 596 629 440 819 422 629 b 826 846 713 629 806 715 l 835 893 l 729 893 l 721 851 b 619 731 704 771 669 731 b 356 921 511 731 531 921 b 126 704 239 921 149 835 z m 108 433 l 731 433 l 749 539 l 126 539 z m 61 144 l 683 144 l 700 250 l 78 250 z "},"©":{"ha":833,"x_min":0,"x_max":0,"o":"m 361 83 b 832 486 586 83 793 261 b 496 889 869 711 721 889 b 26 486 271 889 64 711 b 361 83 -12 261 136 83 z m 371 147 b 97 486 182 147 64 292 b 486 825 129 681 296 825 b 761 486 675 825 793 681 b 371 147 728 292 561 147 z m 513 400 b 413 335 499 361 460 335 b 322 486 343 335 306 393 b 461 638 338 579 394 638 b 539 579 504 638 536 614 l 617 579 b 474 711 618 656 561 711 b 243 486 363 711 264 619 b 400 263 221 354 286 263 b 589 400 489 263 567 319 z "},"¤":{"ha":833,"x_min":0,"x_max":0,"o":"m 194 486 b 210 360 186 439 193 396 l 82 251 l 143 178 l 271 288 b 389 253 303 265 343 253 b 521 288 436 253 481 265 l 613 178 l 697 251 l 606 361 b 661 486 633 397 653 440 b 647 611 669 532 664 575 l 775 721 l 715 794 l 586 685 b 467 719 554 707 514 719 b 336 685 421 719 376 707 l 246 794 l 161 721 l 251 613 b 194 486 222 576 203 533 z m 406 347 b 296 486 332 347 283 408 b 451 625 308 564 378 625 b 560 486 524 625 572 564 b 406 347 547 408 478 347 z "},"d":{"ha":833,"x_min":0,"x_max":0,"o":"m 542 0 l 653 0 b 685 250 663 88 674 179 l 814 1028 l 697 1028 l 631 625 l 624 625 b 429 764 593 714 525 764 b 60 375 254 764 97 599 b 300 -14 22 150 125 -14 b 547 135 400 -14 486 40 l 553 135 b 542 0 547 90 544 46 z m 340 92 b 178 375 218 92 150 211 b 436 658 204 539 314 658 b 592 375 556 658 619 543 b 340 92 564 208 461 92 z "},"†":{"ha":833,"x_min":0,"x_max":0,"o":"m 365 389 l 460 389 l 518 746 l 660 746 l 675 831 l 533 831 l 557 972 l 463 972 l 438 831 l 296 831 l 282 746 l 424 746 z "},"‡":{"ha":833,"x_min":0,"x_max":0,"o":"m 365 389 l 460 389 l 482 525 l 624 525 l 638 610 l 496 610 l 519 751 l 661 751 l 675 836 l 533 836 l 557 972 l 463 972 l 439 836 l 297 836 l 283 751 l 425 751 l 401 610 l 260 610 l 246 525 l 388 525 z "},"␐":{"ha":833,"x_min":0,"x_max":0,"o":"m 128 868 l 269 868 b 510 1111 388 868 486 967 b 350 1354 533 1256 468 1354 l 208 1354 z m 219 939 l 276 1283 l 338 1283 b 429 1111 411 1283 447 1217 b 281 939 411 1006 354 939 z m 261 243 l 546 243 l 558 314 l 353 314 l 421 729 l 342 729 z m 361 -382 l 653 -382 l 665 -311 l 453 -311 l 478 -165 l 663 -165 l 674 -94 l 489 -94 l 510 33 l 722 33 l 733 104 l 442 104 z "},"⇟":{"ha":833,"x_min":0,"x_max":0,"o":"m 267 713 l 411 713 l 390 588 l 244 588 l 231 497 l 375 497 l 325 200 l 318 197 l 169 376 l 82 301 l 344 -14 l 713 301 l 650 376 l 440 197 l 436 200 l 486 497 l 631 497 l 644 588 l 501 588 l 522 713 l 667 713 l 681 803 l 538 803 l 565 972 l 454 972 l 426 803 l 281 803 z "},"⇞":{"ha":833,"x_min":0,"x_max":0,"o":"m 422 786 l 374 489 l 229 489 l 214 399 l 358 399 l 338 274 l 193 274 l 178 183 l 322 183 l 294 14 l 406 14 l 433 183 l 578 183 l 593 274 l 449 274 l 469 399 l 614 399 l 629 489 l 485 489 l 533 786 l 540 789 l 690 610 l 776 685 l 514 1000 l 147 685 l 210 610 l 418 789 z "},"ď":{"ha":833,"x_min":0,"x_max":0,"o":"m 542 0 l 653 0 b 685 250 663 88 674 179 l 814 1028 l 697 1028 l 631 625 l 624 625 b 429 764 593 714 525 764 b 60 375 254 764 97 599 b 300 -14 22 150 125 -14 b 547 135 400 -14 486 40 l 553 135 b 542 0 547 90 544 46 z m 803 733 l 790 649 b 1108 915 944 647 1082 761 b 1010 1090 1125 1017 1085 1090 b 893 992 954 1090 903 1049 b 960 900 885 940 913 900 b 1011 918 978 900 996 907 b 1010 901 1011 913 1011 907 b 803 733 993 807 907 735 z m 340 92 b 178 375 218 92 150 211 b 436 658 204 539 314 658 b 592 375 556 658 619 543 b 340 92 564 208 461 92 z "},"đ":{"ha":833,"x_min":0,"x_max":0,"o":"m 542 0 l 653 0 b 685 250 663 88 674 179 l 783 842 l 865 842 l 879 928 l 797 928 l 814 1028 l 697 1028 l 681 928 l 479 928 l 465 842 l 667 842 l 631 625 l 624 625 b 429 764 593 714 525 764 b 60 375 254 764 97 599 b 300 -14 22 150 125 -14 b 547 135 400 -14 486 40 l 553 135 b 542 0 547 90 544 46 z m 340 92 b 178 375 218 92 150 211 b 436 658 204 539 314 658 b 592 375 556 658 619 543 b 340 92 564 208 461 92 z "},"°":{"ha":833,"x_min":0,"x_max":0,"o":"m 242 756 b 436 525 221 626 306 525 b 704 756 565 525 683 626 b 513 986 726 885 642 986 b 242 756 382 986 264 885 z m 451 619 b 343 756 376 619 331 678 b 497 892 356 833 422 892 b 604 756 571 892 618 833 b 451 619 592 678 525 619 z "},"␡":{"ha":833,"x_min":0,"x_max":0,"o":"m 128 868 l 269 868 b 510 1111 388 868 486 967 b 350 1354 533 1256 468 1354 l 208 1354 z m 219 939 l 276 1283 l 338 1283 b 429 1111 411 1283 447 1217 b 281 939 411 1006 354 939 z m 257 243 l 549 243 l 561 314 l 349 314 l 374 460 l 558 460 l 569 531 l 385 531 l 406 658 l 618 658 l 629 729 l 338 729 z m 365 -382 l 650 -382 l 663 -311 l 457 -311 l 526 104 l 446 104 z "},"␥":{"ha":833,"x_min":0,"x_max":0,"o":"m 0 319 l 0 192 l 668 972 l 558 972 z m 0 65 l 0 0 l 54 0 l 833 907 l 833 972 l 779 972 z m 165 0 l 275 0 l 833 653 l 833 781 z "},"δ":{"ha":833,"x_min":0,"x_max":0,"o":"m 561 943 b 703 913 614 943 657 935 l 718 1010 b 568 1042 678 1031 629 1042 b 232 824 389 1042 253 954 b 321 643 219 749 250 688 b 72 322 194 586 97 468 b 343 -14 40 128 154 -14 b 733 346 536 -14 697 133 b 531 685 761 517 692 635 l 474 703 b 349 826 379 732 339 771 b 561 943 361 897 444 943 z m 417 600 l 468 585 b 615 344 588 549 636 469 b 361 92 590 197 485 92 b 189 339 238 92 165 197 b 417 600 211 469 304 575 z "},"␔":{"ha":833,"x_min":0,"x_max":0,"o":"m 128 868 l 269 868 b 510 1111 388 868 486 967 b 350 1354 533 1256 468 1354 l 208 1354 z m 219 939 l 276 1283 l 338 1283 b 429 1111 411 1283 447 1217 b 281 939 411 1006 354 939 z m 506 374 b 418 310 492 335 457 310 b 338 486 351 310 319 379 b 475 663 356 594 410 663 b 540 606 513 663 538 640 l 621 606 b 488 736 622 682 568 736 b 257 486 376 736 282 635 b 404 236 232 339 293 236 b 586 374 488 236 564 293 z m 321 -275 l 532 -275 l 514 -382 l 592 -382 l 608 -275 l 690 -275 l 701 -204 l 621 -204 l 672 104 l 563 104 l 333 -199 z m 581 33 l 583 33 l 543 -204 l 404 -204 z "},"␑":{"ha":833,"x_min":0,"x_max":0,"o":"m 128 868 l 269 868 b 510 1111 388 868 486 967 b 350 1354 533 1256 468 1354 l 208 1354 z m 219 939 l 276 1283 l 338 1283 b 429 1111 411 1283 447 1217 b 281 939 411 1006 354 939 z m 506 374 b 418 310 492 335 457 310 b 338 486 351 310 319 379 b 475 663 356 594 410 663 b 540 606 513 663 538 640 l 621 606 b 488 736 622 682 568 736 b 257 486 376 736 282 635 b 404 236 232 339 293 236 b 586 374 488 236 564 293 z m 338 -382 l 660 -382 l 672 -311 l 554 -311 l 624 104 l 560 104 b 408 6 538 29 504 6 l 397 -58 l 515 -58 l 474 -311 l 349 -311 z "},"␓":{"ha":833,"x_min":0,"x_max":0,"o":"m 128 868 l 269 868 b 510 1111 388 868 486 967 b 350 1354 533 1256 468 1354 l 208 1354 z m 219 939 l 276 1283 l 338 1283 b 429 1111 411 1283 447 1217 b 281 939 411 1006 354 939 z m 506 374 b 418 310 492 335 457 310 b 338 486 351 310 319 379 b 475 663 356 594 410 663 b 540 606 513 663 538 640 l 621 606 b 488 736 622 682 568 736 b 257 486 376 736 282 635 b 404 236 232 339 293 236 b 586 374 488 236 564 293 z m 472 -19 b 556 42 479 17 515 42 b 619 -25 599 42 626 14 b 538 -90 614 -62 581 -90 l 497 -90 l 485 -164 l 529 -164 b 601 -240 579 -164 608 -194 b 503 -318 593 -287 553 -318 b 426 -251 454 -318 422 -290 l 350 -251 b 488 -389 336 -331 394 -389 b 678 -240 583 -389 664 -326 b 611 -122 688 -183 663 -142 l 613 -121 b 697 -19 658 -101 689 -67 b 568 111 710 57 656 111 b 396 -19 479 111 410 57 z "},"␒":{"ha":833,"x_min":0,"x_max":0,"o":"m 128 868 l 269 868 b 510 1111 388 868 486 967 b 350 1354 533 1256 468 1354 l 208 1354 z m 219 939 l 276 1283 l 338 1283 b 429 1111 411 1283 447 1217 b 281 939 411 1006 354 939 z m 506 374 b 418 310 492 335 457 310 b 338 486 351 310 319 379 b 475 663 356 594 410 663 b 540 606 513 663 538 640 l 621 606 b 488 736 622 682 568 736 b 257 486 376 736 282 635 b 404 236 232 339 293 236 b 586 374 488 236 564 293 z m 340 -382 l 654 -382 l 665 -311 l 443 -311 b 546 -214 461 -283 492 -254 b 697 -26 643 -142 688 -87 b 568 111 711 54 658 111 b 389 -19 478 111 403 54 l 471 -19 b 556 40 479 15 515 40 b 618 -29 599 40 625 13 b 497 -165 611 -69 576 -107 b 346 -347 397 -239 356 -289 z "},"¨":{"ha":833,"x_min":0,"x_max":0,"o":"m 272 993 b 353 897 264 940 300 897 b 463 993 406 897 454 940 b 383 1088 472 1046 438 1088 b 272 993 331 1088 282 1046 z m 561 993 b 642 897 553 940 589 897 b 751 993 694 897 743 940 b 672 1088 761 1046 726 1088 b 561 993 619 1088 571 1046 z "},"΅":{"ha":833,"x_min":0,"x_max":0,"o":"m 219 992 b 306 889 210 935 249 889 b 424 992 363 889 415 935 b 339 1093 435 1049 397 1093 b 219 992 283 1093 229 1049 z m 601 992 b 688 889 592 935 631 889 b 806 992 744 889 797 935 b 721 1093 817 1049 779 1093 b 601 992 665 1093 611 1049 z m 683 1243 l 544 1243 l 451 963 l 543 963 z "},"÷":{"ha":833,"x_min":0,"x_max":0,"o":"m 99 378 l 721 378 l 739 483 l 117 483 z m 351 674 b 440 567 342 614 382 567 b 565 674 500 567 556 614 b 476 781 576 732 536 781 b 351 674 418 781 363 732 z m 271 190 b 361 83 261 131 301 83 b 485 190 419 83 475 131 b 396 297 494 249 456 297 b 271 190 338 297 281 249 z "},"∕":{"ha":833,"x_min":0,"x_max":0,"o":"m 103 0 l 221 0 l 789 972 l 672 972 z "},"▓":{"ha":833,"x_min":0,"x_max":0,"o":"m 417 1021 l 417 1097 l 500 1097 l 500 1021 z m 583 1021 l 583 1097 l 667 1097 l 667 1021 z m 250 1021 l 250 1097 l 333 1097 l 333 1021 z m 83 1021 l 83 1097 l 167 1097 l 167 1021 z m 167 868 l 167 944 l 250 944 l 250 868 z m 333 868 l 333 944 l 417 944 l 417 868 z m 500 868 l 500 944 l 583 944 l 583 868 z m 667 868 l 667 944 l 750 944 l 750 868 z m 83 715 l 83 792 l 167 792 l 167 715 z m 250 715 l 250 792 l 333 792 l 333 715 z m 417 715 l 417 792 l 500 792 l 500 715 z m 583 715 l 583 792 l 667 792 l 667 715 z m 667 563 l 667 639 l 750 639 l 750 563 z m 167 563 l 167 639 l 250 639 l 250 563 z m 333 563 l 333 639 l 417 639 l 417 563 z m 500 563 l 500 639 l 583 639 l 583 563 z m 250 410 l 250 486 l 333 486 l 333 410 z m 583 410 l 583 486 l 667 486 l 667 410 z m 83 410 l 83 486 l 167 486 l 167 410 z m 417 410 l 417 486 l 500 486 l 500 410 z m 167 257 l 167 333 l 250 333 l 250 257 z m 333 257 l 333 333 l 417 333 l 417 257 z m 500 257 l 500 333 l 583 333 l 583 257 z m 667 257 l 667 333 l 750 333 l 750 257 z m 83 104 l 83 181 l 167 181 l 167 104 z m 250 104 l 250 181 l 333 181 l 333 104 z m 417 104 l 417 181 l 500 181 l 500 104 z m 583 104 l 583 181 l 667 181 l 667 104 z m 0 1174 l 0 944 l 83 944 l 83 868 l 0 868 l 0 639 l 83 639 l 83 563 l 0 563 l 0 333 l 83 333 l 83 257 l 0 257 l 0 28 l 83 28 l 83 -49 l 0 -49 l 0 -278 l 833 -278 l 833 -201 l 750 -201 l 750 -125 l 833 -125 l 833 104 l 750 104 l 750 181 l 833 181 l 833 410 l 750 410 l 750 486 l 833 486 l 833 715 l 750 715 l 750 792 l 833 792 l 833 1021 l 750 1021 l 750 1097 l 833 1097 l 833 1250 l 750 1250 l 750 1174 l 667 1174 l 667 1250 l 583 1250 l 583 1174 l 500 1174 l 500 1250 l 417 1250 l 417 1174 l 333 1174 l 333 1250 l 250 1250 l 250 1174 l 167 1174 l 167 1250 l 83 1250 l 83 1174 z m 167 -49 l 167 28 l 250 28 l 250 -49 z m 333 -49 l 333 28 l 417 28 l 417 -49 z m 500 -49 l 500 28 l 583 28 l 583 -49 z m 667 -49 l 667 28 l 750 28 l 750 -49 z m 83 -201 l 83 -125 l 167 -125 l 167 -201 z m 250 -201 l 250 -125 l 333 -125 l 333 -201 z m 417 -201 l 417 -125 l 500 -125 l 500 -201 z m 583 -201 l 583 -125 l 667 -125 l 667 -201 z "},"$":{"ha":833,"x_min":0,"x_max":0,"o":"m 64 244 b 307 -18 46 104 146 -1 l 281 -181 l 369 -181 l 397 -17 b 715 267 563 1 690 113 b 490 540 739 408 663 500 l 547 882 b 676 742 626 867 678 813 l 782 742 b 564 983 796 867 704 964 l 592 1153 l 503 1153 l 475 985 b 169 713 317 969 196 864 b 385 450 147 574 219 485 l 324 83 b 169 244 226 96 164 160 z m 604 263 b 414 86 589 171 514 103 l 471 431 b 604 263 574 401 618 346 z m 281 718 b 458 885 294 807 364 871 l 404 560 b 281 718 308 585 267 638 z "},"˙":{"ha":833,"x_min":0,"x_max":0,"o":"m 410 992 b 496 889 400 935 439 889 b 614 992 553 889 606 935 b 529 1093 625 1049 588 1093 b 410 992 474 1093 419 1049 z "},"ı":{"ha":833,"x_min":0,"x_max":0,"o":"m 81 0 l 647 0 l 665 104 l 440 104 l 547 750 l 213 750 l 194 646 l 413 646 l 324 104 l 99 104 z "},"ȷ":{"ha":833,"x_min":0,"x_max":0,"o":"m 490 -26 l 619 750 l 236 750 l 218 646 l 485 646 l 374 -26 b 197 -193 356 -139 297 -193 b 76 -162 156 -193 114 -183 l 61 -260 b 200 -292 97 -281 144 -292 b 490 -26 361 -292 461 -200 z "},"⠁":{"ha":833,"x_min":0,"x_max":0,"o":"m 363 792 b 264 890 363 847 319 890 b 165 792 208 890 165 847 b 264 693 165 736 208 693 b 363 792 319 693 363 736 z "},"⠃":{"ha":833,"x_min":0,"x_max":0,"o":"m 363 792 b 264 890 363 847 319 890 b 165 792 208 890 165 847 b 264 693 165 736 208 693 b 363 792 319 693 363 736 z m 363 486 b 264 585 363 542 319 585 b 165 486 208 585 165 542 b 264 388 165 431 208 388 b 363 486 319 388 363 431 z "},"⠇":{"ha":833,"x_min":0,"x_max":0,"o":"m 363 792 b 264 890 363 847 319 890 b 165 792 208 890 165 847 b 264 693 165 736 208 693 b 363 792 319 693 363 736 z m 363 486 b 264 585 363 542 319 585 b 165 486 208 585 165 542 b 264 388 165 431 208 388 b 363 486 319 388 363 431 z m 363 181 b 264 279 363 236 319 279 b 165 181 208 279 165 236 b 264 82 165 125 208 82 b 363 181 319 82 363 125 z "},"⠏":{"ha":833,"x_min":0,"x_max":0,"o":"m 363 792 b 264 890 363 847 319 890 b 165 792 208 890 165 847 b 264 693 165 736 208 693 b 363 792 319 693 363 736 z m 363 486 b 264 585 363 542 319 585 b 165 486 208 585 165 542 b 264 388 165 431 208 388 b 363 486 319 388 363 431 z m 363 181 b 264 279 363 236 319 279 b 165 181 208 279 165 236 b 264 82 165 125 208 82 b 363 181 319 82 363 125 z m 668 792 b 569 890 668 847 625 890 b 471 792 514 890 471 847 b 569 693 471 736 514 693 b 668 792 625 693 668 736 z "},"⠟":{"ha":833,"x_min":0,"x_max":0,"o":"m 363 792 b 264 890 363 847 319 890 b 165 792 208 890 165 847 b 264 693 165 736 208 693 b 363 792 319 693 363 736 z m 363 486 b 264 585 363 542 319 585 b 165 486 208 585 165 542 b 264 388 165 431 208 388 b 363 486 319 388 363 431 z m 363 181 b 264 279 363 236 319 279 b 165 181 208 279 165 236 b 264 82 165 125 208 82 b 363 181 319 82 363 125 z m 668 792 b 569 890 668 847 625 890 b 471 792 514 890 471 847 b 569 693 471 736 514 693 b 668 792 625 693 668 736 z m 668 486 b 569 585 668 542 625 585 b 471 486 514 585 471 542 b 569 388 471 431 514 388 b 668 486 625 388 668 431 z "},"⠿":{"ha":833,"x_min":0,"x_max":0,"o":"m 363 792 b 264 890 363 847 319 890 b 165 792 208 890 165 847 b 264 693 165 736 208 693 b 363 792 319 693 363 736 z m 363 486 b 264 585 363 542 319 585 b 165 486 208 585 165 542 b 264 388 165 431 208 388 b 363 486 319 388 363 431 z m 363 181 b 264 279 363 236 319 279 b 165 181 208 279 165 236 b 264 82 165 125 208 82 b 363 181 319 82 363 125 z m 668 792 b 569 890 668 847 625 890 b 471 792 514 890 471 847 b 569 693 471 736 514 693 b 668 792 625 693 668 736 z m 668 486 b 569 585 668 542 625 585 b 471 486 514 585 471 542 b 569 388 471 431 514 388 b 668 486 625 388 668 431 z m 668 181 b 569 279 668 236 625 279 b 471 181 514 279 471 236 b 569 82 471 125 514 82 b 668 181 625 82 668 125 z "},"⡿":{"ha":833,"x_min":0,"x_max":0,"o":"m 363 792 b 264 890 363 847 319 890 b 165 792 208 890 165 847 b 264 693 165 736 208 693 b 363 792 319 693 363 736 z m 363 486 b 264 585 363 542 319 585 b 165 486 208 585 165 542 b 264 388 165 431 208 388 b 363 486 319 388 363 431 z m 363 181 b 264 279 363 236 319 279 b 165 181 208 279 165 236 b 264 82 165 125 208 82 b 363 181 319 82 363 125 z m 668 792 b 569 890 668 847 625 890 b 471 792 514 890 471 847 b 569 693 471 736 514 693 b 668 792 625 693 668 736 z m 668 486 b 569 585 668 542 625 585 b 471 486 514 585 471 542 b 569 388 471 431 514 388 b 668 486 625 388 668 431 z m 668 181 b 569 279 668 236 625 279 b 471 181 514 279 471 236 b 569 82 471 125 514 82 b 668 181 625 82 668 125 z m 363 -125 b 264 -26 363 -69 319 -26 b 165 -125 208 -26 165 -69 b 264 -224 165 -181 208 -224 b 363 -125 319 -224 363 -181 z "},"⣿":{"ha":833,"x_min":0,"x_max":0,"o":"m 363 792 b 264 890 363 847 319 890 b 165 792 208 890 165 847 b 264 693 165 736 208 693 b 363 792 319 693 363 736 z m 363 486 b 264 585 363 542 319 585 b 165 486 208 585 165 542 b 264 388 165 431 208 388 b 363 486 319 388 363 431 z m 363 181 b 264 279 363 236 319 279 b 165 181 208 279 165 236 b 264 82 165 125 208 82 b 363 181 319 82 363 125 z m 668 792 b 569 890 668 847 625 890 b 471 792 514 890 471 847 b 569 693 471 736 514 693 b 668 792 625 693 668 736 z m 668 486 b 569 585 668 542 625 585 b 471 486 514 585 471 542 b 569 388 471 431 514 388 b 668 486 625 388 668 431 z m 668 181 b 569 279 668 236 625 279 b 471 181 514 279 471 236 b 569 82 471 125 514 82 b 668 181 625 82 668 125 z m 363 -125 b 264 -26 363 -69 319 -26 b 165 -125 208 -26 165 -69 b 264 -224 165 -181 208 -224 b 363 -125 319 -224 363 -181 z m 668 -125 b 569 -26 668 -69 625 -26 b 471 -125 514 -26 471 -69 b 569 -224 471 -181 514 -224 b 668 -125 625 -224 668 -181 z "},"⢿":{"ha":833,"x_min":0,"x_max":0,"o":"m 363 792 b 264 890 363 847 319 890 b 165 792 208 890 165 847 b 264 693 165 736 208 693 b 363 792 319 693 363 736 z m 363 486 b 264 585 363 542 319 585 b 165 486 208 585 165 542 b 264 388 165 431 208 388 b 363 486 319 388 363 431 z m 363 181 b 264 279 363 236 319 279 b 165 181 208 279 165 236 b 264 82 165 125 208 82 b 363 181 319 82 363 125 z m 668 792 b 569 890 668 847 625 890 b 471 792 514 890 471 847 b 569 693 471 736 514 693 b 668 792 625 693 668 736 z m 668 486 b 569 585 668 542 625 585 b 471 486 514 585 471 542 b 569 388 471 431 514 388 b 668 486 625 388 668 431 z m 668 181 b 569 279 668 236 625 279 b 471 181 514 279 471 236 b 569 82 471 125 514 82 b 668 181 625 82 668 125 z m 668 -125 b 569 -26 668 -69 625 -26 b 471 -125 514 -26 471 -69 b 569 -224 471 -181 514 -224 b 668 -125 625 -224 668 -181 z "},"⡟":{"ha":833,"x_min":0,"x_max":0,"o":"m 363 792 b 264 890 363 847 319 890 b 165 792 208 890 165 847 b 264 693 165 736 208 693 b 363 792 319 693 363 736 z m 363 486 b 264 585 363 542 319 585 b 165 486 208 585 165 542 b 264 388 165 431 208 388 b 363 486 319 388 363 431 z m 363 181 b 264 279 363 236 319 279 b 165 181 208 279 165 236 b 264 82 165 125 208 82 b 363 181 319 82 363 125 z m 668 792 b 569 890 668 847 625 890 b 471 792 514 890 471 847 b 569 693 471 736 514 693 b 668 792 625 693 668 736 z m 668 486 b 569 585 668 542 625 585 b 471 486 514 585 471 542 b 569 388 471 431 514 388 b 668 486 625 388 668 431 z m 363 -125 b 264 -26 363 -69 319 -26 b 165 -125 208 -26 165 -69 b 264 -224 165 -181 208 -224 b 363 -125 319 -224 363 -181 z "},"⣟":{"ha":833,"x_min":0,"x_max":0,"o":"m 363 792 b 264 890 363 847 319 890 b 165 792 208 890 165 847 b 264 693 165 736 208 693 b 363 792 319 693 363 736 z m 363 486 b 264 585 363 542 319 585 b 165 486 208 585 165 542 b 264 388 165 431 208 388 b 363 486 319 388 363 431 z m 363 181 b 264 279 363 236 319 279 b 165 181 208 279 165 236 b 264 82 165 125 208 82 b 363 181 319 82 363 125 z m 668 792 b 569 890 668 847 625 890 b 471 792 514 890 471 847 b 569 693 471 736 514 693 b 668 792 625 693 668 736 z m 668 486 b 569 585 668 542 625 585 b 471 486 514 585 471 542 b 569 388 471 431 514 388 b 668 486 625 388 668 431 z m 363 -125 b 264 -26 363 -69 319 -26 b 165 -125 208 -26 165 -69 b 264 -224 165 -181 208 -224 b 363 -125 319 -224 363 -181 z m 668 -125 b 569 -26 668 -69 625 -26 b 471 -125 514 -26 471 -69 b 569 -224 471 -181 514 -224 b 668 -125 625 -224 668 -181 z "},"⢟":{"ha":833,"x_min":0,"x_max":0,"o":"m 363 792 b 264 890 363 847 319 890 b 165 792 208 890 165 847 b 264 693 165 736 208 693 b 363 792 319 693 363 736 z m 363 486 b 264 585 363 542 319 585 b 165 486 208 585 165 542 b 264 388 165 431 208 388 b 363 486 319 388 363 431 z m 363 181 b 264 279 363 236 319 279 b 165 181 208 279 165 236 b 264 82 165 125 208 82 b 363 181 319 82 363 125 z m 668 792 b 569 890 668 847 625 890 b 471 792 514 890 471 847 b 569 693 471 736 514 693 b 668 792 625 693 668 736 z m 668 486 b 569 585 668 542 625 585 b 471 486 514 585 471 542 b 569 388 471 431 514 388 b 668 486 625 388 668 431 z m 668 -125 b 569 -26 668 -69 625 -26 b 471 -125 514 -26 471 -69 b 569 -224 471 -181 514 -224 b 668 -125 625 -224 668 -181 z "},"⠯":{"ha":833,"x_min":0,"x_max":0,"o":"m 363 792 b 264 890 363 847 319 890 b 165 792 208 890 165 847 b 264 693 165 736 208 693 b 363 792 319 693 363 736 z m 363 486 b 264 585 363 542 319 585 b 165 486 208 585 165 542 b 264 388 165 431 208 388 b 363 486 319 388 363 431 z m 363 181 b 264 279 363 236 319 279 b 165 181 208 279 165 236 b 264 82 165 125 208 82 b 363 181 319 82 363 125 z m 668 792 b 569 890 668 847 625 890 b 471 792 514 890 471 847 b 569 693 471 736 514 693 b 668 792 625 693 668 736 z m 668 181 b 569 279 668 236 625 279 b 471 181 514 279 471 236 b 569 82 471 125 514 82 b 668 181 625 82 668 125 z "},"⡯":{"ha":833,"x_min":0,"x_max":0,"o":"m 363 792 b 264 890 363 847 319 890 b 165 792 208 890 165 847 b 264 693 165 736 208 693 b 363 792 319 693 363 736 z m 363 486 b 264 585 363 542 319 585 b 165 486 208 585 165 542 b 264 388 165 431 208 388 b 363 486 319 388 363 431 z m 363 181 b 264 279 363 236 319 279 b 165 181 208 279 165 236 b 264 82 165 125 208 82 b 363 181 319 82 363 125 z m 668 792 b 569 890 668 847 625 890 b 471 792 514 890 471 847 b 569 693 471 736 514 693 b 668 792 625 693 668 736 z m 668 181 b 569 279 668 236 625 279 b 471 181 514 279 471 236 b 569 82 471 125 514 82 b 668 181 625 82 668 125 z m 363 -125 b 264 -26 363 -69 319 -26 b 165 -125 208 -26 165 -69 b 264 -224 165 -181 208 -224 b 363 -125 319 -224 363 -181 z "},"⣯":{"ha":833,"x_min":0,"x_max":0,"o":"m 363 792 b 264 890 363 847 319 890 b 165 792 208 890 165 847 b 264 693 165 736 208 693 b 363 792 319 693 363 736 z m 363 486 b 264 585 363 542 319 585 b 165 486 208 585 165 542 b 264 388 165 431 208 388 b 363 486 319 388 363 431 z m 363 181 b 264 279 363 236 319 279 b 165 181 208 279 165 236 b 264 82 165 125 208 82 b 363 181 319 82 363 125 z m 668 792 b 569 890 668 847 625 890 b 471 792 514 890 471 847 b 569 693 471 736 514 693 b 668 792 625 693 668 736 z m 668 181 b 569 279 668 236 625 279 b 471 181 514 279 471 236 b 569 82 471 125 514 82 b 668 181 625 82 668 125 z m 363 -125 b 264 -26 363 -69 319 -26 b 165 -125 208 -26 165 -69 b 264 -224 165 -181 208 -224 b 363 -125 319 -224 363 -181 z m 668 -125 b 569 -26 668 -69 625 -26 b 471 -125 514 -26 471 -69 b 569 -224 471 -181 514 -224 b 668 -125 625 -224 668 -181 z "},"⢯":{"ha":833,"x_min":0,"x_max":0,"o":"m 363 792 b 264 890 363 847 319 890 b 165 792 208 890 165 847 b 264 693 165 736 208 693 b 363 792 319 693 363 736 z m 363 486 b 264 585 363 542 319 585 b 165 486 208 585 165 542 b 264 388 165 431 208 388 b 363 486 319 388 363 431 z m 363 181 b 264 279 363 236 319 279 b 165 181 208 279 165 236 b 264 82 165 125 208 82 b 363 181 319 82 363 125 z m 668 792 b 569 890 668 847 625 890 b 471 792 514 890 471 847 b 569 693 471 736 514 693 b 668 792 625 693 668 736 z m 668 181 b 569 279 668 236 625 279 b 471 181 514 279 471 236 b 569 82 471 125 514 82 b 668 181 625 82 668 125 z m 668 -125 b 569 -26 668 -69 625 -26 b 471 -125 514 -26 471 -69 b 569 -224 471 -181 514 -224 b 668 -125 625 -224 668 -181 z "},"⡏":{"ha":833,"x_min":0,"x_max":0,"o":"m 363 792 b 264 890 363 847 319 890 b 165 792 208 890 165 847 b 264 693 165 736 208 693 b 363 792 319 693 363 736 z m 363 486 b 264 585 363 542 319 585 b 165 486 208 585 165 542 b 264 388 165 431 208 388 b 363 486 319 388 363 431 z m 363 181 b 264 279 363 236 319 279 b 165 181 208 279 165 236 b 264 82 165 125 208 82 b 363 181 319 82 363 125 z m 668 792 b 569 890 668 847 625 890 b 471 792 514 890 471 847 b 569 693 471 736 514 693 b 668 792 625 693 668 736 z m 363 -125 b 264 -26 363 -69 319 -26 b 165 -125 208 -26 165 -69 b 264 -224 165 -181 208 -224 b 363 -125 319 -224 363 -181 z "},"⣏":{"ha":833,"x_min":0,"x_max":0,"o":"m 363 792 b 264 890 363 847 319 890 b 165 792 208 890 165 847 b 264 693 165 736 208 693 b 363 792 319 693 363 736 z m 363 486 b 264 585 363 542 319 585 b 165 486 208 585 165 542 b 264 388 165 431 208 388 b 363 486 319 388 363 431 z m 363 181 b 264 279 363 236 319 279 b 165 181 208 279 165 236 b 264 82 165 125 208 82 b 363 181 319 82 363 125 z m 668 792 b 569 890 668 847 625 890 b 471 792 514 890 471 847 b 569 693 471 736 514 693 b 668 792 625 693 668 736 z m 363 -125 b 264 -26 363 -69 319 -26 b 165 -125 208 -26 165 -69 b 264 -224 165 -181 208 -224 b 363 -125 319 -224 363 -181 z m 668 -125 b 569 -26 668 -69 625 -26 b 471 -125 514 -26 471 -69 b 569 -224 471 -181 514 -224 b 668 -125 625 -224 668 -181 z "},"⢏":{"ha":833,"x_min":0,"x_max":0,"o":"m 363 792 b 264 890 363 847 319 890 b 165 792 208 890 165 847 b 264 693 165 736 208 693 b 363 792 319 693 363 736 z m 363 486 b 264 585 363 542 319 585 b 165 486 208 585 165 542 b 264 388 165 431 208 388 b 363 486 319 388 363 431 z m 363 181 b 264 279 363 236 319 279 b 165 181 208 279 165 236 b 264 82 165 125 208 82 b 363 181 319 82 363 125 z m 668 792 b 569 890 668 847 625 890 b 471 792 514 890 471 847 b 569 693 471 736 514 693 b 668 792 625 693 668 736 z m 668 -125 b 569 -26 668 -69 625 -26 b 471 -125 514 -26 471 -69 b 569 -224 471 -181 514 -224 b 668 -125 625 -224 668 -181 z "},"⠗":{"ha":833,"x_min":0,"x_max":0,"o":"m 363 792 b 264 890 363 847 319 890 b 165 792 208 890 165 847 b 264 693 165 736 208 693 b 363 792 319 693 363 736 z m 363 486 b 264 585 363 542 319 585 b 165 486 208 585 165 542 b 264 388 165 431 208 388 b 363 486 319 388 363 431 z m 363 181 b 264 279 363 236 319 279 b 165 181 208 279 165 236 b 264 82 165 125 208 82 b 363 181 319 82 363 125 z m 668 486 b 569 585 668 542 625 585 b 471 486 514 585 471 542 b 569 388 471 431 514 388 b 668 486 625 388 668 431 z "},"⠷":{"ha":833,"x_min":0,"x_max":0,"o":"m 363 792 b 264 890 363 847 319 890 b 165 792 208 890 165 847 b 264 693 165 736 208 693 b 363 792 319 693 363 736 z m 363 486 b 264 585 363 542 319 585 b 165 486 208 585 165 542 b 264 388 165 431 208 388 b 363 486 319 388 363 431 z m 363 181 b 264 279 363 236 319 279 b 165 181 208 279 165 236 b 264 82 165 125 208 82 b 363 181 319 82 363 125 z m 668 486 b 569 585 668 542 625 585 b 471 486 514 585 471 542 b 569 388 471 431 514 388 b 668 486 625 388 668 431 z m 668 181 b 569 279 668 236 625 279 b 471 181 514 279 471 236 b 569 82 471 125 514 82 b 668 181 625 82 668 125 z "},"⡷":{"ha":833,"x_min":0,"x_max":0,"o":"m 363 792 b 264 890 363 847 319 890 b 165 792 208 890 165 847 b 264 693 165 736 208 693 b 363 792 319 693 363 736 z m 363 486 b 264 585 363 542 319 585 b 165 486 208 585 165 542 b 264 388 165 431 208 388 b 363 486 319 388 363 431 z m 363 181 b 264 279 363 236 319 279 b 165 181 208 279 165 236 b 264 82 165 125 208 82 b 363 181 319 82 363 125 z m 668 486 b 569 585 668 542 625 585 b 471 486 514 585 471 542 b 569 388 471 431 514 388 b 668 486 625 388 668 431 z m 668 181 b 569 279 668 236 625 279 b 471 181 514 279 471 236 b 569 82 471 125 514 82 b 668 181 625 82 668 125 z m 363 -125 b 264 -26 363 -69 319 -26 b 165 -125 208 -26 165 -69 b 264 -224 165 -181 208 -224 b 363 -125 319 -224 363 -181 z "},"⣷":{"ha":833,"x_min":0,"x_max":0,"o":"m 363 792 b 264 890 363 847 319 890 b 165 792 208 890 165 847 b 264 693 165 736 208 693 b 363 792 319 693 363 736 z m 363 486 b 264 585 363 542 319 585 b 165 486 208 585 165 542 b 264 388 165 431 208 388 b 363 486 319 388 363 431 z m 363 181 b 264 279 363 236 319 279 b 165 181 208 279 165 236 b 264 82 165 125 208 82 b 363 181 319 82 363 125 z m 668 486 b 569 585 668 542 625 585 b 471 486 514 585 471 542 b 569 388 471 431 514 388 b 668 486 625 388 668 431 z m 668 181 b 569 279 668 236 625 279 b 471 181 514 279 471 236 b 569 82 471 125 514 82 b 668 181 625 82 668 125 z m 363 -125 b 264 -26 363 -69 319 -26 b 165 -125 208 -26 165 -69 b 264 -224 165 -181 208 -224 b 363 -125 319 -224 363 -181 z m 668 -125 b 569 -26 668 -69 625 -26 b 471 -125 514 -26 471 -69 b 569 -224 471 -181 514 -224 b 668 -125 625 -224 668 -181 z "},"⢷":{"ha":833,"x_min":0,"x_max":0,"o":"m 363 792 b 264 890 363 847 319 890 b 165 792 208 890 165 847 b 264 693 165 736 208 693 b 363 792 319 693 363 736 z m 363 486 b 264 585 363 542 319 585 b 165 486 208 585 165 542 b 264 388 165 431 208 388 b 363 486 319 388 363 431 z m 363 181 b 264 279 363 236 319 279 b 165 181 208 279 165 236 b 264 82 165 125 208 82 b 363 181 319 82 363 125 z m 668 486 b 569 585 668 542 625 585 b 471 486 514 585 471 542 b 569 388 471 431 514 388 b 668 486 625 388 668 431 z m 668 181 b 569 279 668 236 625 279 b 471 181 514 279 471 236 b 569 82 471 125 514 82 b 668 181 625 82 668 125 z m 668 -125 b 569 -26 668 -69 625 -26 b 471 -125 514 -26 471 -69 b 569 -224 471 -181 514 -224 b 668 -125 625 -224 668 -181 z "},"⡗":{"ha":833,"x_min":0,"x_max":0,"o":"m 363 792 b 264 890 363 847 319 890 b 165 792 208 890 165 847 b 264 693 165 736 208 693 b 363 792 319 693 363 736 z m 363 486 b 264 585 363 542 319 585 b 165 486 208 585 165 542 b 264 388 165 431 208 388 b 363 486 319 388 363 431 z m 363 181 b 264 279 363 236 319 279 b 165 181 208 279 165 236 b 264 82 165 125 208 82 b 363 181 319 82 363 125 z m 668 486 b 569 585 668 542 625 585 b 471 486 514 585 471 542 b 569 388 471 431 514 388 b 668 486 625 388 668 431 z m 363 -125 b 264 -26 363 -69 319 -26 b 165 -125 208 -26 165 -69 b 264 -224 165 -181 208 -224 b 363 -125 319 -224 363 -181 z "},"⣗":{"ha":833,"x_min":0,"x_max":0,"o":"m 363 792 b 264 890 363 847 319 890 b 165 792 208 890 165 847 b 264 693 165 736 208 693 b 363 792 319 693 363 736 z m 363 486 b 264 585 363 542 319 585 b 165 486 208 585 165 542 b 264 388 165 431 208 388 b 363 486 319 388 363 431 z m 363 181 b 264 279 363 236 319 279 b 165 181 208 279 165 236 b 264 82 165 125 208 82 b 363 181 319 82 363 125 z m 668 486 b 569 585 668 542 625 585 b 471 486 514 585 471 542 b 569 388 471 431 514 388 b 668 486 625 388 668 431 z m 363 -125 b 264 -26 363 -69 319 -26 b 165 -125 208 -26 165 -69 b 264 -224 165 -181 208 -224 b 363 -125 319 -224 363 -181 z m 668 -125 b 569 -26 668 -69 625 -26 b 471 -125 514 -26 471 -69 b 569 -224 471 -181 514 -224 b 668 -125 625 -224 668 -181 z "},"⢗":{"ha":833,"x_min":0,"x_max":0,"o":"m 363 792 b 264 890 363 847 319 890 b 165 792 208 890 165 847 b 264 693 165 736 208 693 b 363 792 319 693 363 736 z m 363 486 b 264 585 363 542 319 585 b 165 486 208 585 165 542 b 264 388 165 431 208 388 b 363 486 319 388 363 431 z m 363 181 b 264 279 363 236 319 279 b 165 181 208 279 165 236 b 264 82 165 125 208 82 b 363 181 319 82 363 125 z m 668 486 b 569 585 668 542 625 585 b 471 486 514 585 471 542 b 569 388 471 431 514 388 b 668 486 625 388 668 431 z m 668 -125 b 569 -26 668 -69 625 -26 b 471 -125 514 -26 471 -69 b 569 -224 471 -181 514 -224 b 668 -125 625 -224 668 -181 z "},"⠧":{"ha":833,"x_min":0,"x_max":0,"o":"m 363 792 b 264 890 363 847 319 890 b 165 792 208 890 165 847 b 264 693 165 736 208 693 b 363 792 319 693 363 736 z m 363 486 b 264 585 363 542 319 585 b 165 486 208 585 165 542 b 264 388 165 431 208 388 b 363 486 319 388 363 431 z m 363 181 b 264 279 363 236 319 279 b 165 181 208 279 165 236 b 264 82 165 125 208 82 b 363 181 319 82 363 125 z m 668 181 b 569 279 668 236 625 279 b 471 181 514 279 471 236 b 569 82 471 125 514 82 b 668 181 625 82 668 125 z "},"⡧":{"ha":833,"x_min":0,"x_max":0,"o":"m 363 792 b 264 890 363 847 319 890 b 165 792 208 890 165 847 b 264 693 165 736 208 693 b 363 792 319 693 363 736 z m 363 486 b 264 585 363 542 319 585 b 165 486 208 585 165 542 b 264 388 165 431 208 388 b 363 486 319 388 363 431 z m 363 181 b 264 279 363 236 319 279 b 165 181 208 279 165 236 b 264 82 165 125 208 82 b 363 181 319 82 363 125 z m 668 181 b 569 279 668 236 625 279 b 471 181 514 279 471 236 b 569 82 471 125 514 82 b 668 181 625 82 668 125 z m 363 -125 b 264 -26 363 -69 319 -26 b 165 -125 208 -26 165 -69 b 264 -224 165 -181 208 -224 b 363 -125 319 -224 363 -181 z "},"⣧":{"ha":833,"x_min":0,"x_max":0,"o":"m 363 792 b 264 890 363 847 319 890 b 165 792 208 890 165 847 b 264 693 165 736 208 693 b 363 792 319 693 363 736 z m 363 486 b 264 585 363 542 319 585 b 165 486 208 585 165 542 b 264 388 165 431 208 388 b 363 486 319 388 363 431 z m 363 181 b 264 279 363 236 319 279 b 165 181 208 279 165 236 b 264 82 165 125 208 82 b 363 181 319 82 363 125 z m 668 181 b 569 279 668 236 625 279 b 471 181 514 279 471 236 b 569 82 471 125 514 82 b 668 181 625 82 668 125 z m 363 -125 b 264 -26 363 -69 319 -26 b 165 -125 208 -26 165 -69 b 264 -224 165 -181 208 -224 b 363 -125 319 -224 363 -181 z m 668 -125 b 569 -26 668 -69 625 -26 b 471 -125 514 -26 471 -69 b 569 -224 471 -181 514 -224 b 668 -125 625 -224 668 -181 z "},"⢧":{"ha":833,"x_min":0,"x_max":0,"o":"m 363 792 b 264 890 363 847 319 890 b 165 792 208 890 165 847 b 264 693 165 736 208 693 b 363 792 319 693 363 736 z m 363 486 b 264 585 363 542 319 585 b 165 486 208 585 165 542 b 264 388 165 431 208 388 b 363 486 319 388 363 431 z m 363 181 b 264 279 363 236 319 279 b 165 181 208 279 165 236 b 264 82 165 125 208 82 b 363 181 319 82 363 125 z m 668 181 b 569 279 668 236 625 279 b 471 181 514 279 471 236 b 569 82 471 125 514 82 b 668 181 625 82 668 125 z m 668 -125 b 569 -26 668 -69 625 -26 b 471 -125 514 -26 471 -69 b 569 -224 471 -181 514 -224 b 668 -125 625 -224 668 -181 z "},"⡇":{"ha":833,"x_min":0,"x_max":0,"o":"m 363 792 b 264 890 363 847 319 890 b 165 792 208 890 165 847 b 264 693 165 736 208 693 b 363 792 319 693 363 736 z m 363 486 b 264 585 363 542 319 585 b 165 486 208 585 165 542 b 264 388 165 431 208 388 b 363 486 319 388 363 431 z m 363 181 b 264 279 363 236 319 279 b 165 181 208 279 165 236 b 264 82 165 125 208 82 b 363 181 319 82 363 125 z m 363 -125 b 264 -26 363 -69 319 -26 b 165 -125 208 -26 165 -69 b 264 -224 165 -181 208 -224 b 363 -125 319 -224 363 -181 z "},"⣇":{"ha":833,"x_min":0,"x_max":0,"o":"m 363 792 b 264 890 363 847 319 890 b 165 792 208 890 165 847 b 264 693 165 736 208 693 b 363 792 319 693 363 736 z m 363 486 b 264 585 363 542 319 585 b 165 486 208 585 165 542 b 264 388 165 431 208 388 b 363 486 319 388 363 431 z m 363 181 b 264 279 363 236 319 279 b 165 181 208 279 165 236 b 264 82 165 125 208 82 b 363 181 319 82 363 125 z m 363 -125 b 264 -26 363 -69 319 -26 b 165 -125 208 -26 165 -69 b 264 -224 165 -181 208 -224 b 363 -125 319 -224 363 -181 z m 668 -125 b 569 -26 668 -69 625 -26 b 471 -125 514 -26 471 -69 b 569 -224 471 -181 514 -224 b 668 -125 625 -224 668 -181 z "},"⢇":{"ha":833,"x_min":0,"x_max":0,"o":"m 363 792 b 264 890 363 847 319 890 b 165 792 208 890 165 847 b 264 693 165 736 208 693 b 363 792 319 693 363 736 z m 363 486 b 264 585 363 542 319 585 b 165 486 208 585 165 542 b 264 388 165 431 208 388 b 363 486 319 388 363 431 z m 363 181 b 264 279 363 236 319 279 b 165 181 208 279 165 236 b 264 82 165 125 208 82 b 363 181 319 82 363 125 z m 668 -125 b 569 -26 668 -69 625 -26 b 471 -125 514 -26 471 -69 b 569 -224 471 -181 514 -224 b 668 -125 625 -224 668 -181 z "},"⠋":{"ha":833,"x_min":0,"x_max":0,"o":"m 363 792 b 264 890 363 847 319 890 b 165 792 208 890 165 847 b 264 693 165 736 208 693 b 363 792 319 693 363 736 z m 363 486 b 264 585 363 542 319 585 b 165 486 208 585 165 542 b 264 388 165 431 208 388 b 363 486 319 388 363 431 z m 668 792 b 569 890 668 847 625 890 b 471 792 514 890 471 847 b 569 693 471 736 514 693 b 668 792 625 693 668 736 z "},"⠛":{"ha":833,"x_min":0,"x_max":0,"o":"m 363 792 b 264 890 363 847 319 890 b 165 792 208 890 165 847 b 264 693 165 736 208 693 b 363 792 319 693 363 736 z m 363 486 b 264 585 363 542 319 585 b 165 486 208 585 165 542 b 264 388 165 431 208 388 b 363 486 319 388 363 431 z m 668 792 b 569 890 668 847 625 890 b 471 792 514 890 471 847 b 569 693 471 736 514 693 b 668 792 625 693 668 736 z m 668 486 b 569 585 668 542 625 585 b 471 486 514 585 471 542 b 569 388 471 431 514 388 b 668 486 625 388 668 431 z "},"⠻":{"ha":833,"x_min":0,"x_max":0,"o":"m 363 792 b 264 890 363 847 319 890 b 165 792 208 890 165 847 b 264 693 165 736 208 693 b 363 792 319 693 363 736 z m 363 486 b 264 585 363 542 319 585 b 165 486 208 585 165 542 b 264 388 165 431 208 388 b 363 486 319 388 363 431 z m 668 792 b 569 890 668 847 625 890 b 471 792 514 890 471 847 b 569 693 471 736 514 693 b 668 792 625 693 668 736 z m 668 486 b 569 585 668 542 625 585 b 471 486 514 585 471 542 b 569 388 471 431 514 388 b 668 486 625 388 668 431 z m 668 181 b 569 279 668 236 625 279 b 471 181 514 279 471 236 b 569 82 471 125 514 82 b 668 181 625 82 668 125 z "},"⡻":{"ha":833,"x_min":0,"x_max":0,"o":"m 363 792 b 264 890 363 847 319 890 b 165 792 208 890 165 847 b 264 693 165 736 208 693 b 363 792 319 693 363 736 z m 363 486 b 264 585 363 542 319 585 b 165 486 208 585 165 542 b 264 388 165 431 208 388 b 363 486 319 388 363 431 z m 668 792 b 569 890 668 847 625 890 b 471 792 514 890 471 847 b 569 693 471 736 514 693 b 668 792 625 693 668 736 z m 668 486 b 569 585 668 542 625 585 b 471 486 514 585 471 542 b 569 388 471 431 514 388 b 668 486 625 388 668 431 z m 668 181 b 569 279 668 236 625 279 b 471 181 514 279 471 236 b 569 82 471 125 514 82 b 668 181 625 82 668 125 z m 363 -125 b 264 -26 363 -69 319 -26 b 165 -125 208 -26 165 -69 b 264 -224 165 -181 208 -224 b 363 -125 319 -224 363 -181 z "},"⣻":{"ha":833,"x_min":0,"x_max":0,"o":"m 363 792 b 264 890 363 847 319 890 b 165 792 208 890 165 847 b 264 693 165 736 208 693 b 363 792 319 693 363 736 z m 363 486 b 264 585 363 542 319 585 b 165 486 208 585 165 542 b 264 388 165 431 208 388 b 363 486 319 388 363 431 z m 668 792 b 569 890 668 847 625 890 b 471 792 514 890 471 847 b 569 693 471 736 514 693 b 668 792 625 693 668 736 z m 668 486 b 569 585 668 542 625 585 b 471 486 514 585 471 542 b 569 388 471 431 514 388 b 668 486 625 388 668 431 z m 668 181 b 569 279 668 236 625 279 b 471 181 514 279 471 236 b 569 82 471 125 514 82 b 668 181 625 82 668 125 z m 363 -125 b 264 -26 363 -69 319 -26 b 165 -125 208 -26 165 -69 b 264 -224 165 -181 208 -224 b 363 -125 319 -224 363 -181 z m 668 -125 b 569 -26 668 -69 625 -26 b 471 -125 514 -26 471 -69 b 569 -224 471 -181 514 -224 b 668 -125 625 -224 668 -181 z "},"⢻":{"ha":833,"x_min":0,"x_max":0,"o":"m 363 792 b 264 890 363 847 319 890 b 165 792 208 890 165 847 b 264 693 165 736 208 693 b 363 792 319 693 363 736 z m 363 486 b 264 585 363 542 319 585 b 165 486 208 585 165 542 b 264 388 165 431 208 388 b 363 486 319 388 363 431 z m 668 792 b 569 890 668 847 625 890 b 471 792 514 890 471 847 b 569 693 471 736 514 693 b 668 792 625 693 668 736 z m 668 486 b 569 585 668 542 625 585 b 471 486 514 585 471 542 b 569 388 471 431 514 388 b 668 486 625 388 668 431 z m 668 181 b 569 279 668 236 625 279 b 471 181 514 279 471 236 b 569 82 471 125 514 82 b 668 181 625 82 668 125 z m 668 -125 b 569 -26 668 -69 625 -26 b 471 -125 514 -26 471 -69 b 569 -224 471 -181 514 -224 b 668 -125 625 -224 668 -181 z "},"⡛":{"ha":833,"x_min":0,"x_max":0,"o":"m 363 792 b 264 890 363 847 319 890 b 165 792 208 890 165 847 b 264 693 165 736 208 693 b 363 792 319 693 363 736 z m 363 486 b 264 585 363 542 319 585 b 165 486 208 585 165 542 b 264 388 165 431 208 388 b 363 486 319 388 363 431 z m 668 792 b 569 890 668 847 625 890 b 471 792 514 890 471 847 b 569 693 471 736 514 693 b 668 792 625 693 668 736 z m 668 486 b 569 585 668 542 625 585 b 471 486 514 585 471 542 b 569 388 471 431 514 388 b 668 486 625 388 668 431 z m 363 -125 b 264 -26 363 -69 319 -26 b 165 -125 208 -26 165 -69 b 264 -224 165 -181 208 -224 b 363 -125 319 -224 363 -181 z "},"⣛":{"ha":833,"x_min":0,"x_max":0,"o":"m 363 792 b 264 890 363 847 319 890 b 165 792 208 890 165 847 b 264 693 165 736 208 693 b 363 792 319 693 363 736 z m 363 486 b 264 585 363 542 319 585 b 165 486 208 585 165 542 b 264 388 165 431 208 388 b 363 486 319 388 363 431 z m 668 792 b 569 890 668 847 625 890 b 471 792 514 890 471 847 b 569 693 471 736 514 693 b 668 792 625 693 668 736 z m 668 486 b 569 585 668 542 625 585 b 471 486 514 585 471 542 b 569 388 471 431 514 388 b 668 486 625 388 668 431 z m 363 -125 b 264 -26 363 -69 319 -26 b 165 -125 208 -26 165 -69 b 264 -224 165 -181 208 -224 b 363 -125 319 -224 363 -181 z m 668 -125 b 569 -26 668 -69 625 -26 b 471 -125 514 -26 471 -69 b 569 -224 471 -181 514 -224 b 668 -125 625 -224 668 -181 z "},"⢛":{"ha":833,"x_min":0,"x_max":0,"o":"m 363 792 b 264 890 363 847 319 890 b 165 792 208 890 165 847 b 264 693 165 736 208 693 b 363 792 319 693 363 736 z m 363 486 b 264 585 363 542 319 585 b 165 486 208 585 165 542 b 264 388 165 431 208 388 b 363 486 319 388 363 431 z m 668 792 b 569 890 668 847 625 890 b 471 792 514 890 471 847 b 569 693 471 736 514 693 b 668 792 625 693 668 736 z m 668 486 b 569 585 668 542 625 585 b 471 486 514 585 471 542 b 569 388 471 431 514 388 b 668 486 625 388 668 431 z m 668 -125 b 569 -26 668 -69 625 -26 b 471 -125 514 -26 471 -69 b 569 -224 471 -181 514 -224 b 668 -125 625 -224 668 -181 z "},"⠫":{"ha":833,"x_min":0,"x_max":0,"o":"m 363 792 b 264 890 363 847 319 890 b 165 792 208 890 165 847 b 264 693 165 736 208 693 b 363 792 319 693 363 736 z m 363 486 b 264 585 363 542 319 585 b 165 486 208 585 165 542 b 264 388 165 431 208 388 b 363 486 319 388 363 431 z m 668 792 b 569 890 668 847 625 890 b 471 792 514 890 471 847 b 569 693 471 736 514 693 b 668 792 625 693 668 736 z m 668 181 b 569 279 668 236 625 279 b 471 181 514 279 471 236 b 569 82 471 125 514 82 b 668 181 625 82 668 125 z "},"⡫":{"ha":833,"x_min":0,"x_max":0,"o":"m 363 792 b 264 890 363 847 319 890 b 165 792 208 890 165 847 b 264 693 165 736 208 693 b 363 792 319 693 363 736 z m 363 486 b 264 585 363 542 319 585 b 165 486 208 585 165 542 b 264 388 165 431 208 388 b 363 486 319 388 363 431 z m 668 792 b 569 890 668 847 625 890 b 471 792 514 890 471 847 b 569 693 471 736 514 693 b 668 792 625 693 668 736 z m 668 181 b 569 279 668 236 625 279 b 471 181 514 279 471 236 b 569 82 471 125 514 82 b 668 181 625 82 668 125 z m 363 -125 b 264 -26 363 -69 319 -26 b 165 -125 208 -26 165 -69 b 264 -224 165 -181 208 -224 b 363 -125 319 -224 363 -181 z "},"⣫":{"ha":833,"x_min":0,"x_max":0,"o":"m 363 792 b 264 890 363 847 319 890 b 165 792 208 890 165 847 b 264 693 165 736 208 693 b 363 792 319 693 363 736 z m 363 486 b 264 585 363 542 319 585 b 165 486 208 585 165 542 b 264 388 165 431 208 388 b 363 486 319 388 363 431 z m 668 792 b 569 890 668 847 625 890 b 471 792 514 890 471 847 b 569 693 471 736 514 693 b 668 792 625 693 668 736 z m 668 181 b 569 279 668 236 625 279 b 471 181 514 279 471 236 b 569 82 471 125 514 82 b 668 181 625 82 668 125 z m 363 -125 b 264 -26 363 -69 319 -26 b 165 -125 208 -26 165 -69 b 264 -224 165 -181 208 -224 b 363 -125 319 -224 363 -181 z m 668 -125 b 569 -26 668 -69 625 -26 b 471 -125 514 -26 471 -69 b 569 -224 471 -181 514 -224 b 668 -125 625 -224 668 -181 z "},"⢫":{"ha":833,"x_min":0,"x_max":0,"o":"m 363 792 b 264 890 363 847 319 890 b 165 792 208 890 165 847 b 264 693 165 736 208 693 b 363 792 319 693 363 736 z m 363 486 b 264 585 363 542 319 585 b 165 486 208 585 165 542 b 264 388 165 431 208 388 b 363 486 319 388 363 431 z m 668 792 b 569 890 668 847 625 890 b 471 792 514 890 471 847 b 569 693 471 736 514 693 b 668 792 625 693 668 736 z m 668 181 b 569 279 668 236 625 279 b 471 181 514 279 471 236 b 569 82 471 125 514 82 b 668 181 625 82 668 125 z m 668 -125 b 569 -26 668 -69 625 -26 b 471 -125 514 -26 471 -69 b 569 -224 471 -181 514 -224 b 668 -125 625 -224 668 -181 z "},"⡋":{"ha":833,"x_min":0,"x_max":0,"o":"m 363 792 b 264 890 363 847 319 890 b 165 792 208 890 165 847 b 264 693 165 736 208 693 b 363 792 319 693 363 736 z m 363 486 b 264 585 363 542 319 585 b 165 486 208 585 165 542 b 264 388 165 431 208 388 b 363 486 319 388 363 431 z m 668 792 b 569 890 668 847 625 890 b 471 792 514 890 471 847 b 569 693 471 736 514 693 b 668 792 625 693 668 736 z m 363 -125 b 264 -26 363 -69 319 -26 b 165 -125 208 -26 165 -69 b 264 -224 165 -181 208 -224 b 363 -125 319 -224 363 -181 z "},"⣋":{"ha":833,"x_min":0,"x_max":0,"o":"m 363 792 b 264 890 363 847 319 890 b 165 792 208 890 165 847 b 264 693 165 736 208 693 b 363 792 319 693 363 736 z m 363 486 b 264 585 363 542 319 585 b 165 486 208 585 165 542 b 264 388 165 431 208 388 b 363 486 319 388 363 431 z m 668 792 b 569 890 668 847 625 890 b 471 792 514 890 471 847 b 569 693 471 736 514 693 b 668 792 625 693 668 736 z m 363 -125 b 264 -26 363 -69 319 -26 b 165 -125 208 -26 165 -69 b 264 -224 165 -181 208 -224 b 363 -125 319 -224 363 -181 z m 668 -125 b 569 -26 668 -69 625 -26 b 471 -125 514 -26 471 -69 b 569 -224 471 -181 514 -224 b 668 -125 625 -224 668 -181 z "},"⢋":{"ha":833,"x_min":0,"x_max":0,"o":"m 363 792 b 264 890 363 847 319 890 b 165 792 208 890 165 847 b 264 693 165 736 208 693 b 363 792 319 693 363 736 z m 363 486 b 264 585 363 542 319 585 b 165 486 208 585 165 542 b 264 388 165 431 208 388 b 363 486 319 388 363 431 z m 668 792 b 569 890 668 847 625 890 b 471 792 514 890 471 847 b 569 693 471 736 514 693 b 668 792 625 693 668 736 z m 668 -125 b 569 -26 668 -69 625 -26 b 471 -125 514 -26 471 -69 b 569 -224 471 -181 514 -224 b 668 -125 625 -224 668 -181 z "},"⠓":{"ha":833,"x_min":0,"x_max":0,"o":"m 363 792 b 264 890 363 847 319 890 b 165 792 208 890 165 847 b 264 693 165 736 208 693 b 363 792 319 693 363 736 z m 363 486 b 264 585 363 542 319 585 b 165 486 208 585 165 542 b 264 388 165 431 208 388 b 363 486 319 388 363 431 z m 668 486 b 569 585 668 542 625 585 b 471 486 514 585 471 542 b 569 388 471 431 514 388 b 668 486 625 388 668 431 z "},"⠳":{"ha":833,"x_min":0,"x_max":0,"o":"m 363 792 b 264 890 363 847 319 890 b 165 792 208 890 165 847 b 264 693 165 736 208 693 b 363 792 319 693 363 736 z m 363 486 b 264 585 363 542 319 585 b 165 486 208 585 165 542 b 264 388 165 431 208 388 b 363 486 319 388 363 431 z m 668 486 b 569 585 668 542 625 585 b 471 486 514 585 471 542 b 569 388 471 431 514 388 b 668 486 625 388 668 431 z m 668 181 b 569 279 668 236 625 279 b 471 181 514 279 471 236 b 569 82 471 125 514 82 b 668 181 625 82 668 125 z "},"⡳":{"ha":833,"x_min":0,"x_max":0,"o":"m 363 792 b 264 890 363 847 319 890 b 165 792 208 890 165 847 b 264 693 165 736 208 693 b 363 792 319 693 363 736 z m 363 486 b 264 585 363 542 319 585 b 165 486 208 585 165 542 b 264 388 165 431 208 388 b 363 486 319 388 363 431 z m 668 486 b 569 585 668 542 625 585 b 471 486 514 585 471 542 b 569 388 471 431 514 388 b 668 486 625 388 668 431 z m 668 181 b 569 279 668 236 625 279 b 471 181 514 279 471 236 b 569 82 471 125 514 82 b 668 181 625 82 668 125 z m 363 -125 b 264 -26 363 -69 319 -26 b 165 -125 208 -26 165 -69 b 264 -224 165 -181 208 -224 b 363 -125 319 -224 363 -181 z "},"⣳":{"ha":833,"x_min":0,"x_max":0,"o":"m 363 792 b 264 890 363 847 319 890 b 165 792 208 890 165 847 b 264 693 165 736 208 693 b 363 792 319 693 363 736 z m 363 486 b 264 585 363 542 319 585 b 165 486 208 585 165 542 b 264 388 165 431 208 388 b 363 486 319 388 363 431 z m 668 486 b 569 585 668 542 625 585 b 471 486 514 585 471 542 b 569 388 471 431 514 388 b 668 486 625 388 668 431 z m 668 181 b 569 279 668 236 625 279 b 471 181 514 279 471 236 b 569 82 471 125 514 82 b 668 181 625 82 668 125 z m 363 -125 b 264 -26 363 -69 319 -26 b 165 -125 208 -26 165 -69 b 264 -224 165 -181 208 -224 b 363 -125 319 -224 363 -181 z m 668 -125 b 569 -26 668 -69 625 -26 b 471 -125 514 -26 471 -69 b 569 -224 471 -181 514 -224 b 668 -125 625 -224 668 -181 z "},"⢳":{"ha":833,"x_min":0,"x_max":0,"o":"m 363 792 b 264 890 363 847 319 890 b 165 792 208 890 165 847 b 264 693 165 736 208 693 b 363 792 319 693 363 736 z m 363 486 b 264 585 363 542 319 585 b 165 486 208 585 165 542 b 264 388 165 431 208 388 b 363 486 319 388 363 431 z m 668 486 b 569 585 668 542 625 585 b 471 486 514 585 471 542 b 569 388 471 431 514 388 b 668 486 625 388 668 431 z m 668 181 b 569 279 668 236 625 279 b 471 181 514 279 471 236 b 569 82 471 125 514 82 b 668 181 625 82 668 125 z m 668 -125 b 569 -26 668 -69 625 -26 b 471 -125 514 -26 471 -69 b 569 -224 471 -181 514 -224 b 668 -125 625 -224 668 -181 z "},"⡓":{"ha":833,"x_min":0,"x_max":0,"o":"m 363 792 b 264 890 363 847 319 890 b 165 792 208 890 165 847 b 264 693 165 736 208 693 b 363 792 319 693 363 736 z m 363 486 b 264 585 363 542 319 585 b 165 486 208 585 165 542 b 264 388 165 431 208 388 b 363 486 319 388 363 431 z m 668 486 b 569 585 668 542 625 585 b 471 486 514 585 471 542 b 569 388 471 431 514 388 b 668 486 625 388 668 431 z m 363 -125 b 264 -26 363 -69 319 -26 b 165 -125 208 -26 165 -69 b 264 -224 165 -181 208 -224 b 363 -125 319 -224 363 -181 z "},"⣓":{"ha":833,"x_min":0,"x_max":0,"o":"m 363 792 b 264 890 363 847 319 890 b 165 792 208 890 165 847 b 264 693 165 736 208 693 b 363 792 319 693 363 736 z m 363 486 b 264 585 363 542 319 585 b 165 486 208 585 165 542 b 264 388 165 431 208 388 b 363 486 319 388 363 431 z m 668 486 b 569 585 668 542 625 585 b 471 486 514 585 471 542 b 569 388 471 431 514 388 b 668 486 625 388 668 431 z m 363 -125 b 264 -26 363 -69 319 -26 b 165 -125 208 -26 165 -69 b 264 -224 165 -181 208 -224 b 363 -125 319 -224 363 -181 z m 668 -125 b 569 -26 668 -69 625 -26 b 471 -125 514 -26 471 -69 b 569 -224 471 -181 514 -224 b 668 -125 625 -224 668 -181 z "},"⢓":{"ha":833,"x_min":0,"x_max":0,"o":"m 363 792 b 264 890 363 847 319 890 b 165 792 208 890 165 847 b 264 693 165 736 208 693 b 363 792 319 693 363 736 z m 363 486 b 264 585 363 542 319 585 b 165 486 208 585 165 542 b 264 388 165 431 208 388 b 363 486 319 388 363 431 z m 668 486 b 569 585 668 542 625 585 b 471 486 514 585 471 542 b 569 388 471 431 514 388 b 668 486 625 388 668 431 z m 668 -125 b 569 -26 668 -69 625 -26 b 471 -125 514 -26 471 -69 b 569 -224 471 -181 514 -224 b 668 -125 625 -224 668 -181 z "},"⠣":{"ha":833,"x_min":0,"x_max":0,"o":"m 363 792 b 264 890 363 847 319 890 b 165 792 208 890 165 847 b 264 693 165 736 208 693 b 363 792 319 693 363 736 z m 363 486 b 264 585 363 542 319 585 b 165 486 208 585 165 542 b 264 388 165 431 208 388 b 363 486 319 388 363 431 z m 668 181 b 569 279 668 236 625 279 b 471 181 514 279 471 236 b 569 82 471 125 514 82 b 668 181 625 82 668 125 z "},"⡣":{"ha":833,"x_min":0,"x_max":0,"o":"m 363 792 b 264 890 363 847 319 890 b 165 792 208 890 165 847 b 264 693 165 736 208 693 b 363 792 319 693 363 736 z m 363 486 b 264 585 363 542 319 585 b 165 486 208 585 165 542 b 264 388 165 431 208 388 b 363 486 319 388 363 431 z m 668 181 b 569 279 668 236 625 279 b 471 181 514 279 471 236 b 569 82 471 125 514 82 b 668 181 625 82 668 125 z m 363 -125 b 264 -26 363 -69 319 -26 b 165 -125 208 -26 165 -69 b 264 -224 165 -181 208 -224 b 363 -125 319 -224 363 -181 z "},"⣣":{"ha":833,"x_min":0,"x_max":0,"o":"m 363 792 b 264 890 363 847 319 890 b 165 792 208 890 165 847 b 264 693 165 736 208 693 b 363 792 319 693 363 736 z m 363 486 b 264 585 363 542 319 585 b 165 486 208 585 165 542 b 264 388 165 431 208 388 b 363 486 319 388 363 431 z m 668 181 b 569 279 668 236 625 279 b 471 181 514 279 471 236 b 569 82 471 125 514 82 b 668 181 625 82 668 125 z m 363 -125 b 264 -26 363 -69 319 -26 b 165 -125 208 -26 165 -69 b 264 -224 165 -181 208 -224 b 363 -125 319 -224 363 -181 z m 668 -125 b 569 -26 668 -69 625 -26 b 471 -125 514 -26 471 -69 b 569 -224 471 -181 514 -224 b 668 -125 625 -224 668 -181 z "},"⢣":{"ha":833,"x_min":0,"x_max":0,"o":"m 363 792 b 264 890 363 847 319 890 b 165 792 208 890 165 847 b 264 693 165 736 208 693 b 363 792 319 693 363 736 z m 363 486 b 264 585 363 542 319 585 b 165 486 208 585 165 542 b 264 388 165 431 208 388 b 363 486 319 388 363 431 z m 668 181 b 569 279 668 236 625 279 b 471 181 514 279 471 236 b 569 82 471 125 514 82 b 668 181 625 82 668 125 z m 668 -125 b 569 -26 668 -69 625 -26 b 471 -125 514 -26 471 -69 b 569 -224 471 -181 514 -224 b 668 -125 625 -224 668 -181 z "},"⡃":{"ha":833,"x_min":0,"x_max":0,"o":"m 363 792 b 264 890 363 847 319 890 b 165 792 208 890 165 847 b 264 693 165 736 208 693 b 363 792 319 693 363 736 z m 363 486 b 264 585 363 542 319 585 b 165 486 208 585 165 542 b 264 388 165 431 208 388 b 363 486 319 388 363 431 z m 363 -125 b 264 -26 363 -69 319 -26 b 165 -125 208 -26 165 -69 b 264 -224 165 -181 208 -224 b 363 -125 319 -224 363 -181 z "},"⣃":{"ha":833,"x_min":0,"x_max":0,"o":"m 363 792 b 264 890 363 847 319 890 b 165 792 208 890 165 847 b 264 693 165 736 208 693 b 363 792 319 693 363 736 z m 363 486 b 264 585 363 542 319 585 b 165 486 208 585 165 542 b 264 388 165 431 208 388 b 363 486 319 388 363 431 z m 363 -125 b 264 -26 363 -69 319 -26 b 165 -125 208 -26 165 -69 b 264 -224 165 -181 208 -224 b 363 -125 319 -224 363 -181 z m 668 -125 b 569 -26 668 -69 625 -26 b 471 -125 514 -26 471 -69 b 569 -224 471 -181 514 -224 b 668 -125 625 -224 668 -181 z "},"⢃":{"ha":833,"x_min":0,"x_max":0,"o":"m 363 792 b 264 890 363 847 319 890 b 165 792 208 890 165 847 b 264 693 165 736 208 693 b 363 792 319 693 363 736 z m 363 486 b 264 585 363 542 319 585 b 165 486 208 585 165 542 b 264 388 165 431 208 388 b 363 486 319 388 363 431 z m 668 -125 b 569 -26 668 -69 625 -26 b 471 -125 514 -26 471 -69 b 569 -224 471 -181 514 -224 b 668 -125 625 -224 668 -181 z "},"⠅":{"ha":833,"x_min":0,"x_max":0,"o":"m 363 792 b 264 890 363 847 319 890 b 165 792 208 890 165 847 b 264 693 165 736 208 693 b 363 792 319 693 363 736 z m 363 181 b 264 279 363 236 319 279 b 165 181 208 279 165 236 b 264 82 165 125 208 82 b 363 181 319 82 363 125 z "},"⠍":{"ha":833,"x_min":0,"x_max":0,"o":"m 363 792 b 264 890 363 847 319 890 b 165 792 208 890 165 847 b 264 693 165 736 208 693 b 363 792 319 693 363 736 z m 363 181 b 264 279 363 236 319 279 b 165 181 208 279 165 236 b 264 82 165 125 208 82 b 363 181 319 82 363 125 z m 668 792 b 569 890 668 847 625 890 b 471 792 514 890 471 847 b 569 693 471 736 514 693 b 668 792 625 693 668 736 z "},"⠝":{"ha":833,"x_min":0,"x_max":0,"o":"m 363 792 b 264 890 363 847 319 890 b 165 792 208 890 165 847 b 264 693 165 736 208 693 b 363 792 319 693 363 736 z m 363 181 b 264 279 363 236 319 279 b 165 181 208 279 165 236 b 264 82 165 125 208 82 b 363 181 319 82 363 125 z m 668 792 b 569 890 668 847 625 890 b 471 792 514 890 471 847 b 569 693 471 736 514 693 b 668 792 625 693 668 736 z m 668 486 b 569 585 668 542 625 585 b 471 486 514 585 471 542 b 569 388 471 431 514 388 b 668 486 625 388 668 431 z "},"⠽":{"ha":833,"x_min":0,"x_max":0,"o":"m 363 792 b 264 890 363 847 319 890 b 165 792 208 890 165 847 b 264 693 165 736 208 693 b 363 792 319 693 363 736 z m 363 181 b 264 279 363 236 319 279 b 165 181 208 279 165 236 b 264 82 165 125 208 82 b 363 181 319 82 363 125 z m 668 792 b 569 890 668 847 625 890 b 471 792 514 890 471 847 b 569 693 471 736 514 693 b 668 792 625 693 668 736 z m 668 486 b 569 585 668 542 625 585 b 471 486 514 585 471 542 b 569 388 471 431 514 388 b 668 486 625 388 668 431 z m 668 181 b 569 279 668 236 625 279 b 471 181 514 279 471 236 b 569 82 471 125 514 82 b 668 181 625 82 668 125 z "},"⡽":{"ha":833,"x_min":0,"x_max":0,"o":"m 363 792 b 264 890 363 847 319 890 b 165 792 208 890 165 847 b 264 693 165 736 208 693 b 363 792 319 693 363 736 z m 363 181 b 264 279 363 236 319 279 b 165 181 208 279 165 236 b 264 82 165 125 208 82 b 363 181 319 82 363 125 z m 668 792 b 569 890 668 847 625 890 b 471 792 514 890 471 847 b 569 693 471 736 514 693 b 668 792 625 693 668 736 z m 668 486 b 569 585 668 542 625 585 b 471 486 514 585 471 542 b 569 388 471 431 514 388 b 668 486 625 388 668 431 z m 668 181 b 569 279 668 236 625 279 b 471 181 514 279 471 236 b 569 82 471 125 514 82 b 668 181 625 82 668 125 z m 363 -125 b 264 -26 363 -69 319 -26 b 165 -125 208 -26 165 -69 b 264 -224 165 -181 208 -224 b 363 -125 319 -224 363 -181 z "},"⣽":{"ha":833,"x_min":0,"x_max":0,"o":"m 363 792 b 264 890 363 847 319 890 b 165 792 208 890 165 847 b 264 693 165 736 208 693 b 363 792 319 693 363 736 z m 363 181 b 264 279 363 236 319 279 b 165 181 208 279 165 236 b 264 82 165 125 208 82 b 363 181 319 82 363 125 z m 668 792 b 569 890 668 847 625 890 b 471 792 514 890 471 847 b 569 693 471 736 514 693 b 668 792 625 693 668 736 z m 668 486 b 569 585 668 542 625 585 b 471 486 514 585 471 542 b 569 388 471 431 514 388 b 668 486 625 388 668 431 z m 668 181 b 569 279 668 236 625 279 b 471 181 514 279 471 236 b 569 82 471 125 514 82 b 668 181 625 82 668 125 z m 363 -125 b 264 -26 363 -69 319 -26 b 165 -125 208 -26 165 -69 b 264 -224 165 -181 208 -224 b 363 -125 319 -224 363 -181 z m 668 -125 b 569 -26 668 -69 625 -26 b 471 -125 514 -26 471 -69 b 569 -224 471 -181 514 -224 b 668 -125 625 -224 668 -181 z "},"⢽":{"ha":833,"x_min":0,"x_max":0,"o":"m 363 792 b 264 890 363 847 319 890 b 165 792 208 890 165 847 b 264 693 165 736 208 693 b 363 792 319 693 363 736 z m 363 181 b 264 279 363 236 319 279 b 165 181 208 279 165 236 b 264 82 165 125 208 82 b 363 181 319 82 363 125 z m 668 792 b 569 890 668 847 625 890 b 471 792 514 890 471 847 b 569 693 471 736 514 693 b 668 792 625 693 668 736 z m 668 486 b 569 585 668 542 625 585 b 471 486 514 585 471 542 b 569 388 471 431 514 388 b 668 486 625 388 668 431 z m 668 181 b 569 279 668 236 625 279 b 471 181 514 279 471 236 b 569 82 471 125 514 82 b 668 181 625 82 668 125 z m 668 -125 b 569 -26 668 -69 625 -26 b 471 -125 514 -26 471 -69 b 569 -224 471 -181 514 -224 b 668 -125 625 -224 668 -181 z "},"⡝":{"ha":833,"x_min":0,"x_max":0,"o":"m 363 792 b 264 890 363 847 319 890 b 165 792 208 890 165 847 b 264 693 165 736 208 693 b 363 792 319 693 363 736 z m 363 181 b 264 279 363 236 319 279 b 165 181 208 279 165 236 b 264 82 165 125 208 82 b 363 181 319 82 363 125 z m 668 792 b 569 890 668 847 625 890 b 471 792 514 890 471 847 b 569 693 471 736 514 693 b 668 792 625 693 668 736 z m 668 486 b 569 585 668 542 625 585 b 471 486 514 585 471 542 b 569 388 471 431 514 388 b 668 486 625 388 668 431 z m 363 -125 b 264 -26 363 -69 319 -26 b 165 -125 208 -26 165 -69 b 264 -224 165 -181 208 -224 b 363 -125 319 -224 363 -181 z "},"⣝":{"ha":833,"x_min":0,"x_max":0,"o":"m 363 792 b 264 890 363 847 319 890 b 165 792 208 890 165 847 b 264 693 165 736 208 693 b 363 792 319 693 363 736 z m 363 181 b 264 279 363 236 319 279 b 165 181 208 279 165 236 b 264 82 165 125 208 82 b 363 181 319 82 363 125 z m 668 792 b 569 890 668 847 625 890 b 471 792 514 890 471 847 b 569 693 471 736 514 693 b 668 792 625 693 668 736 z m 668 486 b 569 585 668 542 625 585 b 471 486 514 585 471 542 b 569 388 471 431 514 388 b 668 486 625 388 668 431 z m 363 -125 b 264 -26 363 -69 319 -26 b 165 -125 208 -26 165 -69 b 264 -224 165 -181 208 -224 b 363 -125 319 -224 363 -181 z m 668 -125 b 569 -26 668 -69 625 -26 b 471 -125 514 -26 471 -69 b 569 -224 471 -181 514 -224 b 668 -125 625 -224 668 -181 z "},"⢝":{"ha":833,"x_min":0,"x_max":0,"o":"m 363 792 b 264 890 363 847 319 890 b 165 792 208 890 165 847 b 264 693 165 736 208 693 b 363 792 319 693 363 736 z m 363 181 b 264 279 363 236 319 279 b 165 181 208 279 165 236 b 264 82 165 125 208 82 b 363 181 319 82 363 125 z m 668 792 b 569 890 668 847 625 890 b 471 792 514 890 471 847 b 569 693 471 736 514 693 b 668 792 625 693 668 736 z m 668 486 b 569 585 668 542 625 585 b 471 486 514 585 471 542 b 569 388 471 431 514 388 b 668 486 625 388 668 431 z m 668 -125 b 569 -26 668 -69 625 -26 b 471 -125 514 -26 471 -69 b 569 -224 471 -181 514 -224 b 668 -125 625 -224 668 -181 z "},"⠭":{"ha":833,"x_min":0,"x_max":0,"o":"m 363 792 b 264 890 363 847 319 890 b 165 792 208 890 165 847 b 264 693 165 736 208 693 b 363 792 319 693 363 736 z m 363 181 b 264 279 363 236 319 279 b 165 181 208 279 165 236 b 264 82 165 125 208 82 b 363 181 319 82 363 125 z m 668 792 b 569 890 668 847 625 890 b 471 792 514 890 471 847 b 569 693 471 736 514 693 b 668 792 625 693 668 736 z m 668 181 b 569 279 668 236 625 279 b 471 181 514 279 471 236 b 569 82 471 125 514 82 b 668 181 625 82 668 125 z "},"⡭":{"ha":833,"x_min":0,"x_max":0,"o":"m 363 792 b 264 890 363 847 319 890 b 165 792 208 890 165 847 b 264 693 165 736 208 693 b 363 792 319 693 363 736 z m 363 181 b 264 279 363 236 319 279 b 165 181 208 279 165 236 b 264 82 165 125 208 82 b 363 181 319 82 363 125 z m 668 792 b 569 890 668 847 625 890 b 471 792 514 890 471 847 b 569 693 471 736 514 693 b 668 792 625 693 668 736 z m 668 181 b 569 279 668 236 625 279 b 471 181 514 279 471 236 b 569 82 471 125 514 82 b 668 181 625 82 668 125 z m 363 -125 b 264 -26 363 -69 319 -26 b 165 -125 208 -26 165 -69 b 264 -224 165 -181 208 -224 b 363 -125 319 -224 363 -181 z "},"⣭":{"ha":833,"x_min":0,"x_max":0,"o":"m 363 792 b 264 890 363 847 319 890 b 165 792 208 890 165 847 b 264 693 165 736 208 693 b 363 792 319 693 363 736 z m 363 181 b 264 279 363 236 319 279 b 165 181 208 279 165 236 b 264 82 165 125 208 82 b 363 181 319 82 363 125 z m 668 792 b 569 890 668 847 625 890 b 471 792 514 890 471 847 b 569 693 471 736 514 693 b 668 792 625 693 668 736 z m 668 181 b 569 279 668 236 625 279 b 471 181 514 279 471 236 b 569 82 471 125 514 82 b 668 181 625 82 668 125 z m 363 -125 b 264 -26 363 -69 319 -26 b 165 -125 208 -26 165 -69 b 264 -224 165 -181 208 -224 b 363 -125 319 -224 363 -181 z m 668 -125 b 569 -26 668 -69 625 -26 b 471 -125 514 -26 471 -69 b 569 -224 471 -181 514 -224 b 668 -125 625 -224 668 -181 z "},"⢭":{"ha":833,"x_min":0,"x_max":0,"o":"m 363 792 b 264 890 363 847 319 890 b 165 792 208 890 165 847 b 264 693 165 736 208 693 b 363 792 319 693 363 736 z m 363 181 b 264 279 363 236 319 279 b 165 181 208 279 165 236 b 264 82 165 125 208 82 b 363 181 319 82 363 125 z m 668 792 b 569 890 668 847 625 890 b 471 792 514 890 471 847 b 569 693 471 736 514 693 b 668 792 625 693 668 736 z m 668 181 b 569 279 668 236 625 279 b 471 181 514 279 471 236 b 569 82 471 125 514 82 b 668 181 625 82 668 125 z m 668 -125 b 569 -26 668 -69 625 -26 b 471 -125 514 -26 471 -69 b 569 -224 471 -181 514 -224 b 668 -125 625 -224 668 -181 z "},"⡍":{"ha":833,"x_min":0,"x_max":0,"o":"m 363 792 b 264 890 363 847 319 890 b 165 792 208 890 165 847 b 264 693 165 736 208 693 b 363 792 319 693 363 736 z m 363 181 b 264 279 363 236 319 279 b 165 181 208 279 165 236 b 264 82 165 125 208 82 b 363 181 319 82 363 125 z m 668 792 b 569 890 668 847 625 890 b 471 792 514 890 471 847 b 569 693 471 736 514 693 b 668 792 625 693 668 736 z m 363 -125 b 264 -26 363 -69 319 -26 b 165 -125 208 -26 165 -69 b 264 -224 165 -181 208 -224 b 363 -125 319 -224 363 -181 z "},"⣍":{"ha":833,"x_min":0,"x_max":0,"o":"m 363 792 b 264 890 363 847 319 890 b 165 792 208 890 165 847 b 264 693 165 736 208 693 b 363 792 319 693 363 736 z m 363 181 b 264 279 363 236 319 279 b 165 181 208 279 165 236 b 264 82 165 125 208 82 b 363 181 319 82 363 125 z m 668 792 b 569 890 668 847 625 890 b 471 792 514 890 471 847 b 569 693 471 736 514 693 b 668 792 625 693 668 736 z m 363 -125 b 264 -26 363 -69 319 -26 b 165 -125 208 -26 165 -69 b 264 -224 165 -181 208 -224 b 363 -125 319 -224 363 -181 z m 668 -125 b 569 -26 668 -69 625 -26 b 471 -125 514 -26 471 -69 b 569 -224 471 -181 514 -224 b 668 -125 625 -224 668 -181 z "},"⢍":{"ha":833,"x_min":0,"x_max":0,"o":"m 363 792 b 264 890 363 847 319 890 b 165 792 208 890 165 847 b 264 693 165 736 208 693 b 363 792 319 693 363 736 z m 363 181 b 264 279 363 236 319 279 b 165 181 208 279 165 236 b 264 82 165 125 208 82 b 363 181 319 82 363 125 z m 668 792 b 569 890 668 847 625 890 b 471 792 514 890 471 847 b 569 693 471 736 514 693 b 668 792 625 693 668 736 z m 668 -125 b 569 -26 668 -69 625 -26 b 471 -125 514 -26 471 -69 b 569 -224 471 -181 514 -224 b 668 -125 625 -224 668 -181 z "},"⠕":{"ha":833,"x_min":0,"x_max":0,"o":"m 363 792 b 264 890 363 847 319 890 b 165 792 208 890 165 847 b 264 693 165 736 208 693 b 363 792 319 693 363 736 z m 363 181 b 264 279 363 236 319 279 b 165 181 208 279 165 236 b 264 82 165 125 208 82 b 363 181 319 82 363 125 z m 668 486 b 569 585 668 542 625 585 b 471 486 514 585 471 542 b 569 388 471 431 514 388 b 668 486 625 388 668 431 z "},"⠵":{"ha":833,"x_min":0,"x_max":0,"o":"m 363 792 b 264 890 363 847 319 890 b 165 792 208 890 165 847 b 264 693 165 736 208 693 b 363 792 319 693 363 736 z m 363 181 b 264 279 363 236 319 279 b 165 181 208 279 165 236 b 264 82 165 125 208 82 b 363 181 319 82 363 125 z m 668 486 b 569 585 668 542 625 585 b 471 486 514 585 471 542 b 569 388 471 431 514 388 b 668 486 625 388 668 431 z m 668 181 b 569 279 668 236 625 279 b 471 181 514 279 471 236 b 569 82 471 125 514 82 b 668 181 625 82 668 125 z "},"⡵":{"ha":833,"x_min":0,"x_max":0,"o":"m 363 792 b 264 890 363 847 319 890 b 165 792 208 890 165 847 b 264 693 165 736 208 693 b 363 792 319 693 363 736 z m 363 181 b 264 279 363 236 319 279 b 165 181 208 279 165 236 b 264 82 165 125 208 82 b 363 181 319 82 363 125 z m 668 486 b 569 585 668 542 625 585 b 471 486 514 585 471 542 b 569 388 471 431 514 388 b 668 486 625 388 668 431 z m 668 181 b 569 279 668 236 625 279 b 471 181 514 279 471 236 b 569 82 471 125 514 82 b 668 181 625 82 668 125 z m 363 -125 b 264 -26 363 -69 319 -26 b 165 -125 208 -26 165 -69 b 264 -224 165 -181 208 -224 b 363 -125 319 -224 363 -181 z "},"⣵":{"ha":833,"x_min":0,"x_max":0,"o":"m 363 792 b 264 890 363 847 319 890 b 165 792 208 890 165 847 b 264 693 165 736 208 693 b 363 792 319 693 363 736 z m 363 181 b 264 279 363 236 319 279 b 165 181 208 279 165 236 b 264 82 165 125 208 82 b 363 181 319 82 363 125 z m 668 486 b 569 585 668 542 625 585 b 471 486 514 585 471 542 b 569 388 471 431 514 388 b 668 486 625 388 668 431 z m 668 181 b 569 279 668 236 625 279 b 471 181 514 279 471 236 b 569 82 471 125 514 82 b 668 181 625 82 668 125 z m 363 -125 b 264 -26 363 -69 319 -26 b 165 -125 208 -26 165 -69 b 264 -224 165 -181 208 -224 b 363 -125 319 -224 363 -181 z m 668 -125 b 569 -26 668 -69 625 -26 b 471 -125 514 -26 471 -69 b 569 -224 471 -181 514 -224 b 668 -125 625 -224 668 -181 z "},"⢵":{"ha":833,"x_min":0,"x_max":0,"o":"m 363 792 b 264 890 363 847 319 890 b 165 792 208 890 165 847 b 264 693 165 736 208 693 b 363 792 319 693 363 736 z m 363 181 b 264 279 363 236 319 279 b 165 181 208 279 165 236 b 264 82 165 125 208 82 b 363 181 319 82 363 125 z m 668 486 b 569 585 668 542 625 585 b 471 486 514 585 471 542 b 569 388 471 431 514 388 b 668 486 625 388 668 431 z m 668 181 b 569 279 668 236 625 279 b 471 181 514 279 471 236 b 569 82 471 125 514 82 b 668 181 625 82 668 125 z m 668 -125 b 569 -26 668 -69 625 -26 b 471 -125 514 -26 471 -69 b 569 -224 471 -181 514 -224 b 668 -125 625 -224 668 -181 z "},"⡕":{"ha":833,"x_min":0,"x_max":0,"o":"m 363 792 b 264 890 363 847 319 890 b 165 792 208 890 165 847 b 264 693 165 736 208 693 b 363 792 319 693 363 736 z m 363 181 b 264 279 363 236 319 279 b 165 181 208 279 165 236 b 264 82 165 125 208 82 b 363 181 319 82 363 125 z m 668 486 b 569 585 668 542 625 585 b 471 486 514 585 471 542 b 569 388 471 431 514 388 b 668 486 625 388 668 431 z m 363 -125 b 264 -26 363 -69 319 -26 b 165 -125 208 -26 165 -69 b 264 -224 165 -181 208 -224 b 363 -125 319 -224 363 -181 z "},"⣕":{"ha":833,"x_min":0,"x_max":0,"o":"m 363 792 b 264 890 363 847 319 890 b 165 792 208 890 165 847 b 264 693 165 736 208 693 b 363 792 319 693 363 736 z m 363 181 b 264 279 363 236 319 279 b 165 181 208 279 165 236 b 264 82 165 125 208 82 b 363 181 319 82 363 125 z m 668 486 b 569 585 668 542 625 585 b 471 486 514 585 471 542 b 569 388 471 431 514 388 b 668 486 625 388 668 431 z m 363 -125 b 264 -26 363 -69 319 -26 b 165 -125 208 -26 165 -69 b 264 -224 165 -181 208 -224 b 363 -125 319 -224 363 -181 z m 668 -125 b 569 -26 668 -69 625 -26 b 471 -125 514 -26 471 -69 b 569 -224 471 -181 514 -224 b 668 -125 625 -224 668 -181 z "},"⢕":{"ha":833,"x_min":0,"x_max":0,"o":"m 363 792 b 264 890 363 847 319 890 b 165 792 208 890 165 847 b 264 693 165 736 208 693 b 363 792 319 693 363 736 z m 363 181 b 264 279 363 236 319 279 b 165 181 208 279 165 236 b 264 82 165 125 208 82 b 363 181 319 82 363 125 z m 668 486 b 569 585 668 542 625 585 b 471 486 514 585 471 542 b 569 388 471 431 514 388 b 668 486 625 388 668 431 z m 668 -125 b 569 -26 668 -69 625 -26 b 471 -125 514 -26 471 -69 b 569 -224 471 -181 514 -224 b 668 -125 625 -224 668 -181 z "},"⠥":{"ha":833,"x_min":0,"x_max":0,"o":"m 363 792 b 264 890 363 847 319 890 b 165 792 208 890 165 847 b 264 693 165 736 208 693 b 363 792 319 693 363 736 z m 363 181 b 264 279 363 236 319 279 b 165 181 208 279 165 236 b 264 82 165 125 208 82 b 363 181 319 82 363 125 z m 668 181 b 569 279 668 236 625 279 b 471 181 514 279 471 236 b 569 82 471 125 514 82 b 668 181 625 82 668 125 z "},"⡥":{"ha":833,"x_min":0,"x_max":0,"o":"m 363 792 b 264 890 363 847 319 890 b 165 792 208 890 165 847 b 264 693 165 736 208 693 b 363 792 319 693 363 736 z m 363 181 b 264 279 363 236 319 279 b 165 181 208 279 165 236 b 264 82 165 125 208 82 b 363 181 319 82 363 125 z m 668 181 b 569 279 668 236 625 279 b 471 181 514 279 471 236 b 569 82 471 125 514 82 b 668 181 625 82 668 125 z m 363 -125 b 264 -26 363 -69 319 -26 b 165 -125 208 -26 165 -69 b 264 -224 165 -181 208 -224 b 363 -125 319 -224 363 -181 z "},"⣥":{"ha":833,"x_min":0,"x_max":0,"o":"m 363 792 b 264 890 363 847 319 890 b 165 792 208 890 165 847 b 264 693 165 736 208 693 b 363 792 319 693 363 736 z m 363 181 b 264 279 363 236 319 279 b 165 181 208 279 165 236 b 264 82 165 125 208 82 b 363 181 319 82 363 125 z m 668 181 b 569 279 668 236 625 279 b 471 181 514 279 471 236 b 569 82 471 125 514 82 b 668 181 625 82 668 125 z m 363 -125 b 264 -26 363 -69 319 -26 b 165 -125 208 -26 165 -69 b 264 -224 165 -181 208 -224 b 363 -125 319 -224 363 -181 z m 668 -125 b 569 -26 668 -69 625 -26 b 471 -125 514 -26 471 -69 b 569 -224 471 -181 514 -224 b 668 -125 625 -224 668 -181 z "},"⢥":{"ha":833,"x_min":0,"x_max":0,"o":"m 363 792 b 264 890 363 847 319 890 b 165 792 208 890 165 847 b 264 693 165 736 208 693 b 363 792 319 693 363 736 z m 363 181 b 264 279 363 236 319 279 b 165 181 208 279 165 236 b 264 82 165 125 208 82 b 363 181 319 82 363 125 z m 668 181 b 569 279 668 236 625 279 b 471 181 514 279 471 236 b 569 82 471 125 514 82 b 668 181 625 82 668 125 z m 668 -125 b 569 -26 668 -69 625 -26 b 471 -125 514 -26 471 -69 b 569 -224 471 -181 514 -224 b 668 -125 625 -224 668 -181 z "},"⡅":{"ha":833,"x_min":0,"x_max":0,"o":"m 363 792 b 264 890 363 847 319 890 b 165 792 208 890 165 847 b 264 693 165 736 208 693 b 363 792 319 693 363 736 z m 363 181 b 264 279 363 236 319 279 b 165 181 208 279 165 236 b 264 82 165 125 208 82 b 363 181 319 82 363 125 z m 363 -125 b 264 -26 363 -69 319 -26 b 165 -125 208 -26 165 -69 b 264 -224 165 -181 208 -224 b 363 -125 319 -224 363 -181 z "},"⣅":{"ha":833,"x_min":0,"x_max":0,"o":"m 363 792 b 264 890 363 847 319 890 b 165 792 208 890 165 847 b 264 693 165 736 208 693 b 363 792 319 693 363 736 z m 363 181 b 264 279 363 236 319 279 b 165 181 208 279 165 236 b 264 82 165 125 208 82 b 363 181 319 82 363 125 z m 363 -125 b 264 -26 363 -69 319 -26 b 165 -125 208 -26 165 -69 b 264 -224 165 -181 208 -224 b 363 -125 319 -224 363 -181 z m 668 -125 b 569 -26 668 -69 625 -26 b 471 -125 514 -26 471 -69 b 569 -224 471 -181 514 -224 b 668 -125 625 -224 668 -181 z "},"⢅":{"ha":833,"x_min":0,"x_max":0,"o":"m 363 792 b 264 890 363 847 319 890 b 165 792 208 890 165 847 b 264 693 165 736 208 693 b 363 792 319 693 363 736 z m 363 181 b 264 279 363 236 319 279 b 165 181 208 279 165 236 b 264 82 165 125 208 82 b 363 181 319 82 363 125 z m 668 -125 b 569 -26 668 -69 625 -26 b 471 -125 514 -26 471 -69 b 569 -224 471 -181 514 -224 b 668 -125 625 -224 668 -181 z "},"⠉":{"ha":833,"x_min":0,"x_max":0,"o":"m 363 792 b 264 890 363 847 319 890 b 165 792 208 890 165 847 b 264 693 165 736 208 693 b 363 792 319 693 363 736 z m 668 792 b 569 890 668 847 625 890 b 471 792 514 890 471 847 b 569 693 471 736 514 693 b 668 792 625 693 668 736 z "},"⠙":{"ha":833,"x_min":0,"x_max":0,"o":"m 363 792 b 264 890 363 847 319 890 b 165 792 208 890 165 847 b 264 693 165 736 208 693 b 363 792 319 693 363 736 z m 668 792 b 569 890 668 847 625 890 b 471 792 514 890 471 847 b 569 693 471 736 514 693 b 668 792 625 693 668 736 z m 668 486 b 569 585 668 542 625 585 b 471 486 514 585 471 542 b 569 388 471 431 514 388 b 668 486 625 388 668 431 z "},"⠹":{"ha":833,"x_min":0,"x_max":0,"o":"m 363 792 b 264 890 363 847 319 890 b 165 792 208 890 165 847 b 264 693 165 736 208 693 b 363 792 319 693 363 736 z m 668 792 b 569 890 668 847 625 890 b 471 792 514 890 471 847 b 569 693 471 736 514 693 b 668 792 625 693 668 736 z m 668 486 b 569 585 668 542 625 585 b 471 486 514 585 471 542 b 569 388 471 431 514 388 b 668 486 625 388 668 431 z m 668 181 b 569 279 668 236 625 279 b 471 181 514 279 471 236 b 569 82 471 125 514 82 b 668 181 625 82 668 125 z "},"⡹":{"ha":833,"x_min":0,"x_max":0,"o":"m 363 792 b 264 890 363 847 319 890 b 165 792 208 890 165 847 b 264 693 165 736 208 693 b 363 792 319 693 363 736 z m 668 792 b 569 890 668 847 625 890 b 471 792 514 890 471 847 b 569 693 471 736 514 693 b 668 792 625 693 668 736 z m 668 486 b 569 585 668 542 625 585 b 471 486 514 585 471 542 b 569 388 471 431 514 388 b 668 486 625 388 668 431 z m 668 181 b 569 279 668 236 625 279 b 471 181 514 279 471 236 b 569 82 471 125 514 82 b 668 181 625 82 668 125 z m 363 -125 b 264 -26 363 -69 319 -26 b 165 -125 208 -26 165 -69 b 264 -224 165 -181 208 -224 b 363 -125 319 -224 363 -181 z "},"⣹":{"ha":833,"x_min":0,"x_max":0,"o":"m 363 792 b 264 890 363 847 319 890 b 165 792 208 890 165 847 b 264 693 165 736 208 693 b 363 792 319 693 363 736 z m 668 792 b 569 890 668 847 625 890 b 471 792 514 890 471 847 b 569 693 471 736 514 693 b 668 792 625 693 668 736 z m 668 486 b 569 585 668 542 625 585 b 471 486 514 585 471 542 b 569 388 471 431 514 388 b 668 486 625 388 668 431 z m 668 181 b 569 279 668 236 625 279 b 471 181 514 279 471 236 b 569 82 471 125 514 82 b 668 181 625 82 668 125 z m 363 -125 b 264 -26 363 -69 319 -26 b 165 -125 208 -26 165 -69 b 264 -224 165 -181 208 -224 b 363 -125 319 -224 363 -181 z m 668 -125 b 569 -26 668 -69 625 -26 b 471 -125 514 -26 471 -69 b 569 -224 471 -181 514 -224 b 668 -125 625 -224 668 -181 z "},"⢹":{"ha":833,"x_min":0,"x_max":0,"o":"m 363 792 b 264 890 363 847 319 890 b 165 792 208 890 165 847 b 264 693 165 736 208 693 b 363 792 319 693 363 736 z m 668 792 b 569 890 668 847 625 890 b 471 792 514 890 471 847 b 569 693 471 736 514 693 b 668 792 625 693 668 736 z m 668 486 b 569 585 668 542 625 585 b 471 486 514 585 471 542 b 569 388 471 431 514 388 b 668 486 625 388 668 431 z m 668 181 b 569 279 668 236 625 279 b 471 181 514 279 471 236 b 569 82 471 125 514 82 b 668 181 625 82 668 125 z m 668 -125 b 569 -26 668 -69 625 -26 b 471 -125 514 -26 471 -69 b 569 -224 471 -181 514 -224 b 668 -125 625 -224 668 -181 z "},"⡙":{"ha":833,"x_min":0,"x_max":0,"o":"m 363 792 b 264 890 363 847 319 890 b 165 792 208 890 165 847 b 264 693 165 736 208 693 b 363 792 319 693 363 736 z m 668 792 b 569 890 668 847 625 890 b 471 792 514 890 471 847 b 569 693 471 736 514 693 b 668 792 625 693 668 736 z m 668 486 b 569 585 668 542 625 585 b 471 486 514 585 471 542 b 569 388 471 431 514 388 b 668 486 625 388 668 431 z m 363 -125 b 264 -26 363 -69 319 -26 b 165 -125 208 -26 165 -69 b 264 -224 165 -181 208 -224 b 363 -125 319 -224 363 -181 z "},"⣙":{"ha":833,"x_min":0,"x_max":0,"o":"m 363 792 b 264 890 363 847 319 890 b 165 792 208 890 165 847 b 264 693 165 736 208 693 b 363 792 319 693 363 736 z m 668 792 b 569 890 668 847 625 890 b 471 792 514 890 471 847 b 569 693 471 736 514 693 b 668 792 625 693 668 736 z m 668 486 b 569 585 668 542 625 585 b 471 486 514 585 471 542 b 569 388 471 431 514 388 b 668 486 625 388 668 431 z m 363 -125 b 264 -26 363 -69 319 -26 b 165 -125 208 -26 165 -69 b 264 -224 165 -181 208 -224 b 363 -125 319 -224 363 -181 z m 668 -125 b 569 -26 668 -69 625 -26 b 471 -125 514 -26 471 -69 b 569 -224 471 -181 514 -224 b 668 -125 625 -224 668 -181 z "},"⢙":{"ha":833,"x_min":0,"x_max":0,"o":"m 363 792 b 264 890 363 847 319 890 b 165 792 208 890 165 847 b 264 693 165 736 208 693 b 363 792 319 693 363 736 z m 668 792 b 569 890 668 847 625 890 b 471 792 514 890 471 847 b 569 693 471 736 514 693 b 668 792 625 693 668 736 z m 668 486 b 569 585 668 542 625 585 b 471 486 514 585 471 542 b 569 388 471 431 514 388 b 668 486 625 388 668 431 z m 668 -125 b 569 -26 668 -69 625 -26 b 471 -125 514 -26 471 -69 b 569 -224 471 -181 514 -224 b 668 -125 625 -224 668 -181 z "},"⠩":{"ha":833,"x_min":0,"x_max":0,"o":"m 363 792 b 264 890 363 847 319 890 b 165 792 208 890 165 847 b 264 693 165 736 208 693 b 363 792 319 693 363 736 z m 668 792 b 569 890 668 847 625 890 b 471 792 514 890 471 847 b 569 693 471 736 514 693 b 668 792 625 693 668 736 z m 668 181 b 569 279 668 236 625 279 b 471 181 514 279 471 236 b 569 82 471 125 514 82 b 668 181 625 82 668 125 z "},"⡩":{"ha":833,"x_min":0,"x_max":0,"o":"m 363 792 b 264 890 363 847 319 890 b 165 792 208 890 165 847 b 264 693 165 736 208 693 b 363 792 319 693 363 736 z m 668 792 b 569 890 668 847 625 890 b 471 792 514 890 471 847 b 569 693 471 736 514 693 b 668 792 625 693 668 736 z m 668 181 b 569 279 668 236 625 279 b 471 181 514 279 471 236 b 569 82 471 125 514 82 b 668 181 625 82 668 125 z m 363 -125 b 264 -26 363 -69 319 -26 b 165 -125 208 -26 165 -69 b 264 -224 165 -181 208 -224 b 363 -125 319 -224 363 -181 z "},"⣩":{"ha":833,"x_min":0,"x_max":0,"o":"m 363 792 b 264 890 363 847 319 890 b 165 792 208 890 165 847 b 264 693 165 736 208 693 b 363 792 319 693 363 736 z m 668 792 b 569 890 668 847 625 890 b 471 792 514 890 471 847 b 569 693 471 736 514 693 b 668 792 625 693 668 736 z m 668 181 b 569 279 668 236 625 279 b 471 181 514 279 471 236 b 569 82 471 125 514 82 b 668 181 625 82 668 125 z m 363 -125 b 264 -26 363 -69 319 -26 b 165 -125 208 -26 165 -69 b 264 -224 165 -181 208 -224 b 363 -125 319 -224 363 -181 z m 668 -125 b 569 -26 668 -69 625 -26 b 471 -125 514 -26 471 -69 b 569 -224 471 -181 514 -224 b 668 -125 625 -224 668 -181 z "},"⢩":{"ha":833,"x_min":0,"x_max":0,"o":"m 363 792 b 264 890 363 847 319 890 b 165 792 208 890 165 847 b 264 693 165 736 208 693 b 363 792 319 693 363 736 z m 668 792 b 569 890 668 847 625 890 b 471 792 514 890 471 847 b 569 693 471 736 514 693 b 668 792 625 693 668 736 z m 668 181 b 569 279 668 236 625 279 b 471 181 514 279 471 236 b 569 82 471 125 514 82 b 668 181 625 82 668 125 z m 668 -125 b 569 -26 668 -69 625 -26 b 471 -125 514 -26 471 -69 b 569 -224 471 -181 514 -224 b 668 -125 625 -224 668 -181 z "},"⡉":{"ha":833,"x_min":0,"x_max":0,"o":"m 363 792 b 264 890 363 847 319 890 b 165 792 208 890 165 847 b 264 693 165 736 208 693 b 363 792 319 693 363 736 z m 668 792 b 569 890 668 847 625 890 b 471 792 514 890 471 847 b 569 693 471 736 514 693 b 668 792 625 693 668 736 z m 363 -125 b 264 -26 363 -69 319 -26 b 165 -125 208 -26 165 -69 b 264 -224 165 -181 208 -224 b 363 -125 319 -224 363 -181 z "},"⣉":{"ha":833,"x_min":0,"x_max":0,"o":"m 363 792 b 264 890 363 847 319 890 b 165 792 208 890 165 847 b 264 693 165 736 208 693 b 363 792 319 693 363 736 z m 668 792 b 569 890 668 847 625 890 b 471 792 514 890 471 847 b 569 693 471 736 514 693 b 668 792 625 693 668 736 z m 363 -125 b 264 -26 363 -69 319 -26 b 165 -125 208 -26 165 -69 b 264 -224 165 -181 208 -224 b 363 -125 319 -224 363 -181 z m 668 -125 b 569 -26 668 -69 625 -26 b 471 -125 514 -26 471 -69 b 569 -224 471 -181 514 -224 b 668 -125 625 -224 668 -181 z "},"⢉":{"ha":833,"x_min":0,"x_max":0,"o":"m 363 792 b 264 890 363 847 319 890 b 165 792 208 890 165 847 b 264 693 165 736 208 693 b 363 792 319 693 363 736 z m 668 792 b 569 890 668 847 625 890 b 471 792 514 890 471 847 b 569 693 471 736 514 693 b 668 792 625 693 668 736 z m 668 -125 b 569 -26 668 -69 625 -26 b 471 -125 514 -26 471 -69 b 569 -224 471 -181 514 -224 b 668 -125 625 -224 668 -181 z "},"⠑":{"ha":833,"x_min":0,"x_max":0,"o":"m 363 792 b 264 890 363 847 319 890 b 165 792 208 890 165 847 b 264 693 165 736 208 693 b 363 792 319 693 363 736 z m 668 486 b 569 585 668 542 625 585 b 471 486 514 585 471 542 b 569 388 471 431 514 388 b 668 486 625 388 668 431 z "},"⠱":{"ha":833,"x_min":0,"x_max":0,"o":"m 363 792 b 264 890 363 847 319 890 b 165 792 208 890 165 847 b 264 693 165 736 208 693 b 363 792 319 693 363 736 z m 668 486 b 569 585 668 542 625 585 b 471 486 514 585 471 542 b 569 388 471 431 514 388 b 668 486 625 388 668 431 z m 668 181 b 569 279 668 236 625 279 b 471 181 514 279 471 236 b 569 82 471 125 514 82 b 668 181 625 82 668 125 z "},"⡱":{"ha":833,"x_min":0,"x_max":0,"o":"m 363 792 b 264 890 363 847 319 890 b 165 792 208 890 165 847 b 264 693 165 736 208 693 b 363 792 319 693 363 736 z m 668 486 b 569 585 668 542 625 585 b 471 486 514 585 471 542 b 569 388 471 431 514 388 b 668 486 625 388 668 431 z m 668 181 b 569 279 668 236 625 279 b 471 181 514 279 471 236 b 569 82 471 125 514 82 b 668 181 625 82 668 125 z m 363 -125 b 264 -26 363 -69 319 -26 b 165 -125 208 -26 165 -69 b 264 -224 165 -181 208 -224 b 363 -125 319 -224 363 -181 z "},"⣱":{"ha":833,"x_min":0,"x_max":0,"o":"m 363 792 b 264 890 363 847 319 890 b 165 792 208 890 165 847 b 264 693 165 736 208 693 b 363 792 319 693 363 736 z m 668 486 b 569 585 668 542 625 585 b 471 486 514 585 471 542 b 569 388 471 431 514 388 b 668 486 625 388 668 431 z m 668 181 b 569 279 668 236 625 279 b 471 181 514 279 471 236 b 569 82 471 125 514 82 b 668 181 625 82 668 125 z m 363 -125 b 264 -26 363 -69 319 -26 b 165 -125 208 -26 165 -69 b 264 -224 165 -181 208 -224 b 363 -125 319 -224 363 -181 z m 668 -125 b 569 -26 668 -69 625 -26 b 471 -125 514 -26 471 -69 b 569 -224 471 -181 514 -224 b 668 -125 625 -224 668 -181 z "},"⢱":{"ha":833,"x_min":0,"x_max":0,"o":"m 363 792 b 264 890 363 847 319 890 b 165 792 208 890 165 847 b 264 693 165 736 208 693 b 363 792 319 693 363 736 z m 668 486 b 569 585 668 542 625 585 b 471 486 514 585 471 542 b 569 388 471 431 514 388 b 668 486 625 388 668 431 z m 668 181 b 569 279 668 236 625 279 b 471 181 514 279 471 236 b 569 82 471 125 514 82 b 668 181 625 82 668 125 z m 668 -125 b 569 -26 668 -69 625 -26 b 471 -125 514 -26 471 -69 b 569 -224 471 -181 514 -224 b 668 -125 625 -224 668 -181 z "},"⡑":{"ha":833,"x_min":0,"x_max":0,"o":"m 363 792 b 264 890 363 847 319 890 b 165 792 208 890 165 847 b 264 693 165 736 208 693 b 363 792 319 693 363 736 z m 668 486 b 569 585 668 542 625 585 b 471 486 514 585 471 542 b 569 388 471 431 514 388 b 668 486 625 388 668 431 z m 363 -125 b 264 -26 363 -69 319 -26 b 165 -125 208 -26 165 -69 b 264 -224 165 -181 208 -224 b 363 -125 319 -224 363 -181 z "},"⣑":{"ha":833,"x_min":0,"x_max":0,"o":"m 363 792 b 264 890 363 847 319 890 b 165 792 208 890 165 847 b 264 693 165 736 208 693 b 363 792 319 693 363 736 z m 668 486 b 569 585 668 542 625 585 b 471 486 514 585 471 542 b 569 388 471 431 514 388 b 668 486 625 388 668 431 z m 363 -125 b 264 -26 363 -69 319 -26 b 165 -125 208 -26 165 -69 b 264 -224 165 -181 208 -224 b 363 -125 319 -224 363 -181 z m 668 -125 b 569 -26 668 -69 625 -26 b 471 -125 514 -26 471 -69 b 569 -224 471 -181 514 -224 b 668 -125 625 -224 668 -181 z "},"⢑":{"ha":833,"x_min":0,"x_max":0,"o":"m 363 792 b 264 890 363 847 319 890 b 165 792 208 890 165 847 b 264 693 165 736 208 693 b 363 792 319 693 363 736 z m 668 486 b 569 585 668 542 625 585 b 471 486 514 585 471 542 b 569 388 471 431 514 388 b 668 486 625 388 668 431 z m 668 -125 b 569 -26 668 -69 625 -26 b 471 -125 514 -26 471 -69 b 569 -224 471 -181 514 -224 b 668 -125 625 -224 668 -181 z "},"⠡":{"ha":833,"x_min":0,"x_max":0,"o":"m 363 792 b 264 890 363 847 319 890 b 165 792 208 890 165 847 b 264 693 165 736 208 693 b 363 792 319 693 363 736 z m 668 181 b 569 279 668 236 625 279 b 471 181 514 279 471 236 b 569 82 471 125 514 82 b 668 181 625 82 668 125 z "},"⡡":{"ha":833,"x_min":0,"x_max":0,"o":"m 363 792 b 264 890 363 847 319 890 b 165 792 208 890 165 847 b 264 693 165 736 208 693 b 363 792 319 693 363 736 z m 668 181 b 569 279 668 236 625 279 b 471 181 514 279 471 236 b 569 82 471 125 514 82 b 668 181 625 82 668 125 z m 363 -125 b 264 -26 363 -69 319 -26 b 165 -125 208 -26 165 -69 b 264 -224 165 -181 208 -224 b 363 -125 319 -224 363 -181 z "},"⣡":{"ha":833,"x_min":0,"x_max":0,"o":"m 363 792 b 264 890 363 847 319 890 b 165 792 208 890 165 847 b 264 693 165 736 208 693 b 363 792 319 693 363 736 z m 668 181 b 569 279 668 236 625 279 b 471 181 514 279 471 236 b 569 82 471 125 514 82 b 668 181 625 82 668 125 z m 363 -125 b 264 -26 363 -69 319 -26 b 165 -125 208 -26 165 -69 b 264 -224 165 -181 208 -224 b 363 -125 319 -224 363 -181 z m 668 -125 b 569 -26 668 -69 625 -26 b 471 -125 514 -26 471 -69 b 569 -224 471 -181 514 -224 b 668 -125 625 -224 668 -181 z "},"⢡":{"ha":833,"x_min":0,"x_max":0,"o":"m 363 792 b 264 890 363 847 319 890 b 165 792 208 890 165 847 b 264 693 165 736 208 693 b 363 792 319 693 363 736 z m 668 181 b 569 279 668 236 625 279 b 471 181 514 279 471 236 b 569 82 471 125 514 82 b 668 181 625 82 668 125 z m 668 -125 b 569 -26 668 -69 625 -26 b 471 -125 514 -26 471 -69 b 569 -224 471 -181 514 -224 b 668 -125 625 -224 668 -181 z "},"⡁":{"ha":833,"x_min":0,"x_max":0,"o":"m 363 792 b 264 890 363 847 319 890 b 165 792 208 890 165 847 b 264 693 165 736 208 693 b 363 792 319 693 363 736 z m 363 -125 b 264 -26 363 -69 319 -26 b 165 -125 208 -26 165 -69 b 264 -224 165 -181 208 -224 b 363 -125 319 -224 363 -181 z "},"⣁":{"ha":833,"x_min":0,"x_max":0,"o":"m 363 792 b 264 890 363 847 319 890 b 165 792 208 890 165 847 b 264 693 165 736 208 693 b 363 792 319 693 363 736 z m 363 -125 b 264 -26 363 -69 319 -26 b 165 -125 208 -26 165 -69 b 264 -224 165 -181 208 -224 b 363 -125 319 -224 363 -181 z m 668 -125 b 569 -26 668 -69 625 -26 b 471 -125 514 -26 471 -69 b 569 -224 471 -181 514 -224 b 668 -125 625 -224 668 -181 z "},"⢁":{"ha":833,"x_min":0,"x_max":0,"o":"m 363 792 b 264 890 363 847 319 890 b 165 792 208 890 165 847 b 264 693 165 736 208 693 b 363 792 319 693 363 736 z m 668 -125 b 569 -26 668 -69 625 -26 b 471 -125 514 -26 471 -69 b 569 -224 471 -181 514 -224 b 668 -125 625 -224 668 -181 z "},"⠂":{"ha":833,"x_min":0,"x_max":0,"o":"m 363 486 b 264 585 363 542 319 585 b 165 486 208 585 165 542 b 264 388 165 431 208 388 b 363 486 319 388 363 431 z "},"⠆":{"ha":833,"x_min":0,"x_max":0,"o":"m 363 486 b 264 585 363 542 319 585 b 165 486 208 585 165 542 b 264 388 165 431 208 388 b 363 486 319 388 363 431 z m 363 181 b 264 279 363 236 319 279 b 165 181 208 279 165 236 b 264 82 165 125 208 82 b 363 181 319 82 363 125 z "},"⠎":{"ha":833,"x_min":0,"x_max":0,"o":"m 363 486 b 264 585 363 542 319 585 b 165 486 208 585 165 542 b 264 388 165 431 208 388 b 363 486 319 388 363 431 z m 363 181 b 264 279 363 236 319 279 b 165 181 208 279 165 236 b 264 82 165 125 208 82 b 363 181 319 82 363 125 z m 668 792 b 569 890 668 847 625 890 b 471 792 514 890 471 847 b 569 693 471 736 514 693 b 668 792 625 693 668 736 z "},"⠞":{"ha":833,"x_min":0,"x_max":0,"o":"m 363 486 b 264 585 363 542 319 585 b 165 486 208 585 165 542 b 264 388 165 431 208 388 b 363 486 319 388 363 431 z m 363 181 b 264 279 363 236 319 279 b 165 181 208 279 165 236 b 264 82 165 125 208 82 b 363 181 319 82 363 125 z m 668 792 b 569 890 668 847 625 890 b 471 792 514 890 471 847 b 569 693 471 736 514 693 b 668 792 625 693 668 736 z m 668 486 b 569 585 668 542 625 585 b 471 486 514 585 471 542 b 569 388 471 431 514 388 b 668 486 625 388 668 431 z "},"⠾":{"ha":833,"x_min":0,"x_max":0,"o":"m 363 486 b 264 585 363 542 319 585 b 165 486 208 585 165 542 b 264 388 165 431 208 388 b 363 486 319 388 363 431 z m 363 181 b 264 279 363 236 319 279 b 165 181 208 279 165 236 b 264 82 165 125 208 82 b 363 181 319 82 363 125 z m 668 792 b 569 890 668 847 625 890 b 471 792 514 890 471 847 b 569 693 471 736 514 693 b 668 792 625 693 668 736 z m 668 486 b 569 585 668 542 625 585 b 471 486 514 585 471 542 b 569 388 471 431 514 388 b 668 486 625 388 668 431 z m 668 181 b 569 279 668 236 625 279 b 471 181 514 279 471 236 b 569 82 471 125 514 82 b 668 181 625 82 668 125 z "},"⡾":{"ha":833,"x_min":0,"x_max":0,"o":"m 363 486 b 264 585 363 542 319 585 b 165 486 208 585 165 542 b 264 388 165 431 208 388 b 363 486 319 388 363 431 z m 363 181 b 264 279 363 236 319 279 b 165 181 208 279 165 236 b 264 82 165 125 208 82 b 363 181 319 82 363 125 z m 668 792 b 569 890 668 847 625 890 b 471 792 514 890 471 847 b 569 693 471 736 514 693 b 668 792 625 693 668 736 z m 668 486 b 569 585 668 542 625 585 b 471 486 514 585 471 542 b 569 388 471 431 514 388 b 668 486 625 388 668 431 z m 668 181 b 569 279 668 236 625 279 b 471 181 514 279 471 236 b 569 82 471 125 514 82 b 668 181 625 82 668 125 z m 363 -125 b 264 -26 363 -69 319 -26 b 165 -125 208 -26 165 -69 b 264 -224 165 -181 208 -224 b 363 -125 319 -224 363 -181 z "},"⣾":{"ha":833,"x_min":0,"x_max":0,"o":"m 363 486 b 264 585 363 542 319 585 b 165 486 208 585 165 542 b 264 388 165 431 208 388 b 363 486 319 388 363 431 z m 363 181 b 264 279 363 236 319 279 b 165 181 208 279 165 236 b 264 82 165 125 208 82 b 363 181 319 82 363 125 z m 668 792 b 569 890 668 847 625 890 b 471 792 514 890 471 847 b 569 693 471 736 514 693 b 668 792 625 693 668 736 z m 668 486 b 569 585 668 542 625 585 b 471 486 514 585 471 542 b 569 388 471 431 514 388 b 668 486 625 388 668 431 z m 668 181 b 569 279 668 236 625 279 b 471 181 514 279 471 236 b 569 82 471 125 514 82 b 668 181 625 82 668 125 z m 363 -125 b 264 -26 363 -69 319 -26 b 165 -125 208 -26 165 -69 b 264 -224 165 -181 208 -224 b 363 -125 319 -224 363 -181 z m 668 -125 b 569 -26 668 -69 625 -26 b 471 -125 514 -26 471 -69 b 569 -224 471 -181 514 -224 b 668 -125 625 -224 668 -181 z "},"⢾":{"ha":833,"x_min":0,"x_max":0,"o":"m 363 486 b 264 585 363 542 319 585 b 165 486 208 585 165 542 b 264 388 165 431 208 388 b 363 486 319 388 363 431 z m 363 181 b 264 279 363 236 319 279 b 165 181 208 279 165 236 b 264 82 165 125 208 82 b 363 181 319 82 363 125 z m 668 792 b 569 890 668 847 625 890 b 471 792 514 890 471 847 b 569 693 471 736 514 693 b 668 792 625 693 668 736 z m 668 486 b 569 585 668 542 625 585 b 471 486 514 585 471 542 b 569 388 471 431 514 388 b 668 486 625 388 668 431 z m 668 181 b 569 279 668 236 625 279 b 471 181 514 279 471 236 b 569 82 471 125 514 82 b 668 181 625 82 668 125 z m 668 -125 b 569 -26 668 -69 625 -26 b 471 -125 514 -26 471 -69 b 569 -224 471 -181 514 -224 b 668 -125 625 -224 668 -181 z "},"⡞":{"ha":833,"x_min":0,"x_max":0,"o":"m 363 486 b 264 585 363 542 319 585 b 165 486 208 585 165 542 b 264 388 165 431 208 388 b 363 486 319 388 363 431 z m 363 181 b 264 279 363 236 319 279 b 165 181 208 279 165 236 b 264 82 165 125 208 82 b 363 181 319 82 363 125 z m 668 792 b 569 890 668 847 625 890 b 471 792 514 890 471 847 b 569 693 471 736 514 693 b 668 792 625 693 668 736 z m 668 486 b 569 585 668 542 625 585 b 471 486 514 585 471 542 b 569 388 471 431 514 388 b 668 486 625 388 668 431 z m 363 -125 b 264 -26 363 -69 319 -26 b 165 -125 208 -26 165 -69 b 264 -224 165 -181 208 -224 b 363 -125 319 -224 363 -181 z "},"⣞":{"ha":833,"x_min":0,"x_max":0,"o":"m 363 486 b 264 585 363 542 319 585 b 165 486 208 585 165 542 b 264 388 165 431 208 388 b 363 486 319 388 363 431 z m 363 181 b 264 279 363 236 319 279 b 165 181 208 279 165 236 b 264 82 165 125 208 82 b 363 181 319 82 363 125 z m 668 792 b 569 890 668 847 625 890 b 471 792 514 890 471 847 b 569 693 471 736 514 693 b 668 792 625 693 668 736 z m 668 486 b 569 585 668 542 625 585 b 471 486 514 585 471 542 b 569 388 471 431 514 388 b 668 486 625 388 668 431 z m 363 -125 b 264 -26 363 -69 319 -26 b 165 -125 208 -26 165 -69 b 264 -224 165 -181 208 -224 b 363 -125 319 -224 363 -181 z m 668 -125 b 569 -26 668 -69 625 -26 b 471 -125 514 -26 471 -69 b 569 -224 471 -181 514 -224 b 668 -125 625 -224 668 -181 z "},"⢞":{"ha":833,"x_min":0,"x_max":0,"o":"m 363 486 b 264 585 363 542 319 585 b 165 486 208 585 165 542 b 264 388 165 431 208 388 b 363 486 319 388 363 431 z m 363 181 b 264 279 363 236 319 279 b 165 181 208 279 165 236 b 264 82 165 125 208 82 b 363 181 319 82 363 125 z m 668 792 b 569 890 668 847 625 890 b 471 792 514 890 471 847 b 569 693 471 736 514 693 b 668 792 625 693 668 736 z m 668 486 b 569 585 668 542 625 585 b 471 486 514 585 471 542 b 569 388 471 431 514 388 b 668 486 625 388 668 431 z m 668 -125 b 569 -26 668 -69 625 -26 b 471 -125 514 -26 471 -69 b 569 -224 471 -181 514 -224 b 668 -125 625 -224 668 -181 z "},"⠮":{"ha":833,"x_min":0,"x_max":0,"o":"m 363 486 b 264 585 363 542 319 585 b 165 486 208 585 165 542 b 264 388 165 431 208 388 b 363 486 319 388 363 431 z m 363 181 b 264 279 363 236 319 279 b 165 181 208 279 165 236 b 264 82 165 125 208 82 b 363 181 319 82 363 125 z m 668 792 b 569 890 668 847 625 890 b 471 792 514 890 471 847 b 569 693 471 736 514 693 b 668 792 625 693 668 736 z m 668 181 b 569 279 668 236 625 279 b 471 181 514 279 471 236 b 569 82 471 125 514 82 b 668 181 625 82 668 125 z "},"⡮":{"ha":833,"x_min":0,"x_max":0,"o":"m 363 486 b 264 585 363 542 319 585 b 165 486 208 585 165 542 b 264 388 165 431 208 388 b 363 486 319 388 363 431 z m 363 181 b 264 279 363 236 319 279 b 165 181 208 279 165 236 b 264 82 165 125 208 82 b 363 181 319 82 363 125 z m 668 792 b 569 890 668 847 625 890 b 471 792 514 890 471 847 b 569 693 471 736 514 693 b 668 792 625 693 668 736 z m 668 181 b 569 279 668 236 625 279 b 471 181 514 279 471 236 b 569 82 471 125 514 82 b 668 181 625 82 668 125 z m 363 -125 b 264 -26 363 -69 319 -26 b 165 -125 208 -26 165 -69 b 264 -224 165 -181 208 -224 b 363 -125 319 -224 363 -181 z "},"⣮":{"ha":833,"x_min":0,"x_max":0,"o":"m 363 486 b 264 585 363 542 319 585 b 165 486 208 585 165 542 b 264 388 165 431 208 388 b 363 486 319 388 363 431 z m 363 181 b 264 279 363 236 319 279 b 165 181 208 279 165 236 b 264 82 165 125 208 82 b 363 181 319 82 363 125 z m 668 792 b 569 890 668 847 625 890 b 471 792 514 890 471 847 b 569 693 471 736 514 693 b 668 792 625 693 668 736 z m 668 181 b 569 279 668 236 625 279 b 471 181 514 279 471 236 b 569 82 471 125 514 82 b 668 181 625 82 668 125 z m 363 -125 b 264 -26 363 -69 319 -26 b 165 -125 208 -26 165 -69 b 264 -224 165 -181 208 -224 b 363 -125 319 -224 363 -181 z m 668 -125 b 569 -26 668 -69 625 -26 b 471 -125 514 -26 471 -69 b 569 -224 471 -181 514 -224 b 668 -125 625 -224 668 -181 z "},"⢮":{"ha":833,"x_min":0,"x_max":0,"o":"m 363 486 b 264 585 363 542 319 585 b 165 486 208 585 165 542 b 264 388 165 431 208 388 b 363 486 319 388 363 431 z m 363 181 b 264 279 363 236 319 279 b 165 181 208 279 165 236 b 264 82 165 125 208 82 b 363 181 319 82 363 125 z m 668 792 b 569 890 668 847 625 890 b 471 792 514 890 471 847 b 569 693 471 736 514 693 b 668 792 625 693 668 736 z m 668 181 b 569 279 668 236 625 279 b 471 181 514 279 471 236 b 569 82 471 125 514 82 b 668 181 625 82 668 125 z m 668 -125 b 569 -26 668 -69 625 -26 b 471 -125 514 -26 471 -69 b 569 -224 471 -181 514 -224 b 668 -125 625 -224 668 -181 z "},"⡎":{"ha":833,"x_min":0,"x_max":0,"o":"m 363 486 b 264 585 363 542 319 585 b 165 486 208 585 165 542 b 264 388 165 431 208 388 b 363 486 319 388 363 431 z m 363 181 b 264 279 363 236 319 279 b 165 181 208 279 165 236 b 264 82 165 125 208 82 b 363 181 319 82 363 125 z m 668 792 b 569 890 668 847 625 890 b 471 792 514 890 471 847 b 569 693 471 736 514 693 b 668 792 625 693 668 736 z m 363 -125 b 264 -26 363 -69 319 -26 b 165 -125 208 -26 165 -69 b 264 -224 165 -181 208 -224 b 363 -125 319 -224 363 -181 z "},"⣎":{"ha":833,"x_min":0,"x_max":0,"o":"m 363 486 b 264 585 363 542 319 585 b 165 486 208 585 165 542 b 264 388 165 431 208 388 b 363 486 319 388 363 431 z m 363 181 b 264 279 363 236 319 279 b 165 181 208 279 165 236 b 264 82 165 125 208 82 b 363 181 319 82 363 125 z m 668 792 b 569 890 668 847 625 890 b 471 792 514 890 471 847 b 569 693 471 736 514 693 b 668 792 625 693 668 736 z m 363 -125 b 264 -26 363 -69 319 -26 b 165 -125 208 -26 165 -69 b 264 -224 165 -181 208 -224 b 363 -125 319 -224 363 -181 z m 668 -125 b 569 -26 668 -69 625 -26 b 471 -125 514 -26 471 -69 b 569 -224 471 -181 514 -224 b 668 -125 625 -224 668 -181 z "},"⢎":{"ha":833,"x_min":0,"x_max":0,"o":"m 363 486 b 264 585 363 542 319 585 b 165 486 208 585 165 542 b 264 388 165 431 208 388 b 363 486 319 388 363 431 z m 363 181 b 264 279 363 236 319 279 b 165 181 208 279 165 236 b 264 82 165 125 208 82 b 363 181 319 82 363 125 z m 668 792 b 569 890 668 847 625 890 b 471 792 514 890 471 847 b 569 693 471 736 514 693 b 668 792 625 693 668 736 z m 668 -125 b 569 -26 668 -69 625 -26 b 471 -125 514 -26 471 -69 b 569 -224 471 -181 514 -224 b 668 -125 625 -224 668 -181 z "},"⠖":{"ha":833,"x_min":0,"x_max":0,"o":"m 363 486 b 264 585 363 542 319 585 b 165 486 208 585 165 542 b 264 388 165 431 208 388 b 363 486 319 388 363 431 z m 363 181 b 264 279 363 236 319 279 b 165 181 208 279 165 236 b 264 82 165 125 208 82 b 363 181 319 82 363 125 z m 668 486 b 569 585 668 542 625 585 b 471 486 514 585 471 542 b 569 388 471 431 514 388 b 668 486 625 388 668 431 z "},"⠶":{"ha":833,"x_min":0,"x_max":0,"o":"m 363 486 b 264 585 363 542 319 585 b 165 486 208 585 165 542 b 264 388 165 431 208 388 b 363 486 319 388 363 431 z m 363 181 b 264 279 363 236 319 279 b 165 181 208 279 165 236 b 264 82 165 125 208 82 b 363 181 319 82 363 125 z m 668 486 b 569 585 668 542 625 585 b 471 486 514 585 471 542 b 569 388 471 431 514 388 b 668 486 625 388 668 431 z m 668 181 b 569 279 668 236 625 279 b 471 181 514 279 471 236 b 569 82 471 125 514 82 b 668 181 625 82 668 125 z "},"⡶":{"ha":833,"x_min":0,"x_max":0,"o":"m 363 486 b 264 585 363 542 319 585 b 165 486 208 585 165 542 b 264 388 165 431 208 388 b 363 486 319 388 363 431 z m 363 181 b 264 279 363 236 319 279 b 165 181 208 279 165 236 b 264 82 165 125 208 82 b 363 181 319 82 363 125 z m 668 486 b 569 585 668 542 625 585 b 471 486 514 585 471 542 b 569 388 471 431 514 388 b 668 486 625 388 668 431 z m 668 181 b 569 279 668 236 625 279 b 471 181 514 279 471 236 b 569 82 471 125 514 82 b 668 181 625 82 668 125 z m 363 -125 b 264 -26 363 -69 319 -26 b 165 -125 208 -26 165 -69 b 264 -224 165 -181 208 -224 b 363 -125 319 -224 363 -181 z "},"⣶":{"ha":833,"x_min":0,"x_max":0,"o":"m 363 486 b 264 585 363 542 319 585 b 165 486 208 585 165 542 b 264 388 165 431 208 388 b 363 486 319 388 363 431 z m 363 181 b 264 279 363 236 319 279 b 165 181 208 279 165 236 b 264 82 165 125 208 82 b 363 181 319 82 363 125 z m 668 486 b 569 585 668 542 625 585 b 471 486 514 585 471 542 b 569 388 471 431 514 388 b 668 486 625 388 668 431 z m 668 181 b 569 279 668 236 625 279 b 471 181 514 279 471 236 b 569 82 471 125 514 82 b 668 181 625 82 668 125 z m 363 -125 b 264 -26 363 -69 319 -26 b 165 -125 208 -26 165 -69 b 264 -224 165 -181 208 -224 b 363 -125 319 -224 363 -181 z m 668 -125 b 569 -26 668 -69 625 -26 b 471 -125 514 -26 471 -69 b 569 -224 471 -181 514 -224 b 668 -125 625 -224 668 -181 z "},"⢶":{"ha":833,"x_min":0,"x_max":0,"o":"m 363 486 b 264 585 363 542 319 585 b 165 486 208 585 165 542 b 264 388 165 431 208 388 b 363 486 319 388 363 431 z m 363 181 b 264 279 363 236 319 279 b 165 181 208 279 165 236 b 264 82 165 125 208 82 b 363 181 319 82 363 125 z m 668 486 b 569 585 668 542 625 585 b 471 486 514 585 471 542 b 569 388 471 431 514 388 b 668 486 625 388 668 431 z m 668 181 b 569 279 668 236 625 279 b 471 181 514 279 471 236 b 569 82 471 125 514 82 b 668 181 625 82 668 125 z m 668 -125 b 569 -26 668 -69 625 -26 b 471 -125 514 -26 471 -69 b 569 -224 471 -181 514 -224 b 668 -125 625 -224 668 -181 z "},"⡖":{"ha":833,"x_min":0,"x_max":0,"o":"m 363 486 b 264 585 363 542 319 585 b 165 486 208 585 165 542 b 264 388 165 431 208 388 b 363 486 319 388 363 431 z m 363 181 b 264 279 363 236 319 279 b 165 181 208 279 165 236 b 264 82 165 125 208 82 b 363 181 319 82 363 125 z m 668 486 b 569 585 668 542 625 585 b 471 486 514 585 471 542 b 569 388 471 431 514 388 b 668 486 625 388 668 431 z m 363 -125 b 264 -26 363 -69 319 -26 b 165 -125 208 -26 165 -69 b 264 -224 165 -181 208 -224 b 363 -125 319 -224 363 -181 z "},"⣖":{"ha":833,"x_min":0,"x_max":0,"o":"m 363 486 b 264 585 363 542 319 585 b 165 486 208 585 165 542 b 264 388 165 431 208 388 b 363 486 319 388 363 431 z m 363 181 b 264 279 363 236 319 279 b 165 181 208 279 165 236 b 264 82 165 125 208 82 b 363 181 319 82 363 125 z m 668 486 b 569 585 668 542 625 585 b 471 486 514 585 471 542 b 569 388 471 431 514 388 b 668 486 625 388 668 431 z m 363 -125 b 264 -26 363 -69 319 -26 b 165 -125 208 -26 165 -69 b 264 -224 165 -181 208 -224 b 363 -125 319 -224 363 -181 z m 668 -125 b 569 -26 668 -69 625 -26 b 471 -125 514 -26 471 -69 b 569 -224 471 -181 514 -224 b 668 -125 625 -224 668 -181 z "},"⢖":{"ha":833,"x_min":0,"x_max":0,"o":"m 363 486 b 264 585 363 542 319 585 b 165 486 208 585 165 542 b 264 388 165 431 208 388 b 363 486 319 388 363 431 z m 363 181 b 264 279 363 236 319 279 b 165 181 208 279 165 236 b 264 82 165 125 208 82 b 363 181 319 82 363 125 z m 668 486 b 569 585 668 542 625 585 b 471 486 514 585 471 542 b 569 388 471 431 514 388 b 668 486 625 388 668 431 z m 668 -125 b 569 -26 668 -69 625 -26 b 471 -125 514 -26 471 -69 b 569 -224 471 -181 514 -224 b 668 -125 625 -224 668 -181 z "},"⠦":{"ha":833,"x_min":0,"x_max":0,"o":"m 363 486 b 264 585 363 542 319 585 b 165 486 208 585 165 542 b 264 388 165 431 208 388 b 363 486 319 388 363 431 z m 363 181 b 264 279 363 236 319 279 b 165 181 208 279 165 236 b 264 82 165 125 208 82 b 363 181 319 82 363 125 z m 668 181 b 569 279 668 236 625 279 b 471 181 514 279 471 236 b 569 82 471 125 514 82 b 668 181 625 82 668 125 z "},"⡦":{"ha":833,"x_min":0,"x_max":0,"o":"m 363 486 b 264 585 363 542 319 585 b 165 486 208 585 165 542 b 264 388 165 431 208 388 b 363 486 319 388 363 431 z m 363 181 b 264 279 363 236 319 279 b 165 181 208 279 165 236 b 264 82 165 125 208 82 b 363 181 319 82 363 125 z m 668 181 b 569 279 668 236 625 279 b 471 181 514 279 471 236 b 569 82 471 125 514 82 b 668 181 625 82 668 125 z m 363 -125 b 264 -26 363 -69 319 -26 b 165 -125 208 -26 165 -69 b 264 -224 165 -181 208 -224 b 363 -125 319 -224 363 -181 z "},"⣦":{"ha":833,"x_min":0,"x_max":0,"o":"m 363 486 b 264 585 363 542 319 585 b 165 486 208 585 165 542 b 264 388 165 431 208 388 b 363 486 319 388 363 431 z m 363 181 b 264 279 363 236 319 279 b 165 181 208 279 165 236 b 264 82 165 125 208 82 b 363 181 319 82 363 125 z m 668 181 b 569 279 668 236 625 279 b 471 181 514 279 471 236 b 569 82 471 125 514 82 b 668 181 625 82 668 125 z m 363 -125 b 264 -26 363 -69 319 -26 b 165 -125 208 -26 165 -69 b 264 -224 165 -181 208 -224 b 363 -125 319 -224 363 -181 z m 668 -125 b 569 -26 668 -69 625 -26 b 471 -125 514 -26 471 -69 b 569 -224 471 -181 514 -224 b 668 -125 625 -224 668 -181 z "},"⢦":{"ha":833,"x_min":0,"x_max":0,"o":"m 363 486 b 264 585 363 542 319 585 b 165 486 208 585 165 542 b 264 388 165 431 208 388 b 363 486 319 388 363 431 z m 363 181 b 264 279 363 236 319 279 b 165 181 208 279 165 236 b 264 82 165 125 208 82 b 363 181 319 82 363 125 z m 668 181 b 569 279 668 236 625 279 b 471 181 514 279 471 236 b 569 82 471 125 514 82 b 668 181 625 82 668 125 z m 668 -125 b 569 -26 668 -69 625 -26 b 471 -125 514 -26 471 -69 b 569 -224 471 -181 514 -224 b 668 -125 625 -224 668 -181 z "},"⡆":{"ha":833,"x_min":0,"x_max":0,"o":"m 363 486 b 264 585 363 542 319 585 b 165 486 208 585 165 542 b 264 388 165 431 208 388 b 363 486 319 388 363 431 z m 363 181 b 264 279 363 236 319 279 b 165 181 208 279 165 236 b 264 82 165 125 208 82 b 363 181 319 82 363 125 z m 363 -125 b 264 -26 363 -69 319 -26 b 165 -125 208 -26 165 -69 b 264 -224 165 -181 208 -224 b 363 -125 319 -224 363 -181 z "},"⣆":{"ha":833,"x_min":0,"x_max":0,"o":"m 363 486 b 264 585 363 542 319 585 b 165 486 208 585 165 542 b 264 388 165 431 208 388 b 363 486 319 388 363 431 z m 363 181 b 264 279 363 236 319 279 b 165 181 208 279 165 236 b 264 82 165 125 208 82 b 363 181 319 82 363 125 z m 363 -125 b 264 -26 363 -69 319 -26 b 165 -125 208 -26 165 -69 b 264 -224 165 -181 208 -224 b 363 -125 319 -224 363 -181 z m 668 -125 b 569 -26 668 -69 625 -26 b 471 -125 514 -26 471 -69 b 569 -224 471 -181 514 -224 b 668 -125 625 -224 668 -181 z "},"⢆":{"ha":833,"x_min":0,"x_max":0,"o":"m 363 486 b 264 585 363 542 319 585 b 165 486 208 585 165 542 b 264 388 165 431 208 388 b 363 486 319 388 363 431 z m 363 181 b 264 279 363 236 319 279 b 165 181 208 279 165 236 b 264 82 165 125 208 82 b 363 181 319 82 363 125 z m 668 -125 b 569 -26 668 -69 625 -26 b 471 -125 514 -26 471 -69 b 569 -224 471 -181 514 -224 b 668 -125 625 -224 668 -181 z "},"⠊":{"ha":833,"x_min":0,"x_max":0,"o":"m 363 486 b 264 585 363 542 319 585 b 165 486 208 585 165 542 b 264 388 165 431 208 388 b 363 486 319 388 363 431 z m 668 792 b 569 890 668 847 625 890 b 471 792 514 890 471 847 b 569 693 471 736 514 693 b 668 792 625 693 668 736 z "},"⠚":{"ha":833,"x_min":0,"x_max":0,"o":"m 363 486 b 264 585 363 542 319 585 b 165 486 208 585 165 542 b 264 388 165 431 208 388 b 363 486 319 388 363 431 z m 668 792 b 569 890 668 847 625 890 b 471 792 514 890 471 847 b 569 693 471 736 514 693 b 668 792 625 693 668 736 z m 668 486 b 569 585 668 542 625 585 b 471 486 514 585 471 542 b 569 388 471 431 514 388 b 668 486 625 388 668 431 z "},"⠺":{"ha":833,"x_min":0,"x_max":0,"o":"m 363 486 b 264 585 363 542 319 585 b 165 486 208 585 165 542 b 264 388 165 431 208 388 b 363 486 319 388 363 431 z m 668 792 b 569 890 668 847 625 890 b 471 792 514 890 471 847 b 569 693 471 736 514 693 b 668 792 625 693 668 736 z m 668 486 b 569 585 668 542 625 585 b 471 486 514 585 471 542 b 569 388 471 431 514 388 b 668 486 625 388 668 431 z m 668 181 b 569 279 668 236 625 279 b 471 181 514 279 471 236 b 569 82 471 125 514 82 b 668 181 625 82 668 125 z "},"⡺":{"ha":833,"x_min":0,"x_max":0,"o":"m 363 486 b 264 585 363 542 319 585 b 165 486 208 585 165 542 b 264 388 165 431 208 388 b 363 486 319 388 363 431 z m 668 792 b 569 890 668 847 625 890 b 471 792 514 890 471 847 b 569 693 471 736 514 693 b 668 792 625 693 668 736 z m 668 486 b 569 585 668 542 625 585 b 471 486 514 585 471 542 b 569 388 471 431 514 388 b 668 486 625 388 668 431 z m 668 181 b 569 279 668 236 625 279 b 471 181 514 279 471 236 b 569 82 471 125 514 82 b 668 181 625 82 668 125 z m 363 -125 b 264 -26 363 -69 319 -26 b 165 -125 208 -26 165 -69 b 264 -224 165 -181 208 -224 b 363 -125 319 -224 363 -181 z "},"⣺":{"ha":833,"x_min":0,"x_max":0,"o":"m 363 486 b 264 585 363 542 319 585 b 165 486 208 585 165 542 b 264 388 165 431 208 388 b 363 486 319 388 363 431 z m 668 792 b 569 890 668 847 625 890 b 471 792 514 890 471 847 b 569 693 471 736 514 693 b 668 792 625 693 668 736 z m 668 486 b 569 585 668 542 625 585 b 471 486 514 585 471 542 b 569 388 471 431 514 388 b 668 486 625 388 668 431 z m 668 181 b 569 279 668 236 625 279 b 471 181 514 279 471 236 b 569 82 471 125 514 82 b 668 181 625 82 668 125 z m 363 -125 b 264 -26 363 -69 319 -26 b 165 -125 208 -26 165 -69 b 264 -224 165 -181 208 -224 b 363 -125 319 -224 363 -181 z m 668 -125 b 569 -26 668 -69 625 -26 b 471 -125 514 -26 471 -69 b 569 -224 471 -181 514 -224 b 668 -125 625 -224 668 -181 z "},"⢺":{"ha":833,"x_min":0,"x_max":0,"o":"m 363 486 b 264 585 363 542 319 585 b 165 486 208 585 165 542 b 264 388 165 431 208 388 b 363 486 319 388 363 431 z m 668 792 b 569 890 668 847 625 890 b 471 792 514 890 471 847 b 569 693 471 736 514 693 b 668 792 625 693 668 736 z m 668 486 b 569 585 668 542 625 585 b 471 486 514 585 471 542 b 569 388 471 431 514 388 b 668 486 625 388 668 431 z m 668 181 b 569 279 668 236 625 279 b 471 181 514 279 471 236 b 569 82 471 125 514 82 b 668 181 625 82 668 125 z m 668 -125 b 569 -26 668 -69 625 -26 b 471 -125 514 -26 471 -69 b 569 -224 471 -181 514 -224 b 668 -125 625 -224 668 -181 z "},"⡚":{"ha":833,"x_min":0,"x_max":0,"o":"m 363 486 b 264 585 363 542 319 585 b 165 486 208 585 165 542 b 264 388 165 431 208 388 b 363 486 319 388 363 431 z m 668 792 b 569 890 668 847 625 890 b 471 792 514 890 471 847 b 569 693 471 736 514 693 b 668 792 625 693 668 736 z m 668 486 b 569 585 668 542 625 585 b 471 486 514 585 471 542 b 569 388 471 431 514 388 b 668 486 625 388 668 431 z m 363 -125 b 264 -26 363 -69 319 -26 b 165 -125 208 -26 165 -69 b 264 -224 165 -181 208 -224 b 363 -125 319 -224 363 -181 z "},"⣚":{"ha":833,"x_min":0,"x_max":0,"o":"m 363 486 b 264 585 363 542 319 585 b 165 486 208 585 165 542 b 264 388 165 431 208 388 b 363 486 319 388 363 431 z m 668 792 b 569 890 668 847 625 890 b 471 792 514 890 471 847 b 569 693 471 736 514 693 b 668 792 625 693 668 736 z m 668 486 b 569 585 668 542 625 585 b 471 486 514 585 471 542 b 569 388 471 431 514 388 b 668 486 625 388 668 431 z m 363 -125 b 264 -26 363 -69 319 -26 b 165 -125 208 -26 165 -69 b 264 -224 165 -181 208 -224 b 363 -125 319 -224 363 -181 z m 668 -125 b 569 -26 668 -69 625 -26 b 471 -125 514 -26 471 -69 b 569 -224 471 -181 514 -224 b 668 -125 625 -224 668 -181 z "},"⢚":{"ha":833,"x_min":0,"x_max":0,"o":"m 363 486 b 264 585 363 542 319 585 b 165 486 208 585 165 542 b 264 388 165 431 208 388 b 363 486 319 388 363 431 z m 668 792 b 569 890 668 847 625 890 b 471 792 514 890 471 847 b 569 693 471 736 514 693 b 668 792 625 693 668 736 z m 668 486 b 569 585 668 542 625 585 b 471 486 514 585 471 542 b 569 388 471 431 514 388 b 668 486 625 388 668 431 z m 668 -125 b 569 -26 668 -69 625 -26 b 471 -125 514 -26 471 -69 b 569 -224 471 -181 514 -224 b 668 -125 625 -224 668 -181 z "},"⠪":{"ha":833,"x_min":0,"x_max":0,"o":"m 363 486 b 264 585 363 542 319 585 b 165 486 208 585 165 542 b 264 388 165 431 208 388 b 363 486 319 388 363 431 z m 668 792 b 569 890 668 847 625 890 b 471 792 514 890 471 847 b 569 693 471 736 514 693 b 668 792 625 693 668 736 z m 668 181 b 569 279 668 236 625 279 b 471 181 514 279 471 236 b 569 82 471 125 514 82 b 668 181 625 82 668 125 z "},"⡪":{"ha":833,"x_min":0,"x_max":0,"o":"m 363 486 b 264 585 363 542 319 585 b 165 486 208 585 165 542 b 264 388 165 431 208 388 b 363 486 319 388 363 431 z m 668 792 b 569 890 668 847 625 890 b 471 792 514 890 471 847 b 569 693 471 736 514 693 b 668 792 625 693 668 736 z m 668 181 b 569 279 668 236 625 279 b 471 181 514 279 471 236 b 569 82 471 125 514 82 b 668 181 625 82 668 125 z m 363 -125 b 264 -26 363 -69 319 -26 b 165 -125 208 -26 165 -69 b 264 -224 165 -181 208 -224 b 363 -125 319 -224 363 -181 z "},"⣪":{"ha":833,"x_min":0,"x_max":0,"o":"m 363 486 b 264 585 363 542 319 585 b 165 486 208 585 165 542 b 264 388 165 431 208 388 b 363 486 319 388 363 431 z m 668 792 b 569 890 668 847 625 890 b 471 792 514 890 471 847 b 569 693 471 736 514 693 b 668 792 625 693 668 736 z m 668 181 b 569 279 668 236 625 279 b 471 181 514 279 471 236 b 569 82 471 125 514 82 b 668 181 625 82 668 125 z m 363 -125 b 264 -26 363 -69 319 -26 b 165 -125 208 -26 165 -69 b 264 -224 165 -181 208 -224 b 363 -125 319 -224 363 -181 z m 668 -125 b 569 -26 668 -69 625 -26 b 471 -125 514 -26 471 -69 b 569 -224 471 -181 514 -224 b 668 -125 625 -224 668 -181 z "},"⢪":{"ha":833,"x_min":0,"x_max":0,"o":"m 363 486 b 264 585 363 542 319 585 b 165 486 208 585 165 542 b 264 388 165 431 208 388 b 363 486 319 388 363 431 z m 668 792 b 569 890 668 847 625 890 b 471 792 514 890 471 847 b 569 693 471 736 514 693 b 668 792 625 693 668 736 z m 668 181 b 569 279 668 236 625 279 b 471 181 514 279 471 236 b 569 82 471 125 514 82 b 668 181 625 82 668 125 z m 668 -125 b 569 -26 668 -69 625 -26 b 471 -125 514 -26 471 -69 b 569 -224 471 -181 514 -224 b 668 -125 625 -224 668 -181 z "},"⡊":{"ha":833,"x_min":0,"x_max":0,"o":"m 363 486 b 264 585 363 542 319 585 b 165 486 208 585 165 542 b 264 388 165 431 208 388 b 363 486 319 388 363 431 z m 668 792 b 569 890 668 847 625 890 b 471 792 514 890 471 847 b 569 693 471 736 514 693 b 668 792 625 693 668 736 z m 363 -125 b 264 -26 363 -69 319 -26 b 165 -125 208 -26 165 -69 b 264 -224 165 -181 208 -224 b 363 -125 319 -224 363 -181 z "},"⣊":{"ha":833,"x_min":0,"x_max":0,"o":"m 363 486 b 264 585 363 542 319 585 b 165 486 208 585 165 542 b 264 388 165 431 208 388 b 363 486 319 388 363 431 z m 668 792 b 569 890 668 847 625 890 b 471 792 514 890 471 847 b 569 693 471 736 514 693 b 668 792 625 693 668 736 z m 363 -125 b 264 -26 363 -69 319 -26 b 165 -125 208 -26 165 -69 b 264 -224 165 -181 208 -224 b 363 -125 319 -224 363 -181 z m 668 -125 b 569 -26 668 -69 625 -26 b 471 -125 514 -26 471 -69 b 569 -224 471 -181 514 -224 b 668 -125 625 -224 668 -181 z "},"⢊":{"ha":833,"x_min":0,"x_max":0,"o":"m 363 486 b 264 585 363 542 319 585 b 165 486 208 585 165 542 b 264 388 165 431 208 388 b 363 486 319 388 363 431 z m 668 792 b 569 890 668 847 625 890 b 471 792 514 890 471 847 b 569 693 471 736 514 693 b 668 792 625 693 668 736 z m 668 -125 b 569 -26 668 -69 625 -26 b 471 -125 514 -26 471 -69 b 569 -224 471 -181 514 -224 b 668 -125 625 -224 668 -181 z "},"⠒":{"ha":833,"x_min":0,"x_max":0,"o":"m 363 486 b 264 585 363 542 319 585 b 165 486 208 585 165 542 b 264 388 165 431 208 388 b 363 486 319 388 363 431 z m 668 486 b 569 585 668 542 625 585 b 471 486 514 585 471 542 b 569 388 471 431 514 388 b 668 486 625 388 668 431 z "},"⠲":{"ha":833,"x_min":0,"x_max":0,"o":"m 363 486 b 264 585 363 542 319 585 b 165 486 208 585 165 542 b 264 388 165 431 208 388 b 363 486 319 388 363 431 z m 668 486 b 569 585 668 542 625 585 b 471 486 514 585 471 542 b 569 388 471 431 514 388 b 668 486 625 388 668 431 z m 668 181 b 569 279 668 236 625 279 b 471 181 514 279 471 236 b 569 82 471 125 514 82 b 668 181 625 82 668 125 z "},"⡲":{"ha":833,"x_min":0,"x_max":0,"o":"m 363 486 b 264 585 363 542 319 585 b 165 486 208 585 165 542 b 264 388 165 431 208 388 b 363 486 319 388 363 431 z m 668 486 b 569 585 668 542 625 585 b 471 486 514 585 471 542 b 569 388 471 431 514 388 b 668 486 625 388 668 431 z m 668 181 b 569 279 668 236 625 279 b 471 181 514 279 471 236 b 569 82 471 125 514 82 b 668 181 625 82 668 125 z m 363 -125 b 264 -26 363 -69 319 -26 b 165 -125 208 -26 165 -69 b 264 -224 165 -181 208 -224 b 363 -125 319 -224 363 -181 z "},"⣲":{"ha":833,"x_min":0,"x_max":0,"o":"m 363 486 b 264 585 363 542 319 585 b 165 486 208 585 165 542 b 264 388 165 431 208 388 b 363 486 319 388 363 431 z m 668 486 b 569 585 668 542 625 585 b 471 486 514 585 471 542 b 569 388 471 431 514 388 b 668 486 625 388 668 431 z m 668 181 b 569 279 668 236 625 279 b 471 181 514 279 471 236 b 569 82 471 125 514 82 b 668 181 625 82 668 125 z m 363 -125 b 264 -26 363 -69 319 -26 b 165 -125 208 -26 165 -69 b 264 -224 165 -181 208 -224 b 363 -125 319 -224 363 -181 z m 668 -125 b 569 -26 668 -69 625 -26 b 471 -125 514 -26 471 -69 b 569 -224 471 -181 514 -224 b 668 -125 625 -224 668 -181 z "},"⢲":{"ha":833,"x_min":0,"x_max":0,"o":"m 363 486 b 264 585 363 542 319 585 b 165 486 208 585 165 542 b 264 388 165 431 208 388 b 363 486 319 388 363 431 z m 668 486 b 569 585 668 542 625 585 b 471 486 514 585 471 542 b 569 388 471 431 514 388 b 668 486 625 388 668 431 z m 668 181 b 569 279 668 236 625 279 b 471 181 514 279 471 236 b 569 82 471 125 514 82 b 668 181 625 82 668 125 z m 668 -125 b 569 -26 668 -69 625 -26 b 471 -125 514 -26 471 -69 b 569 -224 471 -181 514 -224 b 668 -125 625 -224 668 -181 z "},"⡒":{"ha":833,"x_min":0,"x_max":0,"o":"m 363 486 b 264 585 363 542 319 585 b 165 486 208 585 165 542 b 264 388 165 431 208 388 b 363 486 319 388 363 431 z m 668 486 b 569 585 668 542 625 585 b 471 486 514 585 471 542 b 569 388 471 431 514 388 b 668 486 625 388 668 431 z m 363 -125 b 264 -26 363 -69 319 -26 b 165 -125 208 -26 165 -69 b 264 -224 165 -181 208 -224 b 363 -125 319 -224 363 -181 z "},"⣒":{"ha":833,"x_min":0,"x_max":0,"o":"m 363 486 b 264 585 363 542 319 585 b 165 486 208 585 165 542 b 264 388 165 431 208 388 b 363 486 319 388 363 431 z m 668 486 b 569 585 668 542 625 585 b 471 486 514 585 471 542 b 569 388 471 431 514 388 b 668 486 625 388 668 431 z m 363 -125 b 264 -26 363 -69 319 -26 b 165 -125 208 -26 165 -69 b 264 -224 165 -181 208 -224 b 363 -125 319 -224 363 -181 z m 668 -125 b 569 -26 668 -69 625 -26 b 471 -125 514 -26 471 -69 b 569 -224 471 -181 514 -224 b 668 -125 625 -224 668 -181 z "},"⢒":{"ha":833,"x_min":0,"x_max":0,"o":"m 363 486 b 264 585 363 542 319 585 b 165 486 208 585 165 542 b 264 388 165 431 208 388 b 363 486 319 388 363 431 z m 668 486 b 569 585 668 542 625 585 b 471 486 514 585 471 542 b 569 388 471 431 514 388 b 668 486 625 388 668 431 z m 668 -125 b 569 -26 668 -69 625 -26 b 471 -125 514 -26 471 -69 b 569 -224 471 -181 514 -224 b 668 -125 625 -224 668 -181 z "},"⠢":{"ha":833,"x_min":0,"x_max":0,"o":"m 363 486 b 264 585 363 542 319 585 b 165 486 208 585 165 542 b 264 388 165 431 208 388 b 363 486 319 388 363 431 z m 668 181 b 569 279 668 236 625 279 b 471 181 514 279 471 236 b 569 82 471 125 514 82 b 668 181 625 82 668 125 z "},"⡢":{"ha":833,"x_min":0,"x_max":0,"o":"m 363 486 b 264 585 363 542 319 585 b 165 486 208 585 165 542 b 264 388 165 431 208 388 b 363 486 319 388 363 431 z m 668 181 b 569 279 668 236 625 279 b 471 181 514 279 471 236 b 569 82 471 125 514 82 b 668 181 625 82 668 125 z m 363 -125 b 264 -26 363 -69 319 -26 b 165 -125 208 -26 165 -69 b 264 -224 165 -181 208 -224 b 363 -125 319 -224 363 -181 z "},"⣢":{"ha":833,"x_min":0,"x_max":0,"o":"m 363 486 b 264 585 363 542 319 585 b 165 486 208 585 165 542 b 264 388 165 431 208 388 b 363 486 319 388 363 431 z m 668 181 b 569 279 668 236 625 279 b 471 181 514 279 471 236 b 569 82 471 125 514 82 b 668 181 625 82 668 125 z m 363 -125 b 264 -26 363 -69 319 -26 b 165 -125 208 -26 165 -69 b 264 -224 165 -181 208 -224 b 363 -125 319 -224 363 -181 z m 668 -125 b 569 -26 668 -69 625 -26 b 471 -125 514 -26 471 -69 b 569 -224 471 -181 514 -224 b 668 -125 625 -224 668 -181 z "},"⢢":{"ha":833,"x_min":0,"x_max":0,"o":"m 363 486 b 264 585 363 542 319 585 b 165 486 208 585 165 542 b 264 388 165 431 208 388 b 363 486 319 388 363 431 z m 668 181 b 569 279 668 236 625 279 b 471 181 514 279 471 236 b 569 82 471 125 514 82 b 668 181 625 82 668 125 z m 668 -125 b 569 -26 668 -69 625 -26 b 471 -125 514 -26 471 -69 b 569 -224 471 -181 514 -224 b 668 -125 625 -224 668 -181 z "},"⡂":{"ha":833,"x_min":0,"x_max":0,"o":"m 363 486 b 264 585 363 542 319 585 b 165 486 208 585 165 542 b 264 388 165 431 208 388 b 363 486 319 388 363 431 z m 363 -125 b 264 -26 363 -69 319 -26 b 165 -125 208 -26 165 -69 b 264 -224 165 -181 208 -224 b 363 -125 319 -224 363 -181 z "},"⣂":{"ha":833,"x_min":0,"x_max":0,"o":"m 363 486 b 264 585 363 542 319 585 b 165 486 208 585 165 542 b 264 388 165 431 208 388 b 363 486 319 388 363 431 z m 363 -125 b 264 -26 363 -69 319 -26 b 165 -125 208 -26 165 -69 b 264 -224 165 -181 208 -224 b 363 -125 319 -224 363 -181 z m 668 -125 b 569 -26 668 -69 625 -26 b 471 -125 514 -26 471 -69 b 569 -224 471 -181 514 -224 b 668 -125 625 -224 668 -181 z "},"⢂":{"ha":833,"x_min":0,"x_max":0,"o":"m 363 486 b 264 585 363 542 319 585 b 165 486 208 585 165 542 b 264 388 165 431 208 388 b 363 486 319 388 363 431 z m 668 -125 b 569 -26 668 -69 625 -26 b 471 -125 514 -26 471 -69 b 569 -224 471 -181 514 -224 b 668 -125 625 -224 668 -181 z "},"⠄":{"ha":833,"x_min":0,"x_max":0,"o":"m 363 181 b 264 279 363 236 319 279 b 165 181 208 279 165 236 b 264 82 165 125 208 82 b 363 181 319 82 363 125 z "},"⠌":{"ha":833,"x_min":0,"x_max":0,"o":"m 363 181 b 264 279 363 236 319 279 b 165 181 208 279 165 236 b 264 82 165 125 208 82 b 363 181 319 82 363 125 z m 668 792 b 569 890 668 847 625 890 b 471 792 514 890 471 847 b 569 693 471 736 514 693 b 668 792 625 693 668 736 z "},"⠜":{"ha":833,"x_min":0,"x_max":0,"o":"m 363 181 b 264 279 363 236 319 279 b 165 181 208 279 165 236 b 264 82 165 125 208 82 b 363 181 319 82 363 125 z m 668 792 b 569 890 668 847 625 890 b 471 792 514 890 471 847 b 569 693 471 736 514 693 b 668 792 625 693 668 736 z m 668 486 b 569 585 668 542 625 585 b 471 486 514 585 471 542 b 569 388 471 431 514 388 b 668 486 625 388 668 431 z "},"⠼":{"ha":833,"x_min":0,"x_max":0,"o":"m 363 181 b 264 279 363 236 319 279 b 165 181 208 279 165 236 b 264 82 165 125 208 82 b 363 181 319 82 363 125 z m 668 792 b 569 890 668 847 625 890 b 471 792 514 890 471 847 b 569 693 471 736 514 693 b 668 792 625 693 668 736 z m 668 486 b 569 585 668 542 625 585 b 471 486 514 585 471 542 b 569 388 471 431 514 388 b 668 486 625 388 668 431 z m 668 181 b 569 279 668 236 625 279 b 471 181 514 279 471 236 b 569 82 471 125 514 82 b 668 181 625 82 668 125 z "},"⡼":{"ha":833,"x_min":0,"x_max":0,"o":"m 363 181 b 264 279 363 236 319 279 b 165 181 208 279 165 236 b 264 82 165 125 208 82 b 363 181 319 82 363 125 z m 668 792 b 569 890 668 847 625 890 b 471 792 514 890 471 847 b 569 693 471 736 514 693 b 668 792 625 693 668 736 z m 668 486 b 569 585 668 542 625 585 b 471 486 514 585 471 542 b 569 388 471 431 514 388 b 668 486 625 388 668 431 z m 668 181 b 569 279 668 236 625 279 b 471 181 514 279 471 236 b 569 82 471 125 514 82 b 668 181 625 82 668 125 z m 363 -125 b 264 -26 363 -69 319 -26 b 165 -125 208 -26 165 -69 b 264 -224 165 -181 208 -224 b 363 -125 319 -224 363 -181 z "},"⣼":{"ha":833,"x_min":0,"x_max":0,"o":"m 363 181 b 264 279 363 236 319 279 b 165 181 208 279 165 236 b 264 82 165 125 208 82 b 363 181 319 82 363 125 z m 668 792 b 569 890 668 847 625 890 b 471 792 514 890 471 847 b 569 693 471 736 514 693 b 668 792 625 693 668 736 z m 668 486 b 569 585 668 542 625 585 b 471 486 514 585 471 542 b 569 388 471 431 514 388 b 668 486 625 388 668 431 z m 668 181 b 569 279 668 236 625 279 b 471 181 514 279 471 236 b 569 82 471 125 514 82 b 668 181 625 82 668 125 z m 363 -125 b 264 -26 363 -69 319 -26 b 165 -125 208 -26 165 -69 b 264 -224 165 -181 208 -224 b 363 -125 319 -224 363 -181 z m 668 -125 b 569 -26 668 -69 625 -26 b 471 -125 514 -26 471 -69 b 569 -224 471 -181 514 -224 b 668 -125 625 -224 668 -181 z "},"⢼":{"ha":833,"x_min":0,"x_max":0,"o":"m 363 181 b 264 279 363 236 319 279 b 165 181 208 279 165 236 b 264 82 165 125 208 82 b 363 181 319 82 363 125 z m 668 792 b 569 890 668 847 625 890 b 471 792 514 890 471 847 b 569 693 471 736 514 693 b 668 792 625 693 668 736 z m 668 486 b 569 585 668 542 625 585 b 471 486 514 585 471 542 b 569 388 471 431 514 388 b 668 486 625 388 668 431 z m 668 181 b 569 279 668 236 625 279 b 471 181 514 279 471 236 b 569 82 471 125 514 82 b 668 181 625 82 668 125 z m 668 -125 b 569 -26 668 -69 625 -26 b 471 -125 514 -26 471 -69 b 569 -224 471 -181 514 -224 b 668 -125 625 -224 668 -181 z "},"⡜":{"ha":833,"x_min":0,"x_max":0,"o":"m 363 181 b 264 279 363 236 319 279 b 165 181 208 279 165 236 b 264 82 165 125 208 82 b 363 181 319 82 363 125 z m 668 792 b 569 890 668 847 625 890 b 471 792 514 890 471 847 b 569 693 471 736 514 693 b 668 792 625 693 668 736 z m 668 486 b 569 585 668 542 625 585 b 471 486 514 585 471 542 b 569 388 471 431 514 388 b 668 486 625 388 668 431 z m 363 -125 b 264 -26 363 -69 319 -26 b 165 -125 208 -26 165 -69 b 264 -224 165 -181 208 -224 b 363 -125 319 -224 363 -181 z "},"⣜":{"ha":833,"x_min":0,"x_max":0,"o":"m 363 181 b 264 279 363 236 319 279 b 165 181 208 279 165 236 b 264 82 165 125 208 82 b 363 181 319 82 363 125 z m 668 792 b 569 890 668 847 625 890 b 471 792 514 890 471 847 b 569 693 471 736 514 693 b 668 792 625 693 668 736 z m 668 486 b 569 585 668 542 625 585 b 471 486 514 585 471 542 b 569 388 471 431 514 388 b 668 486 625 388 668 431 z m 363 -125 b 264 -26 363 -69 319 -26 b 165 -125 208 -26 165 -69 b 264 -224 165 -181 208 -224 b 363 -125 319 -224 363 -181 z m 668 -125 b 569 -26 668 -69 625 -26 b 471 -125 514 -26 471 -69 b 569 -224 471 -181 514 -224 b 668 -125 625 -224 668 -181 z "},"⢜":{"ha":833,"x_min":0,"x_max":0,"o":"m 363 181 b 264 279 363 236 319 279 b 165 181 208 279 165 236 b 264 82 165 125 208 82 b 363 181 319 82 363 125 z m 668 792 b 569 890 668 847 625 890 b 471 792 514 890 471 847 b 569 693 471 736 514 693 b 668 792 625 693 668 736 z m 668 486 b 569 585 668 542 625 585 b 471 486 514 585 471 542 b 569 388 471 431 514 388 b 668 486 625 388 668 431 z m 668 -125 b 569 -26 668 -69 625 -26 b 471 -125 514 -26 471 -69 b 569 -224 471 -181 514 -224 b 668 -125 625 -224 668 -181 z "},"⠬":{"ha":833,"x_min":0,"x_max":0,"o":"m 363 181 b 264 279 363 236 319 279 b 165 181 208 279 165 236 b 264 82 165 125 208 82 b 363 181 319 82 363 125 z m 668 792 b 569 890 668 847 625 890 b 471 792 514 890 471 847 b 569 693 471 736 514 693 b 668 792 625 693 668 736 z m 668 181 b 569 279 668 236 625 279 b 471 181 514 279 471 236 b 569 82 471 125 514 82 b 668 181 625 82 668 125 z "},"⡬":{"ha":833,"x_min":0,"x_max":0,"o":"m 363 181 b 264 279 363 236 319 279 b 165 181 208 279 165 236 b 264 82 165 125 208 82 b 363 181 319 82 363 125 z m 668 792 b 569 890 668 847 625 890 b 471 792 514 890 471 847 b 569 693 471 736 514 693 b 668 792 625 693 668 736 z m 668 181 b 569 279 668 236 625 279 b 471 181 514 279 471 236 b 569 82 471 125 514 82 b 668 181 625 82 668 125 z m 363 -125 b 264 -26 363 -69 319 -26 b 165 -125 208 -26 165 -69 b 264 -224 165 -181 208 -224 b 363 -125 319 -224 363 -181 z "},"⣬":{"ha":833,"x_min":0,"x_max":0,"o":"m 363 181 b 264 279 363 236 319 279 b 165 181 208 279 165 236 b 264 82 165 125 208 82 b 363 181 319 82 363 125 z m 668 792 b 569 890 668 847 625 890 b 471 792 514 890 471 847 b 569 693 471 736 514 693 b 668 792 625 693 668 736 z m 668 181 b 569 279 668 236 625 279 b 471 181 514 279 471 236 b 569 82 471 125 514 82 b 668 181 625 82 668 125 z m 363 -125 b 264 -26 363 -69 319 -26 b 165 -125 208 -26 165 -69 b 264 -224 165 -181 208 -224 b 363 -125 319 -224 363 -181 z m 668 -125 b 569 -26 668 -69 625 -26 b 471 -125 514 -26 471 -69 b 569 -224 471 -181 514 -224 b 668 -125 625 -224 668 -181 z "},"⢬":{"ha":833,"x_min":0,"x_max":0,"o":"m 363 181 b 264 279 363 236 319 279 b 165 181 208 279 165 236 b 264 82 165 125 208 82 b 363 181 319 82 363 125 z m 668 792 b 569 890 668 847 625 890 b 471 792 514 890 471 847 b 569 693 471 736 514 693 b 668 792 625 693 668 736 z m 668 181 b 569 279 668 236 625 279 b 471 181 514 279 471 236 b 569 82 471 125 514 82 b 668 181 625 82 668 125 z m 668 -125 b 569 -26 668 -69 625 -26 b 471 -125 514 -26 471 -69 b 569 -224 471 -181 514 -224 b 668 -125 625 -224 668 -181 z "},"⡌":{"ha":833,"x_min":0,"x_max":0,"o":"m 363 181 b 264 279 363 236 319 279 b 165 181 208 279 165 236 b 264 82 165 125 208 82 b 363 181 319 82 363 125 z m 668 792 b 569 890 668 847 625 890 b 471 792 514 890 471 847 b 569 693 471 736 514 693 b 668 792 625 693 668 736 z m 363 -125 b 264 -26 363 -69 319 -26 b 165 -125 208 -26 165 -69 b 264 -224 165 -181 208 -224 b 363 -125 319 -224 363 -181 z "}}}
